<svg width="348" height="348" viewBox="0 0 348 348" fill="none" xmlns="http://www.w3.org/2000/svg">
<path d="M39.8877 218.064L38.6836 215.67C22.3137 183.159 15.7782 145.763 21.6316 118.062L23.0097 118.216C23.0097 118.564 22.78 153.384 45.7758 182.171L46.1238 182.61L45.7689 183.041C43.2842 186.103 41.8225 189.375 41.4258 192.778C40.9526 196.794 40.4445 204.819 40.006 215.384L39.8946 218.064H39.8877ZM21.9378 124.368C18.2838 150.308 24.5061 183.278 38.7253 212.614C39.143 203.357 39.6023 196.307 40.0408 192.611C40.4584 189.11 41.8991 185.742 44.3421 182.603C27.1439 160.811 22.954 135.734 21.9378 124.368Z" fill="#363634"/>
<path d="M168.244 299.99C145.039 299.99 123.477 294.812 103.885 284.511C102.563 283.815 101.268 283.105 100.029 282.402C90.0625 276.744 80.6595 269.693 72.0709 261.445L71.9665 261.32C59.0696 241.101 59.0696 240.371 59.0696 239.981C59.0696 238.533 63.8859 204.923 64.4357 201.095L64.5958 199.982L65.5215 200.622C82.4134 212.315 103.871 219.073 129.31 220.695C137.627 221.238 146.508 221.224 155.702 220.66C225.295 216.442 268.078 193.481 291.708 174.967C317.272 154.937 326.515 135.713 326.605 135.518L328.081 132.386L327.934 135.838C327.92 136.193 326.194 172.121 308.739 209.872C298.48 232.06 284.873 250.539 268.294 264.793C247.567 282.618 222.128 293.844 192.681 298.152C184.357 299.37 176.199 299.983 168.244 299.983V299.99ZM73.094 260.499C81.5782 268.642 90.8768 275.602 100.718 281.191C101.943 281.887 103.224 282.59 104.532 283.279C130.577 296.969 160.164 301.514 192.479 296.781C258.557 287.1 291.485 243.858 307.472 209.287C321.81 178.28 325.464 148.54 326.313 138.97C322.714 145.137 312.574 160.386 292.571 176.06C277.426 187.927 259.657 197.727 239.765 205.181C214.918 214.5 186.667 220.173 155.786 222.045C146.529 222.616 137.599 222.623 129.226 222.08C103.989 220.465 82.6083 213.846 65.6537 202.39C63.5449 217.103 60.566 238.248 60.4616 239.911C60.6565 240.475 62.3547 243.67 73.087 260.499H73.094Z" fill="#363634"/>
<path d="M327.224 142.972C331.18 142.972 334.386 139.766 334.386 135.81C334.386 131.855 331.18 128.649 327.224 128.649C323.269 128.649 320.062 131.855 320.062 135.81C320.062 139.766 323.269 142.972 327.224 142.972Z" fill="#363634"/>
<path d="M22.3137 128.649C26.2691 128.649 29.4755 125.442 29.4755 121.487C29.4755 117.531 26.2691 114.325 22.3137 114.325C18.3583 114.325 15.1519 117.531 15.1519 121.487C15.1519 125.442 18.3583 128.649 22.3137 128.649Z" fill="#363634"/>
<path d="M65.1177 201.186C65.1177 201.186 68.5699 191.435 62.3685 182.157C60.9904 180.104 59.0277 178.754 56.8771 178.127C55.6521 176.172 54.7751 174.828 54.7751 174.828L59.6959 172.072C59.6959 172.072 62.8279 182.053 72.0986 186.967C81.3693 191.88 91.4683 185.742 88.7469 179.603C86.0116 173.464 80.1443 166.643 80.1443 166.643H86.1508C86.1508 166.643 94.7534 179.06 99.521 181.238C104.296 183.424 110.713 185.331 113.573 189.973C116.441 194.609 116.58 203.204 118.898 206.343C121.181 209.44 129.017 221.022 129.261 221.391C101.129 219.595 80.4019 211.779 65.1177 201.193V201.186Z" fill="#7E72D1"/>
<path d="M129.261 221.384L163.567 214.173C164.534 213.971 165.314 213.24 165.571 212.287L177.104 170.207C177.382 169.198 178.225 168.453 179.255 168.293L225.281 161.228C227.126 160.943 228.678 162.613 228.26 164.43L219.135 204.283C218.906 205.285 218.112 206.065 217.103 206.28L144.121 221.766L129.247 221.377L129.261 221.384Z" fill="#363634"/>
<path d="M220.855 197.532C220.639 197.532 220.423 197.434 220.291 197.239C220.068 196.926 220.138 196.495 220.451 196.265C221.05 195.833 235.213 185.707 244.651 186.959C253.866 188.177 266.693 191.484 266.819 191.518C267.194 191.616 267.417 191.992 267.32 192.367C267.222 192.743 266.846 192.966 266.471 192.869C266.345 192.834 253.595 189.556 244.47 188.345C235.582 187.168 221.412 197.295 221.265 197.399C221.14 197.49 221.001 197.532 220.862 197.532H220.855Z" fill="#363634"/>
<path d="M166.086 211.125C165.14 211.125 142.77 210.979 138.233 209.74C135.852 209.092 131.273 203.044 124.02 193.175C118.564 185.742 112.912 178.051 109.766 175.803C103.272 171.167 86.1787 167.36 86.0047 167.318C85.6289 167.235 85.3922 166.866 85.4758 166.49C85.5593 166.114 85.9282 165.878 86.304 165.961C87.0209 166.121 103.85 169.866 110.574 174.668C113.9 177.049 119.615 184.823 125.141 192.347C130.465 199.599 136.506 207.826 138.594 208.396C142.958 209.587 165.864 209.733 166.093 209.733C166.476 209.733 166.789 210.046 166.782 210.436C166.782 210.818 166.469 211.125 166.086 211.125Z" fill="#363634"/>
<path d="M132.678 214.813C132.588 214.813 132.504 214.8 132.414 214.765C132.059 214.619 131.885 214.215 132.031 213.86C133.333 210.686 137.195 208.264 137.362 208.16C137.69 207.958 138.114 208.055 138.323 208.382C138.525 208.71 138.427 209.141 138.1 209.343C138.065 209.364 134.453 211.633 133.326 214.389C133.214 214.66 132.957 214.82 132.678 214.82V214.813Z" fill="#363634"/>
<path d="M97.621 212.767C97.4609 212.767 97.3078 212.712 97.1755 212.607C96.8832 212.364 96.8415 211.918 97.092 211.626C101.428 206.454 114.005 203.858 114.541 203.754C114.924 203.677 115.285 203.921 115.362 204.297C115.439 204.673 115.195 205.042 114.819 205.118C114.694 205.146 102.187 207.721 98.1638 212.524C98.0246 212.691 97.8298 212.774 97.6279 212.774L97.621 212.767Z" fill="#363634"/>
<path d="M87.2855 313.833C85.1348 313.833 77.6319 309.616 74.841 305.433C73.5673 303.519 72.5929 300.449 71.5698 297.192C70.4214 293.545 69.2312 289.78 67.6165 287.817C66.9135 286.954 64.9856 284.845 62.5566 282.172C51.0656 269.547 38.7464 255.759 38.1339 251.875C37.605 248.549 37.9599 230.675 38.6072 215.322C39.0527 204.721 39.5607 196.662 40.041 192.611C40.4725 188.943 42.0385 185.428 44.6903 182.164C45.1983 181.545 45.7343 180.939 46.298 180.354C46.4233 180.222 46.5555 180.09 46.7017 179.958C48.3582 176.916 54.2533 174.292 54.5039 174.181L55.0537 173.937L57.3366 177.536C59.6403 178.26 61.5822 179.721 62.9533 181.767C69.0781 190.92 66.134 200.378 65.8139 201.346C63.698 216.08 60.5799 238.206 60.4755 239.904C60.6774 240.468 62.3756 243.67 73.1497 260.562C78.5646 269.067 84.0839 277.593 85.1835 279.284C86.151 279.576 89.9094 280.655 93.0831 280.913C94.2316 281.003 95.6096 281.01 96.9459 281.017C98.1152 281.017 99.3332 281.031 100.419 281.094H100.586L100.732 281.184C101.95 281.88 103.238 282.583 104.539 283.272L105.277 283.655L104.769 284.309C104.212 285.026 103.085 285.701 101.888 286.411C100.913 286.989 99.9109 287.587 99.3541 288.137C97.9899 289.501 98.2405 290.364 99.89 293.454C100.551 294.7 102.034 296.412 103.461 298.069C104.024 298.723 104.588 299.37 105.096 299.99C106.822 302.113 107.435 303.219 107.337 304.089C107.121 306.052 104.163 306.699 102.827 306.894C102.667 307.514 102.298 308.537 101.505 309.309C100.496 310.332 97.5375 310.312 96.243 310.256C96.0133 310.694 95.5748 311.321 94.8301 311.766C93.8348 312.365 91.6146 312.156 90.5984 312.024C90.1043 312.65 88.9559 313.819 87.3063 313.819L87.2855 313.833ZM54.5178 175.712C52.6107 176.631 48.8802 178.726 47.8779 180.716L47.8223 180.828L47.7318 180.911C47.5717 181.057 47.4395 181.176 47.3142 181.315C46.7643 181.886 46.2493 182.463 45.7691 183.048C43.2913 186.103 41.8297 189.382 41.426 192.778C40.9527 196.794 40.4447 204.819 40.0062 215.384C39.3728 230.341 39.0109 248.465 39.512 251.66C40.1106 255.453 55.9655 272.867 63.5867 281.233C66.1271 284.024 67.9645 286.042 68.6953 286.933C70.4771 289.098 71.709 293.002 72.8991 296.767C73.8944 299.92 74.834 302.906 76.0033 304.653C78.5576 308.481 85.7195 312.434 87.2924 312.434C88.7053 312.434 89.6588 310.938 89.6727 310.917L89.9163 310.52L90.3757 310.597C91.7816 310.82 93.5982 310.882 94.0924 310.583C94.8649 310.117 95.1085 309.351 95.1155 309.344L95.2755 308.808L95.8323 308.85C97.6976 308.982 100.015 308.829 100.503 308.335C101.345 307.5 101.54 306.191 101.54 306.177L101.616 305.634L102.159 305.579C103.683 305.426 105.841 304.771 105.931 303.943C105.959 303.665 105.653 302.906 103.996 300.881C103.495 300.275 102.945 299.635 102.389 298.988C100.906 297.276 99.375 295.501 98.6442 294.116C97.0364 291.095 96.2291 289.285 98.3519 287.156C99.027 286.481 100.113 285.84 101.157 285.221C101.825 284.824 102.5 284.42 103.008 284.052C102.041 283.53 101.087 283.008 100.168 282.486C99.1523 282.437 98.0247 282.43 96.9251 282.423C95.5609 282.423 94.155 282.409 92.9579 282.312C89.1368 281.998 84.7033 280.606 84.5154 280.544L84.3066 280.481L84.1674 280.307C84.1674 280.307 84.1187 280.244 84.0769 280.175C83.2765 278.95 77.5623 270.125 71.9595 261.327C59.0696 241.108 59.0696 240.378 59.0696 239.988C59.0696 238.54 63.8859 204.93 64.4358 201.102L64.4706 200.97C64.5054 200.873 67.7209 191.421 61.791 182.561C60.5521 180.716 58.7843 179.422 56.6893 178.816L56.4387 178.74L54.5247 175.726L54.5178 175.712Z" fill="#363634"/>
<path d="M104.393 284.782L103.885 284.518C102.562 283.822 101.268 283.112 100.029 282.409L97.4678 280.94L100.419 281.107C102.674 281.233 103.941 281.574 104.65 282.235C105.284 282.834 105.319 283.613 104.755 284.33L104.4 284.782H104.393Z" fill="#363634"/>
<path d="M50.9611 180.814C50.7523 180.814 50.5504 180.723 50.4112 180.542C50.1746 180.236 50.2303 179.805 50.5296 179.568C53.4597 177.285 56.7657 177.431 56.9119 177.438C57.2947 177.459 57.594 177.786 57.5731 178.169C57.5522 178.552 57.2529 178.851 56.8423 178.83C56.7936 178.83 53.8912 178.726 51.3856 180.668C51.2604 180.765 51.1072 180.814 50.9611 180.814Z" fill="#363634"/>
<path d="M102.222 306.971C102.054 306.971 101.887 306.908 101.755 306.79C95.7835 301.333 92.7211 294.77 92.5889 294.491C92.4288 294.143 92.5819 293.733 92.9299 293.566C93.2779 293.406 93.6955 293.559 93.8556 293.907C93.8835 293.969 96.9389 300.498 102.695 305.76C102.98 306.017 103.001 306.456 102.737 306.741C102.597 306.894 102.409 306.971 102.222 306.971Z" fill="#363634"/>
<path d="M95.714 309.852C95.5469 309.852 95.3799 309.79 95.2476 309.671C89.276 304.215 86.2136 297.651 86.0813 297.38C85.9212 297.032 86.0744 296.614 86.4224 296.454C86.7704 296.294 87.188 296.447 87.348 296.795C87.3759 296.858 90.4313 303.386 96.1872 308.648C96.4726 308.906 96.4935 309.344 96.229 309.63C96.0898 309.783 95.9019 309.859 95.714 309.859V309.852Z" fill="#363634"/>
<path d="M89.9579 311.383C89.7978 311.383 89.6378 311.328 89.5055 311.216C84.2229 306.651 81.5085 301.159 81.3971 300.929C81.2301 300.581 81.3693 300.171 81.7173 299.997C82.0653 299.83 82.4829 299.969 82.6499 300.317C82.6778 300.373 85.3574 305.788 90.4173 310.158C90.7096 310.409 90.7374 310.847 90.4869 311.14C90.3477 311.3 90.1528 311.383 89.9579 311.383Z" fill="#363634"/>
<path d="M115.599 275.365L106.147 298.96C105.862 299.698 105.249 300.227 104.539 300.442C102.723 298.229 100.224 295.612 99.2566 293.789C97.621 290.719 97.106 289.39 98.846 287.65C100.586 285.91 105.702 284.17 104.17 282.736C102.632 281.302 96.8067 281.922 93.0135 281.616C89.2273 281.302 84.7241 279.876 84.7241 279.876C84.7241 279.876 84.7102 279.855 84.6824 279.813C84.7729 279.653 84.8494 279.486 84.9051 279.305L89.1507 265.879C89.5892 264.508 91.0856 263.77 92.4358 264.25L114.095 272.018C115.453 272.505 116.135 274.022 115.592 275.359L115.599 275.365Z" fill="#363634"/>
<path d="M102.221 273.751C102.089 273.751 101.957 273.716 101.839 273.639C101.519 273.431 101.428 272.999 101.637 272.679L110.998 258.39C112.035 256.803 113.789 255.857 115.682 255.857H138.274C138.657 255.857 138.97 256.17 138.97 256.553C138.97 256.935 138.657 257.249 138.274 257.249H115.682C114.262 257.249 112.947 257.958 112.167 259.149L102.806 273.438C102.674 273.639 102.451 273.751 102.221 273.751Z" fill="#363634"/>
<path d="M211.807 257.242C211.487 257.242 211.201 257.026 211.132 256.699C211.048 256.323 211.278 255.947 211.654 255.864C259.413 244.922 287.511 217.778 302.67 196.926C319.116 174.32 324.322 154.032 324.371 153.83C324.461 153.454 324.844 153.231 325.213 153.322C325.589 153.412 325.812 153.795 325.721 154.164C325.672 154.366 320.411 174.877 303.832 197.692C288.527 218.753 260.165 246.175 211.967 257.214C211.911 257.228 211.862 257.235 211.814 257.235L211.807 257.242Z" fill="#363634"/>
<path d="M184.997 283.356C182.255 283.356 179.443 283.237 176.547 282.973C176.165 282.938 175.879 282.597 175.914 282.214C175.949 281.831 176.297 281.546 176.673 281.581C211.187 284.741 235.304 267.208 235.54 267.034C235.854 266.805 236.285 266.867 236.515 267.181C236.744 267.487 236.682 267.925 236.369 268.155C236.146 268.322 215.482 283.356 184.99 283.356H184.997Z" fill="#363634"/>
<path d="M49.7641 134.871C48.6227 146.668 52.1653 151.575 53.8079 154.526L60.8514 163.4L60.9071 158.034C60.9071 158.034 56.0281 155.452 55.2069 150.733C54.3925 146.021 58.4154 145.262 60.1137 145.958C61.5474 146.536 63.3709 147.413 64.1644 148.004L64.1783 148.018L66.5586 143.132C66.5586 143.132 70.3797 144.169 77.6946 140.829C79.9149 139.812 81.6409 138.323 82.9703 136.757C83.5758 136.04 84.0978 135.288 84.5363 134.579C86.3389 131.69 86.9445 129.094 86.9445 129.094C86.9445 129.094 96.6536 132.706 94.0437 147.886C94.0437 147.886 99.7996 146.25 101.978 140.314C104.143 134.37 99.5629 130.256 99.5629 130.256C99.5629 130.256 100.962 126.053 96.2709 123.108C91.5798 120.178 88.7749 121.828 88.7749 121.828C88.7749 121.828 83.715 110.441 69.5932 114.248C59.362 116.998 56.2857 121.988 55.3669 124.535C52.4089 127.173 50.1817 130.556 49.7572 134.871H49.7641ZM96.1456 145.304C96.1456 145.304 99.9388 136.012 99.6534 131.307C99.6534 131.307 101.776 135.657 101.129 138.991C100.489 142.325 96.1456 145.304 96.1456 145.304Z" fill="#363634"/>
<path d="M59.6611 126.018C59.6403 126.101 44.0568 122.433 39.6859 137.718C35.3151 153.009 40.2636 158.744 40.2636 158.744C40.2636 158.744 37.3961 147.232 40.9248 138.427C44.4466 129.63 54.5316 129.087 54.5316 129.087C54.5316 129.087 32.9278 145.401 39.853 161.883C46.7782 178.364 59.9396 170.597 59.9396 170.597L60.7747 159.76C60.7747 159.76 50.6549 156.05 51.3927 143.035C52.1374 130.027 59.6611 126.011 59.6611 126.011V126.018Z" fill="#363634"/>
<path d="M81.613 166.929C81.3972 166.929 81.1814 166.824 81.0422 166.629C80.8822 166.407 80.8682 166.059 81.0074 165.822C81.1536 165.571 81.439 165.432 81.7174 165.467C82.2672 165.523 85.1904 165.676 88.914 162.76C92.9786 159.579 93.6538 146.967 93.6607 146.835C93.6816 146.452 94.0018 146.153 94.3915 146.174C94.7743 146.195 95.0736 146.522 95.0527 146.905C95.0249 147.448 94.3358 160.282 89.777 163.852C86.0882 166.741 82.9841 166.901 81.8844 166.866C81.8009 166.901 81.7034 166.922 81.613 166.922V166.929Z" fill="#363634"/>
<path d="M59.6681 172.002C59.6681 172.002 59.6264 172.002 59.6055 172.002C59.2227 171.968 58.9443 171.627 58.9791 171.244L60.1901 158.382C59.7029 158.048 58.7773 157.366 57.5941 156.28C55.4086 154.282 53.077 150.016 55.6035 146.459C56.216 145.596 57.0512 145.088 58.0743 144.942C60.9766 144.531 64.4427 147.287 64.5889 147.406C64.8881 147.642 64.9369 148.081 64.7002 148.38C64.4636 148.679 64.0251 148.728 63.7189 148.492C63.691 148.464 60.566 145.993 58.2622 146.32C57.6219 146.411 57.1208 146.717 56.731 147.267C54.4899 150.419 57.2669 154.101 58.5267 155.257C60.1484 156.739 61.2689 157.428 61.2829 157.435L61.6517 157.665L60.3641 171.376C60.3293 171.738 60.0231 172.009 59.6681 172.009V172.002Z" fill="#363634"/>
<path d="M61.9092 154.317C61.8675 154.317 61.8257 154.317 61.784 154.303C61.4081 154.234 61.1506 153.872 61.2202 153.496C61.9023 149.71 58.7494 148.053 58.6172 147.984C58.2761 147.81 58.1369 147.392 58.3109 147.051C58.4849 146.71 58.9025 146.571 59.2436 146.745C60.7052 147.475 63.2873 149.884 62.5913 153.746C62.5287 154.08 62.2364 154.317 61.9092 154.317Z" fill="#363634"/>
<path d="M59.1252 152.605C58.7772 152.605 58.471 152.34 58.4362 151.986C58.4223 151.86 58.3318 150.726 59.1392 149.96C59.7099 149.417 60.5451 149.229 61.603 149.396C61.9858 149.459 62.2433 149.814 62.1807 150.19C62.118 150.566 61.7631 150.83 61.3872 150.768C60.9696 150.705 60.4059 150.684 60.1066 150.962C59.7864 151.262 59.8212 151.839 59.8212 151.846C59.856 152.229 59.5776 152.563 59.1948 152.605C59.174 152.605 59.1461 152.605 59.1252 152.605Z" fill="#363634"/>
<path d="M81.8046 145.114C81.9304 143.883 81.3131 142.811 80.4259 142.72C79.5388 142.63 78.7176 143.555 78.5919 144.786C78.4662 146.017 79.0835 147.089 79.9706 147.18C80.8578 147.27 81.6789 146.345 81.8046 145.114Z" fill="#363634"/>
<path d="M91.3784 146.2C91.4911 145.087 90.9189 144.117 90.1005 144.035C89.2821 143.952 88.5273 144.787 88.4147 145.9C88.302 147.013 88.8741 147.982 89.6926 148.065C90.511 148.148 91.2657 147.313 91.3784 146.2Z" fill="#363634"/>
<path d="M86.1439 153.906C85.8655 153.906 85.601 153.732 85.4897 153.454C85.3505 153.092 85.5384 152.695 85.8934 152.556C86.2483 152.417 87.3132 151.86 87.4524 151.15C87.3828 151.046 86.8956 150.872 86.6033 150.761C85.8238 150.475 84.8494 150.113 84.4178 149.188C83.5826 147.399 85.5523 145.408 85.775 145.186C86.0465 144.914 86.4919 144.921 86.7564 145.199C87.0278 145.471 87.0209 145.916 86.7494 146.181C86.2553 146.661 85.3505 147.893 85.6776 148.596C85.8655 149.007 86.485 149.229 87.0835 149.452C87.87 149.744 89.0671 150.183 88.8166 151.422C88.5034 153.016 86.5963 153.774 86.3806 153.858C86.297 153.886 86.2135 153.899 86.137 153.899L86.1439 153.906Z" fill="#363634"/>
<path d="M78.4044 140.801C78.4044 140.801 79.6781 139.792 81.2162 140.39C82.7544 140.989 82.817 141.803 81.9192 141.643C81.0213 141.483 80.4785 141.086 79.4205 141.337C78.3626 141.587 77.604 141.9 77.5622 141.608C77.5205 141.316 78.4044 140.808 78.4044 140.808V140.801Z" fill="#363634"/>
<path d="M88.9697 142.193C88.9697 142.193 90.0346 141.434 91.1412 141.984C92.2478 142.534 92.22 143.188 91.5588 143.014C90.8976 142.847 90.5148 142.506 89.6935 142.659C88.8653 142.812 88.2598 143.035 88.2598 142.791C88.2598 142.548 88.9766 142.186 88.9766 142.186L88.9697 142.193Z" fill="#363634"/>
<path d="M85.4549 158.904C79.6711 158.904 76.3095 154.644 76.1703 154.463C75.9336 154.157 75.9893 153.725 76.2955 153.489C76.6018 153.252 77.0402 153.308 77.2699 153.614C77.2978 153.656 80.3741 157.512 85.4549 157.512C85.4758 157.512 85.4967 157.512 85.5175 157.512C85.9003 157.512 86.2135 157.818 86.2135 158.201C86.2135 158.584 85.9073 158.897 85.5245 158.904H85.4549Z" fill="#363634"/>
<path d="M81.2579 165.738C81.2579 165.738 78.119 165.557 74.1309 163.309C71.6671 161.924 69.8435 160.087 68.8065 158.89C68.5281 158.57 68.027 158.834 68.1175 159.252C68.5768 161.43 69.6556 165.39 71.8063 168.376C74.9313 172.712 82.7961 173.937 82.7961 173.937L81.599 167.792L81.251 165.738H81.2579Z" fill="#363634"/>
</svg>
