<svg width="66" height="66" viewBox="0 0 66 66" fill="none" xmlns="http://www.w3.org/2000/svg">
<path d="M32.9861 56.7739C46.1084 56.7739 56.7461 46.1362 56.7461 33.0139C56.7461 19.8916 46.1084 9.25391 32.9861 9.25391C19.8638 9.25391 9.22614 19.8916 9.22614 33.0139C9.22614 46.1362 19.8638 56.7739 32.9861 56.7739Z" fill="#C6DFF1"/>
<path d="M40.6989 29.9271C40.6342 29.8433 40.26 29.4281 40.26 29.4281V27.0211C40.26 22.9575 36.995 19.8 33.0191 19.8C33.0125 19.8 33.0066 19.8007 33 19.8007C32.9934 19.8007 32.9875 19.8 32.9809 19.8C29.005 19.8 25.74 22.9575 25.74 27.0211V29.4281C25.74 29.4281 25.3658 29.8433 25.3011 29.9271C25.1935 30.069 25.0912 30.2841 25.0807 30.5805C25.0741 30.7593 25.5044 33.0192 25.6291 33.4073C25.7664 33.8429 26.041 34.1999 26.4 34.32V34.6435C26.4 35.446 26.7755 36.2235 27.0554 36.6492C27.8949 37.9276 29.1667 38.8635 30.36 39.4628C30.36 39.509 30.36 39.5539 30.36 39.6C30.36 40.9405 29.04 41.4151 29.04 41.4151C29.04 41.4151 29.7 44.22 33 44.22C36.3 44.22 36.96 41.4151 36.96 41.4151C36.96 41.4151 35.64 40.92 35.64 39.6C35.64 39.5539 35.64 39.509 35.64 39.4628C36.8333 38.8635 38.1058 37.9276 38.9446 36.6492C39.2245 36.2235 39.6 35.446 39.6 34.6435V34.32C39.959 34.1999 40.2336 33.8429 40.3709 33.4066C40.4956 33.0185 40.9259 30.7587 40.9193 30.5798C40.9081 30.2841 40.8065 30.069 40.6989 29.9271Z" fill="#EAD6C7"/>
<path d="M22.44 46.5287V46.5208C25.3526 48.7984 29.0162 50.16 33 50.16C36.9838 50.16 40.6474 48.7984 43.56 46.5208V46.53C43.56 46.53 43.5963 46.5445 43.661 46.5696C43.6154 46.3247 43.5712 46.0997 43.5402 45.9624C43.197 44.4444 42.1146 43.197 40.6494 42.6228L36.96 41.415L36.3858 41.25V41.2566C36.3792 41.2698 35.7324 42.24 33 42.24C30.2742 42.24 29.6208 41.2698 29.6208 41.2632L29.6076 41.25L29.04 41.415L25.3506 42.6228C23.8854 43.197 22.803 44.4444 22.4598 45.9624C22.4288 46.099 22.3852 46.3214 22.339 46.5643C22.4004 46.5432 22.44 46.5287 22.44 46.5287Z" fill="#00AC9C"/>
<path d="M33.4125 18.15C29.5046 18.15 28.2671 20.231 28.05 20.79C26.07 21.45 24.75 23.5336 24.75 25.7704C24.75 29.3482 26.73 30.69 26.73 30.69C26.73 26.6647 28.71 24.7718 28.71 23.43C29.4928 24.7071 31.0431 25.41 33.33 25.41C35.5555 25.41 36.9191 24.7051 37.95 24.09C39.435 25.9875 39.27 30.69 39.27 30.69C39.27 30.69 41.25 29.3482 41.25 26.6647C41.25 24.42 39.93 23.43 39.93 23.43C40.5814 22.9825 41.25 22.009 41.25 21.45C39.2957 21.45 37.7546 18.15 33.4125 18.15Z" fill="#B77748"/>
<path d="M32.9809 40.2599C31.7044 40.2599 28.6334 39.0535 27.0554 36.6491L27.6071 36.2867C29.0143 38.4304 31.8952 39.5999 32.9809 39.5999C34.1108 39.5999 36.9659 38.4621 38.3935 36.2867L38.9453 36.6491C37.3672 39.0535 34.2712 40.2599 32.9809 40.2599Z" fill="#1F212B"/>
<path d="M34.65 42.7588C34.4942 42.7588 34.3563 42.6485 34.3259 42.4901C34.2923 42.3113 34.4098 42.1383 34.5886 42.1047C35.999 41.8387 36.3812 41.2632 36.3845 41.2573C36.4795 41.1081 36.6769 41.0566 36.83 41.145C36.9824 41.2328 37.0418 41.4216 36.9607 41.5787C36.956 41.5872 36.5099 42.4136 34.7107 42.7535C34.6909 42.7568 34.6698 42.7588 34.65 42.7588Z" fill="#1F212B"/>
<path d="M33 42.9C29.8927 42.9 29.1265 41.7312 29.0493 41.5972C28.9575 41.4395 29.0116 41.2375 29.1694 41.1464C29.3245 41.0553 29.5251 41.1075 29.6175 41.2619C29.6367 41.2903 30.2986 42.24 33 42.24C33.0904 42.24 33.1749 42.2374 33.2594 42.2341L33.33 42.5621L33.3406 42.8921C33.1901 42.8967 33.0984 42.9 33 42.9Z" fill="#1F212B"/>
<path d="M26.73 31.0199C26.6653 31.0199 26.6007 31.0008 26.5452 30.9632C26.4581 30.9044 24.42 29.4802 24.42 25.7703C24.42 23.4002 25.8054 21.2671 27.8058 20.5259C28.1041 19.9069 29.4076 17.8199 33.4125 17.8199C36.1205 17.8199 37.7639 19.0376 39.0846 20.0164C39.9168 20.6329 40.5742 21.1199 41.25 21.1199C41.4322 21.1199 41.58 21.2678 41.58 21.4499C41.58 22.0558 41.0223 22.9151 40.4316 23.4511C40.858 23.9131 41.58 24.9493 41.58 26.6646C41.58 29.4907 39.5419 30.9044 39.4548 30.9632C39.3519 31.0318 39.2185 31.0391 39.1103 30.9784C39.0014 30.9183 38.9354 30.8021 38.94 30.6781C38.9413 30.6345 39.0714 26.4428 37.8543 24.5275C36.7204 25.1756 35.3661 25.7399 33.33 25.7399C31.3487 25.7399 29.8333 25.2146 28.8928 24.2114C28.7773 24.5546 28.6038 24.9242 28.4071 25.3426C27.8388 26.5531 27.06 28.2116 27.06 30.6899C27.06 30.812 26.9927 30.9242 26.8845 30.9817C26.8363 31.0067 26.7828 31.0199 26.73 31.0199ZM37.95 23.7599C38.0484 23.7599 38.1454 23.8042 38.2101 23.8867C39.4007 25.4073 39.5855 28.5258 39.6046 29.958C40.1478 29.3911 40.92 28.2974 40.92 26.6646C40.92 24.6278 39.7789 23.7302 39.7307 23.6933C39.6469 23.6293 39.598 23.5283 39.6007 23.422C39.6033 23.3164 39.6561 23.2181 39.7432 23.158C40.2396 22.8168 40.6923 22.1858 40.856 21.743C40.1227 21.6064 39.4515 21.1087 38.6919 20.5464C37.4491 19.6257 35.902 18.4799 33.4125 18.4799C29.3482 18.4799 28.3959 20.8104 28.3576 20.9094C28.3219 21.0011 28.2474 21.0718 28.1543 21.1028C26.3446 21.7067 25.08 23.6253 25.08 25.7703C25.08 28.0176 25.8773 29.3211 26.4225 29.9494C26.5564 27.7318 27.2732 26.2059 27.8098 25.0621C28.1286 24.3836 28.38 23.8477 28.38 23.4299C28.38 23.2821 28.4784 23.1527 28.6203 23.1125C28.7622 23.0722 28.914 23.1316 28.9912 23.2577C29.7225 24.4496 31.2226 25.0799 33.33 25.0799C35.4678 25.0799 36.7488 24.4226 37.7811 23.8068C37.8339 23.7751 37.8919 23.7599 37.95 23.7599Z" fill="#1F212B"/>
<path d="M33 50.82C29.0202 50.82 25.2575 49.535 22.1126 47.1023C21.9133 46.9881 21.78 46.7729 21.78 46.5287C21.78 46.4951 21.7826 46.4607 21.7879 46.4284C21.7972 46.365 21.8526 45.9743 21.879 45.837C22.207 44.1019 23.4155 42.671 25.111 42.009L28.8347 40.7874C28.8466 40.7821 29.533 40.5135 29.6749 39.8469C28.6598 39.2846 27.4006 38.3757 26.5043 37.0109C26.3287 36.7442 25.7631 35.8004 25.7413 34.7081C25.4093 34.46 25.1493 34.0778 25.0001 33.6059C24.8833 33.2436 24.4094 30.8834 24.4213 30.5567C24.4391 30.0696 24.6239 29.7284 24.7757 29.5284C24.8483 29.4341 25.2503 28.9866 25.2503 28.9866L26.2304 29.8703C26.2297 29.8716 25.8938 30.2426 25.8232 30.3323C25.7902 30.3752 25.7459 30.4623 25.7407 30.6049C25.7611 30.8293 26.1551 32.8872 26.2581 33.2066C26.3485 33.4944 26.4997 33.6587 26.6099 33.695C26.8785 33.7841 27.06 34.0362 27.06 34.32V34.6434C27.06 35.2414 27.3425 35.8842 27.6071 36.2862C28.2737 37.3019 29.3568 38.22 30.6563 38.8727C30.8794 38.9849 31.02 39.2133 31.02 39.4628V39.6C31.02 41.3847 29.335 42.0104 29.2631 42.0361L25.5559 43.2512C24.321 43.7336 23.4181 44.7969 23.1752 46.0826C23.1686 46.1182 23.1601 46.1723 23.1502 46.233C26.0152 48.3721 29.4116 49.5 33 49.5C36.5884 49.5 39.9848 48.3721 42.8492 46.233C42.8399 46.1717 42.8307 46.1169 42.8241 46.0812C42.5812 44.7956 41.679 43.733 40.4098 43.2386L36.7541 42.042C36.6571 42.0064 34.98 41.3576 34.98 39.6V39.4628C34.98 39.2133 35.1206 38.9849 35.3437 38.8727C36.6439 38.2193 37.7269 37.3013 38.3929 36.2868C38.6575 35.8842 38.94 35.2414 38.94 34.6434V34.32C38.94 34.0362 39.1215 33.7841 39.3908 33.6944C39.501 33.6574 39.6521 33.4931 39.7419 33.2086C39.8455 32.8859 40.2395 30.828 40.2607 30.558C40.2547 30.4617 40.2098 30.3739 40.1735 30.3251C40.1115 30.2445 39.8145 29.8466 39.8145 29.8466L40.8725 29.0572C40.8725 29.0572 41.1589 29.4407 41.2223 29.5225C41.378 29.7278 41.5628 30.069 41.58 30.5561C41.5919 30.8828 41.118 33.2429 41.0005 33.6086C40.8527 34.0785 40.5926 34.4606 40.2607 34.7088C40.2389 35.8011 39.6726 36.7449 39.497 37.0122C38.6027 38.3751 37.3428 39.2846 36.3271 39.8469C36.4729 40.5194 37.1844 40.794 37.193 40.7966L40.856 41.9958C42.5865 42.6684 43.795 44.0999 44.1223 45.8357C44.1448 45.9545 44.1896 46.2634 44.2068 46.3855C44.2154 46.4304 44.22 46.4753 44.22 46.5208C44.22 46.7531 44.0999 46.9604 43.9171 47.0798C40.7662 49.5271 36.9923 50.82 33 50.82Z" fill="#1F212B"/>
<path d="M51.0517 24.42C50.9302 24.42 50.8134 24.3527 50.7553 24.2365C50.6807 24.0861 50.5996 23.9395 50.519 23.793L50.4062 23.5871C50.3197 23.4267 50.3791 23.2267 50.5395 23.1396C50.7005 23.0538 50.8999 23.1126 50.987 23.2729L51.0972 23.4736C51.183 23.6287 51.2688 23.7838 51.348 23.9435C51.4292 24.1072 51.3619 24.3045 51.1982 24.3857C51.1507 24.4088 51.1005 24.42 51.0517 24.42Z" fill="#1F212B"/>
<path d="M49.9158 22.44C49.8076 22.44 49.7013 22.3865 49.638 22.2888C49.0235 21.3365 48.3404 20.4461 47.6065 19.6442C47.4837 19.5096 47.493 19.301 47.6276 19.1776C47.7616 19.0555 47.9708 19.0641 48.0942 19.1987C48.8526 20.0283 49.5594 20.9477 50.1937 21.9311C50.292 22.0842 50.2485 22.2888 50.0953 22.3872C50.0386 22.4228 49.9772 22.44 49.9158 22.44Z" fill="#1F212B"/>
<path d="M15.3041 42.8999C15.1866 42.8999 15.0731 42.8372 15.0137 42.727L14.9035 42.5264C14.8177 42.3713 14.7319 42.2162 14.6527 42.0565C14.5715 41.8928 14.6388 41.6954 14.8025 41.6143C14.9655 41.5331 15.1635 41.6004 15.2447 41.7641C15.3193 41.9146 15.4004 42.0611 15.481 42.2076L15.5938 42.4135C15.6803 42.5739 15.6209 42.7739 15.4605 42.861C15.411 42.8867 15.3569 42.8999 15.3041 42.8999Z" fill="#1F212B"/>
<path d="M18.15 46.9089C18.0609 46.9089 17.9711 46.8726 17.9065 46.8013C17.1481 45.9717 16.4413 45.0523 15.807 44.0689C15.7087 43.9158 15.7522 43.7112 15.9053 43.6128C16.0585 43.5145 16.2631 43.5581 16.3614 43.7112C16.9759 44.6636 17.659 45.5539 18.3929 46.3558C18.5156 46.4904 18.5064 46.699 18.3718 46.8224C18.3097 46.8798 18.2299 46.9089 18.15 46.9089Z" fill="#1F212B"/>
<path d="M13.2026 29.7C13.1828 29.7 13.163 29.6987 13.1432 29.6948C12.9644 29.6624 12.8449 29.4902 12.8779 29.3106C14.6487 19.5935 23.1112 12.54 33 12.54C37.754 12.54 42.3859 14.2079 46.0416 17.2359C46.1822 17.3521 46.2013 17.5607 46.0852 17.7006C45.969 17.8412 45.7611 17.861 45.6205 17.7441C42.0829 14.8137 37.6009 13.2 33 13.2C23.43 13.2 15.2407 20.0251 13.5274 29.4294C13.4983 29.5885 13.3591 29.7 13.2026 29.7Z" fill="#1F212B"/>
<path d="M33 53.46C28.246 53.46 23.6141 51.7922 19.9584 48.7641C19.8178 48.6479 19.7987 48.4394 19.9148 48.2995C20.0317 48.1595 20.2396 48.1391 20.3795 48.2559C23.9171 51.1863 28.3991 52.8 33 52.8C42.57 52.8 50.7593 45.9749 52.4726 36.5706C52.505 36.3917 52.6792 36.2723 52.8568 36.3053C53.0356 36.3376 53.1551 36.5099 53.1221 36.6894C51.3513 46.4066 42.8888 53.46 33 53.46Z" fill="#1F212B"/>
<path d="M33 56.76C24.0649 56.76 15.9687 51.8179 11.8701 43.8622C11.7031 43.5382 11.8305 43.1402 12.1546 42.9732C12.4799 42.8062 12.8766 42.9343 13.0436 43.2577C16.9145 50.7718 24.5612 55.44 33 55.44C45.3737 55.44 55.44 45.3736 55.44 33C55.44 32.6607 55.4321 32.3195 55.4156 31.977L54.7417 33.8804C54.6196 34.2243 54.2434 34.4044 53.8996 34.2823C53.5557 34.1602 53.3762 33.7834 53.4976 33.4402L55.1324 28.8202C55.2328 28.537 55.5106 28.3588 55.8103 28.3826C56.1092 28.4083 56.3534 28.6321 56.4049 28.9278C56.6405 30.2887 56.76 31.6588 56.76 33C56.76 46.1016 46.1017 56.76 33 56.76Z" fill="#1F212B"/>
<path d="M10.2452 37.62C10.2267 37.62 10.2082 37.6193 10.1891 37.618C9.89011 37.5923 9.64591 37.3685 9.59443 37.0728C9.35947 35.7113 9.24001 34.3411 9.24001 33C9.24001 19.8983 19.8983 9.23999 33 9.23999C41.9351 9.23999 50.0313 14.1821 54.1299 22.1377C54.2969 22.4618 54.1695 22.8597 53.8454 23.0267C53.5207 23.1937 53.1234 23.0663 52.9564 22.7423C49.0855 15.2282 41.4388 10.56 33 10.56C20.6263 10.56 10.56 20.6263 10.56 33C10.56 33.3392 10.5679 33.6804 10.5844 34.023L11.2583 32.1195C11.3804 31.7757 11.7579 31.5968 12.1004 31.7176C12.4443 31.8397 12.6238 32.2166 12.5024 32.5598L10.8676 37.1798C10.7732 37.4451 10.523 37.62 10.2452 37.62Z" fill="#1F212B"/>
</svg>
