<svg width="38" height="38" viewBox="0 0 38 38" fill="none" xmlns="http://www.w3.org/2000/svg">
<path d="M19 32.3C26.3454 32.3 32.3 26.3453 32.3 19C32.3 11.6546 26.3454 5.69995 19 5.69995C11.6546 5.69995 5.70001 11.6546 5.70001 19C5.70001 26.3453 11.6546 32.3 19 32.3Z" fill="#9DC4E8"/>
<path d="M30.78 19C30.78 23.2446 28.5342 26.9648 25.1636 29.0396C23.37 30.1416 21.261 30.78 19 30.78C16.739 30.78 14.63 30.1416 12.8364 29.0396C9.46577 26.9648 7.21997 23.2446 7.21997 19C7.21997 12.4944 12.4944 7.21997 19 7.21997C25.5056 7.21997 30.78 12.4944 30.78 19Z" fill="#C6DFF1"/>
<path d="M12.9359 28.8776C14.7007 29.9618 16.7755 30.5899 19 30.5899C21.2245 30.5899 23.2993 29.9618 25.064 28.8776C25.1225 28.8415 25.1784 28.8013 25.2362 28.764L25.27 28.6899C25.27 28.6899 25.1282 27.8691 25.0701 27.6035L25.0678 27.6012C24.8714 26.7303 24.2489 26.0098 23.4042 25.6807L21.28 24.9849C21.28 24.9849 20.52 24.6999 20.52 23.9399C20.52 23.9133 20.52 23.8875 20.52 23.8609C21.207 23.5158 21.9397 22.977 22.4226 22.2409C22.5838 21.9958 22.8 21.5482 22.8 21.0861V20.8999C23.0067 20.8308 23.1648 20.6252 23.2438 20.374C23.3156 20.1506 23.5634 18.8494 23.5596 18.7465C23.5535 18.5762 23.495 18.4523 23.4327 18.3703C23.4133 18.3452 23.2921 18.1848 23.18 18.037C23.18 17.4788 23.18 16.6739 23.18 16.3399C23.18 14.0314 21.3085 12.1599 19 12.1599C16.6915 12.1599 14.82 14.0314 14.82 16.3399V18.0818C14.6957 18.2228 14.5768 18.3585 14.5673 18.3706C14.5053 18.4523 14.4464 18.5762 14.4404 18.7468C14.4366 18.8498 14.6843 20.1509 14.7561 20.3744C14.8352 20.6252 14.9933 20.8308 15.2 20.8999V21.0861C15.2 21.5482 15.4162 21.9958 15.5773 22.2409C16.0607 22.977 16.7929 23.5158 17.48 23.8609C17.48 23.8875 17.48 23.9133 17.48 23.9399C17.48 24.7117 16.72 24.9849 16.72 24.9849L14.5958 25.6811C13.751 26.0105 13.1286 26.7306 12.9321 27.6016L12.9299 27.6039C12.8717 27.8691 12.73 28.6899 12.73 28.6899L12.7608 28.7621C12.8197 28.7997 12.8763 28.8408 12.9359 28.8776Z" fill="#78A1D1"/>
<path d="M19 32.6801C11.4566 32.6801 5.32001 26.5434 5.32001 19.0001C5.32001 11.4567 11.4566 5.32007 19 5.32007C26.5434 5.32007 32.68 11.4567 32.68 19.0001C32.68 26.5434 26.5434 32.6801 19 32.6801ZM19 6.08007C11.8758 6.08007 6.08001 11.8758 6.08001 19.0001C6.08001 26.1243 11.8758 31.9201 19 31.9201C26.1242 31.9201 31.92 26.1243 31.92 19.0001C31.92 11.8758 26.1242 6.08007 19 6.08007Z" fill="#1F212B"/>
<path d="M24.89 9.20635C24.857 9.20635 24.8235 9.19799 24.7931 9.17975C24.5507 9.03649 24.2995 8.90045 24.0457 8.77505C23.9518 8.72831 23.9131 8.61469 23.9594 8.52045C24.0062 8.42583 24.1209 8.38859 24.214 8.43419C24.4758 8.56377 24.7361 8.70437 24.9866 8.85295C25.0766 8.90653 25.1066 9.02281 25.0534 9.11325C25.0181 9.17291 24.955 9.20635 24.89 9.20635Z" fill="#1F212B"/>
<path d="M26.03 9.97516C25.9897 9.97516 25.9491 9.96224 25.9145 9.93602C25.7921 9.84216 25.6675 9.75134 25.5409 9.66242C25.4551 9.602 25.4342 9.48382 25.4946 9.39794C25.5546 9.3113 25.6732 9.29154 25.7591 9.3512C25.8902 9.44278 26.0186 9.5374 26.1455 9.6343C26.2291 9.69776 26.2447 9.81708 26.1812 9.90068C26.1436 9.94932 26.087 9.97516 26.03 9.97516Z" fill="#1F212B"/>
<path d="M19 30.78C12.5043 30.78 7.22003 25.4953 7.22003 19C7.22003 12.5046 12.5043 7.21997 19 7.21997C20.3939 7.21997 21.7585 7.46127 23.0554 7.93665C23.1542 7.97275 23.2047 8.08181 23.1686 8.18061C23.1325 8.27941 23.0231 8.32995 22.9247 8.29347C21.6695 7.83329 20.3494 7.59997 19 7.59997C12.7141 7.59997 7.60003 12.714 7.60003 19C7.60003 25.2859 12.7141 30.4 19 30.4C25.286 30.4 30.4 25.2859 30.4 19C30.4 15.7932 29.0377 12.7167 26.6624 10.559C26.5845 10.4884 26.5788 10.3683 26.6494 10.2904C26.7205 10.2129 26.8406 10.2072 26.9177 10.2775C29.3725 12.5073 30.78 15.6864 30.78 19C30.78 25.4953 25.4958 30.78 19 30.78Z" fill="#1F212B"/>
<path d="M24.8957 28.7546C24.8957 28.7539 24.7661 28.003 24.7053 27.7149C24.7023 27.7055 24.6993 27.6948 24.6974 27.6849C24.5286 26.9352 23.9932 26.3184 23.2663 26.035L21.1615 25.346C21.1056 25.3255 20.14 24.9516 20.14 23.94V23.861C20.14 23.7174 20.221 23.5859 20.3494 23.5213C21.0988 23.1451 21.722 22.6161 22.105 22.0324C22.257 21.8006 22.42 21.4301 22.42 21.0862V20.9C22.42 20.7362 22.5245 20.5911 22.6799 20.5398C22.743 20.5185 22.83 20.4239 22.8813 20.2605C22.941 20.0751 23.1679 18.8906 23.18 18.734C23.177 18.6785 23.1515 18.628 23.1302 18.6003C23.1128 18.5779 22.9904 18.416 22.8772 18.2662C22.827 18.2005 22.8 18.1199 22.8 18.0371V16.34C22.8 14.2447 21.0953 12.54 19 12.54C16.9047 12.54 15.2 14.2447 15.2 16.34V18.0819C15.2 18.1743 15.1662 18.264 15.105 18.3331C14.9903 18.4635 14.8804 18.5885 14.8611 18.6117C14.8489 18.628 14.8231 18.6785 14.82 18.761C14.8322 18.8906 15.059 20.0751 15.1179 20.2578C15.1704 20.4239 15.257 20.5185 15.3201 20.5394C15.4755 20.5915 15.58 20.7362 15.58 20.9V21.0862C15.58 21.4301 15.743 21.8006 15.895 22.0324C16.2785 22.6165 16.9017 23.1451 17.6506 23.5213C17.7791 23.5859 17.86 23.7174 17.86 23.861V23.94C17.86 24.9672 16.8899 25.3278 16.8485 25.3426L14.7144 26.0422C14.0072 26.3188 13.4718 26.936 13.3031 27.6849C13.3008 27.6952 13.2977 27.7058 13.2947 27.7161C13.2343 28.0049 13.1047 28.7542 13.1047 28.7542L12.3557 28.6251C12.3557 28.6251 12.4997 27.7913 12.559 27.5219C12.5621 27.509 12.5655 27.4964 12.5693 27.4835C12.8022 26.5027 13.506 25.6983 14.4579 25.3267L16.6018 24.6233C16.6091 24.6202 17.0039 24.4656 17.0852 24.0814C16.5008 23.7576 15.7753 23.2344 15.2597 22.4489C15.1582 22.295 14.8329 21.7509 14.8204 21.1231C14.6293 20.9802 14.4795 20.7602 14.3937 20.4881C14.3291 20.2875 14.0539 18.9138 14.0608 18.7325C14.071 18.4513 14.1774 18.2552 14.2645 18.1401C14.2751 18.1264 14.3488 18.0421 14.44 17.9379V16.34C14.44 13.8256 16.4856 11.78 19 11.78C21.5145 11.78 23.56 13.8256 23.56 16.34V17.9094C23.644 18.0204 23.7181 18.1184 23.7329 18.1374C23.823 18.256 23.9298 18.4524 23.9393 18.7333C23.9461 18.9145 23.671 20.2879 23.6056 20.4908C23.5201 20.7613 23.3708 20.981 23.1796 21.1238C23.1671 21.7516 22.8414 22.2958 22.7404 22.4497C22.2255 23.2344 21.4997 23.758 20.9148 24.0822C20.9992 24.4694 21.4088 24.6278 21.4138 24.629L23.5228 25.3194C24.4944 25.6975 25.1982 26.5028 25.4308 27.4843C25.4349 27.4965 25.4387 27.509 25.441 27.5219C25.5003 27.7917 25.6443 28.6251 25.6443 28.6251L24.8957 28.7546Z" fill="#1F212B"/>
</svg>
