<svg width="38" height="38" viewBox="0 0 38 38" fill="none" xmlns="http://www.w3.org/2000/svg">
<path d="M25.84 27.7399C24.1965 27.1236 23.1086 26.7295 22.4553 26.4973C22.3467 26.4586 22.2501 26.4248 22.165 26.3947C21.8606 26.2876 21.66 26.0011 21.66 25.6784V24.5255C23.348 23.4277 24.7 21.6592 24.7 20.8996C24.7 20.5196 24.7 19.3796 24.7 19.3796C25.46 19.3796 25.6048 18.6583 25.84 17.8596C26.0566 17.1243 26.22 16.3396 26.22 15.9596C26.22 15.2471 24.9823 15.0096 24.9823 15.0096H24.9364C24.9246 14.3446 24.8129 11.2449 23.8454 9.30956C23.8454 9.30956 21.4704 8.54956 19.0004 8.54956C16.5304 8.54956 14.1554 9.30956 14.1554 9.30956C13.1852 11.2502 13.0412 14.3575 13.0196 15.0149C12.733 15.0521 11.78 15.3052 11.78 15.9599C11.78 16.3399 11.9434 17.1246 12.16 17.8599C12.3952 18.6587 12.54 19.3799 13.3 19.3799C13.3 19.3799 13.3 20.5199 13.3 20.8999C13.3 21.6596 14.652 23.4281 16.34 24.5259V25.6788C16.34 26.0014 16.1394 26.2876 15.835 26.3947C15.7499 26.4248 15.6533 26.459 15.5447 26.4973C14.8914 26.7291 13.8035 27.1236 12.16 27.7399C9.12 28.8799 9.12 31.9199 9.12 31.9199H28.88C28.88 31.9199 28.88 28.8799 25.84 27.7399Z" fill="#EAD6C7"/>
<path d="M25.84 27.74C24.1965 27.1237 23.1086 26.7296 22.4553 26.4974C22.3607 26.4636 22.279 26.4351 22.2023 26.4077C21.7276 26.6217 20.683 26.98 19 26.98C17.3257 26.98 16.2769 26.6213 15.7993 26.4073C15.7221 26.4347 15.64 26.4636 15.5447 26.4974C14.8914 26.7296 13.8035 27.1237 12.16 27.74C9.12 28.88 9.12 31.92 9.12 31.92H28.88C28.88 31.92 28.88 28.88 25.84 27.74Z" fill="#78CDD4"/>
<path d="M19.19 5.89001C15.77 5.89001 14.44 7.69463 14.25 8.16963C12.7455 8.80879 11.59 10.4496 11.59 12.3496C11.59 15.3896 13.11 16.5296 13.11 16.5296C13.11 13.1096 15.01 11.2096 15.01 10.0696C15.6951 11.1549 17.5685 11.9696 19.57 11.9696C21.5175 11.9696 22.4675 11.7321 23.37 11.2096C24.51 12.7296 24.89 16.5296 24.89 16.5296C24.89 16.5296 26.03 15.3896 26.03 13.1096C26.03 11.3092 25.4968 11.0964 24.89 10.0696C25.46 9.68963 25.65 9.02463 25.65 8.54963C23.94 8.55001 22.99 5.89001 19.19 5.89001Z" fill="#B07454"/>
<path d="M13.11 16.72C13.0697 16.72 13.0295 16.707 12.996 16.682C12.9307 16.6329 11.4 15.4492 11.4 12.35C11.4 10.4769 12.4845 8.74907 14.1068 8.02517C14.4351 7.34687 15.9232 5.69995 19.19 5.69995C21.5282 5.69995 22.8095 6.67389 23.8393 7.45669C24.5032 7.96133 25.0276 8.35995 25.65 8.35995C25.7549 8.35995 25.84 8.44507 25.84 8.54995C25.84 9.04433 25.6534 9.69413 25.1423 10.1186C25.248 10.2862 25.3506 10.4321 25.4505 10.5738C25.8803 11.1849 26.22 11.6671 26.22 13.11C26.22 15.442 25.0732 16.6155 25.0245 16.6645C24.9729 16.7162 24.895 16.7333 24.8266 16.7089C24.7574 16.6846 24.7088 16.6219 24.7012 16.549C24.6974 16.5125 24.3356 13.0013 23.3138 11.4592C22.3585 11.9745 21.3496 12.16 19.57 12.16C17.7483 12.16 16.0052 11.5079 15.1267 10.5347C15.026 10.887 14.831 11.2844 14.6034 11.748C14.0532 12.8698 13.3 14.4058 13.3 16.53C13.3 16.6018 13.2594 16.6675 13.1951 16.6998C13.1682 16.7131 13.1389 16.72 13.11 16.72ZM19.19 6.07995C15.4584 6.07995 14.4351 8.21897 14.4263 8.24063C14.4073 8.28775 14.3709 8.32537 14.3241 8.34475C12.8026 8.99113 11.78 10.6004 11.78 12.35C11.78 14.4164 12.5085 15.5796 12.9307 16.08C13.026 14.101 13.7347 12.6559 14.2618 11.5805C14.5738 10.9455 14.82 10.4431 14.82 10.07C14.82 9.98521 14.8759 9.91111 14.9572 9.88755C15.0397 9.86589 15.1255 9.89667 15.1708 9.96887C15.8335 11.0181 17.6837 11.78 19.57 11.78C21.6076 11.78 22.4713 11.5105 23.275 11.0454C23.359 10.9972 23.465 11.0196 23.522 11.096C24.4519 12.3359 24.8824 14.9735 25.0238 16.047C25.3449 15.5636 25.84 14.5802 25.84 13.11C25.84 11.7879 25.5463 11.3703 25.1397 10.7927C25.0139 10.6137 24.871 10.4112 24.7266 10.1669C24.6753 10.0798 24.7008 9.96811 24.7848 9.91187C25.218 9.62307 25.4083 9.14009 25.4505 8.72931C24.7908 8.65787 24.2391 8.23797 23.609 7.75917C22.6252 7.01095 21.4001 6.07995 19.19 6.07995Z" fill="#1F212B"/>
<path d="M19.0001 20.9C18.2488 20.9 17.9121 20.4626 17.8981 20.444C17.835 20.36 17.8521 20.241 17.9361 20.178C18.0197 20.1156 18.1378 20.1324 18.2009 20.2148C18.2135 20.23 18.451 20.52 19.0001 20.52C19.5526 20.52 19.7897 20.227 19.7996 20.2141C19.8638 20.1324 19.9827 20.1164 20.0652 20.1799C20.1477 20.2433 20.1648 20.3608 20.1021 20.4436C20.088 20.4626 19.7513 20.9 19.0001 20.9Z" fill="#1F212B"/>
<path d="M19 25.46C18.1997 25.46 17.2797 25.137 16.34 24.526L16.5471 24.2075C17.4249 24.7783 18.273 25.08 19 25.08C19.7269 25.08 20.5751 24.7783 21.4529 24.2075L21.66 24.526C20.7202 25.137 19.8002 25.46 19 25.46Z" fill="#1F212B"/>
<path d="M28.88 32.2999H9.11999C8.91023 32.2999 8.73999 32.1301 8.73999 31.9199C8.73999 31.8869 8.77761 28.6025 12.0266 27.3839C13.7226 26.7478 14.8075 26.3556 15.4189 26.139L15.7058 26.0372C15.8308 25.9935 15.9227 25.8893 15.9494 25.7643C15.9566 25.7301 15.96 25.7039 15.96 25.68V24.7277C14.348 23.6207 12.92 21.8363 12.92 20.8999V19.7102C12.2432 19.5171 12.035 18.7966 11.8484 18.1499L11.7956 17.9679C11.6132 17.3492 11.4 16.4524 11.4 15.9599C11.4 15.5921 11.6496 15.2892 12.1421 15.0605L12.4629 15.7494C12.1946 15.8744 12.1596 15.9637 12.1596 15.9649C12.16 16.2833 12.3135 17.0369 12.5244 17.7524L12.5788 17.939C12.8159 18.7609 12.9394 18.9999 13.3 18.9999C13.5098 18.9999 13.68 19.1698 13.68 19.3799V20.8999C13.68 21.4665 14.9112 23.1412 16.5471 24.2063C16.655 24.2766 16.72 24.3963 16.72 24.5248V25.68C16.72 25.7579 16.7113 25.8346 16.693 25.9224C16.6117 26.3058 16.3305 26.6243 15.96 26.7538L15.6735 26.8557C15.0647 27.0715 13.9844 27.4622 12.2934 28.0964C10.1506 28.8997 9.65123 30.7423 9.53495 31.5403H28.4677C28.3575 30.7416 27.8688 28.9069 25.7062 28.0964C24.0152 27.4622 22.9353 27.0719 22.3265 26.8557L22.0366 26.7519C21.6695 26.6239 21.3959 26.3165 21.3081 25.9315C21.2891 25.8418 21.28 25.7586 21.28 25.68V24.5248C21.28 24.3963 21.345 24.2766 21.4529 24.2063C23.0888 23.1412 24.32 21.4665 24.32 20.8999V19.3799C24.32 19.1698 24.4902 18.9999 24.7 18.9999C25.0606 18.9999 25.1841 18.7609 25.4212 17.939L25.4756 17.7524C25.6868 17.0369 25.84 16.2833 25.84 15.9599C25.8389 15.9599 25.7959 15.8627 25.4969 15.7308L25.8031 15.0354C26.3317 15.2683 26.6 15.5792 26.6 15.9599C26.6 16.4524 26.3868 17.3492 26.2044 17.9675L26.1516 18.1495C25.965 18.7963 25.7568 19.5171 25.08 19.7098V20.8999C25.08 21.8363 23.6519 23.6207 22.04 24.7277V25.68C22.04 25.705 22.0438 25.7354 22.0506 25.7677C22.0787 25.8912 22.1692 25.9935 22.2908 26.0356L22.5819 26.1386C23.1929 26.3552 24.2774 26.7478 25.9737 27.3835C29.2224 28.6025 29.26 31.8869 29.26 31.9199C29.26 32.1301 29.0898 32.2999 28.88 32.2999Z" fill="#1F212B"/>
<path d="M19 22.8C17.2155 22.8 16.0648 21.9526 16.017 21.9165C15.9539 21.8694 15.9413 21.7805 15.9885 21.7174C16.0356 21.6547 16.1245 21.6414 16.188 21.6885C16.199 21.6965 17.3147 22.42 19 22.42C20.6853 22.42 21.8009 21.6969 21.812 21.6885C21.8754 21.6414 21.9643 21.6547 22.0115 21.7174C22.0586 21.7805 22.0457 21.8694 21.983 21.9165C21.9351 21.9526 20.7844 22.8 19 22.8Z" fill="#1F212B"/>
<path d="M16.34 15.2C16.0363 15.2 15.7768 15.4238 15.6548 15.7453C15.7236 15.6476 15.8315 15.58 15.96 15.58C16.1697 15.58 16.34 15.7502 16.34 15.96C16.34 16.1697 16.1697 16.34 15.96 16.34C15.7692 16.34 15.6183 16.1971 15.591 16.0143C15.5857 16.0588 15.58 16.1032 15.58 16.15C15.58 16.6747 15.9201 17.1 16.34 17.1C16.7599 17.1 17.1 16.6747 17.1 16.15C17.1 15.6252 16.7599 15.2 16.34 15.2Z" fill="#1F212B"/>
<path d="M21.66 15.2C21.3564 15.2 21.0969 15.4238 20.9749 15.7453C21.0437 15.6476 21.1516 15.58 21.28 15.58C21.4898 15.58 21.66 15.7502 21.66 15.96C21.66 16.1697 21.4898 16.34 21.28 16.34C21.0893 16.34 20.9384 16.1971 20.911 16.0143C20.9057 16.0588 20.9 16.1032 20.9 16.15C20.9 16.6747 21.2401 17.1 21.66 17.1C22.0799 17.1 22.42 16.6747 22.42 16.15C22.42 15.6252 22.0799 15.2 21.66 15.2Z" fill="#1F212B"/>
<path d="M22.9193 14.3453L23.18 13.8475C22.6947 13.7343 22.1768 13.6792 21.66 13.6799C21.0026 13.6811 20.3467 13.7738 19.76 13.9547L20.0887 14.4399C20.5706 14.2815 21.1147 14.2036 21.66 14.2024C22.0886 14.2013 22.5184 14.2465 22.9193 14.3453Z" fill="#1F212B"/>
<path d="M16.3399 14.2024C16.8852 14.2036 17.4294 14.2815 17.9112 14.4399L18.2399 13.9547C17.6532 13.7738 16.9973 13.6815 16.3399 13.6799C15.8231 13.6788 15.3052 13.7343 14.8199 13.8475L15.0806 14.3453C15.4815 14.2465 15.9113 14.2013 16.3399 14.2024Z" fill="#1F212B"/>
<path d="M28.88 32.3H9.11999C8.91023 32.3 8.73999 32.1302 8.73999 31.92C8.73999 31.887 8.77761 28.6026 12.0266 27.384C13.7017 26.7558 14.7949 26.3606 15.4173 26.1395L15.7084 26.0365C15.8589 25.9837 15.96 25.84 15.96 25.6789V24.526C15.96 24.3159 16.1302 24.146 16.34 24.146C16.5498 24.146 16.72 24.3159 16.72 24.526V25.6789C16.72 26.1619 16.4148 26.5936 15.9607 26.7532L15.6716 26.8558C15.0522 27.0758 13.9627 27.4695 12.293 28.0961C10.1502 28.8994 9.65085 30.742 9.53457 31.54H28.4673C28.3571 30.7413 27.8684 28.9066 25.7059 28.0961C24.0361 27.4699 22.9471 27.0758 22.3273 26.8558L22.0377 26.7532C21.5851 26.5936 21.28 26.1623 21.28 25.6789V24.526C21.28 24.3159 21.4502 24.146 21.66 24.146C21.8698 24.146 22.04 24.3159 22.04 24.526V25.6789C22.04 25.84 22.1411 25.9837 22.2912 26.0361L22.583 26.1391C23.2055 26.3603 24.2987 26.7555 25.9737 27.3836C29.2224 28.6026 29.26 31.887 29.26 31.92C29.26 32.1302 29.0898 32.3 28.88 32.3Z" fill="#1F212B"/>
<path d="M19 27.36C16.5011 27.36 15.333 26.6004 15.2848 26.5681C15.1977 26.5099 15.1742 26.3925 15.2319 26.3055C15.2893 26.2181 15.4071 26.1942 15.4949 26.2515C15.5059 26.2591 16.6288 26.98 19 26.98C19.1965 26.98 19.3812 26.9735 19.5605 26.9648C19.6646 26.9557 19.7547 27.0397 19.76 27.1449C19.7653 27.2494 19.6848 27.3391 19.5799 27.344C19.3945 27.3535 19.2029 27.36 19 27.36Z" fill="#1F212B"/>
<path d="M20.33 27.279C20.2358 27.279 20.1541 27.2087 20.1416 27.1126C20.1283 27.0088 20.202 26.9138 20.3061 26.9001C20.5584 26.8682 20.8016 26.8264 21.0498 26.7728C21.1527 26.7508 21.2534 26.8158 21.2759 26.9184C21.2983 27.021 21.2329 27.1221 21.1303 27.1441C20.8712 27.2003 20.6173 27.244 20.354 27.2775C20.346 27.2786 20.338 27.279 20.33 27.279Z" fill="#1F212B"/>
<path d="M29.0701 36.1C32.1131 36.1 34.5801 33.633 34.5801 30.59C34.5801 27.5469 32.1131 25.08 29.0701 25.08C26.027 25.08 23.5601 27.5469 23.5601 30.59C23.5601 33.633 26.027 36.1 29.0701 36.1Z" fill="#60BE92"/>
<path d="M32.11 30.78H26.0654C25.9605 30.78 25.8754 30.6949 25.8754 30.59C25.8754 30.4851 25.9605 30.4 26.0654 30.4H32.11C32.2149 30.4 32.3 30.4851 32.3 30.59C32.3 30.6949 32.2149 30.78 32.11 30.78Z" fill="#1F212B"/>
<path d="M29.07 33.82C28.9651 33.82 28.88 33.7349 28.88 33.63V27.55C28.88 27.4451 28.9651 27.36 29.07 27.36C29.1749 27.36 29.26 27.4451 29.26 27.55V33.63C29.26 33.7349 29.1749 33.82 29.07 33.82Z" fill="#1F212B"/>
<path d="M29.0701 36.48C25.8222 36.48 23.1801 33.8378 23.1801 30.59C23.1801 27.3421 25.8222 24.7 29.0701 24.7C32.3179 24.7 34.9601 27.3421 34.9601 30.59C34.9601 33.8378 32.3179 36.48 29.0701 36.48ZM29.0701 25.46C26.2413 25.46 23.9401 27.7612 23.9401 30.59C23.9401 33.4187 26.2413 35.72 29.0701 35.72C31.8988 35.72 34.2001 33.4187 34.2001 30.59C34.2001 27.7612 31.8988 25.46 29.0701 25.46Z" fill="#1F212B"/>
</svg>
