<svg width="53" height="53" viewBox="0 0 53 53" fill="none" xmlns="http://www.w3.org/2000/svg">
<path d="M22.7828 25.0811C22.7828 25.0811 18.2979 24.5039 18.3519 29.4115C18.3519 29.4115 13.9296 27.7397 13.2825 32.4316C13.2825 32.4316 7.78162 33.2945 8.21308 38.7953C8.64454 44.2962 14.6847 43.3794 15.9251 42.6783C15.9251 42.6783 18.0284 48.8803 26.4416 44.8894C26.4416 44.8894 27.0887 49.0421 34.8546 48.1252L38.1983 52.224H39.3848L38.0905 45.6984C38.0905 45.6984 41.2184 46.1299 41.4341 42.7862C41.4341 42.7862 44.8857 38.8492 39.6545 36.4763C39.6545 36.4763 41.3107 25.5662 30.3785 25.8521C30.3783 25.8521 27.8608 21.8292 22.7828 25.0811Z" fill="#FF3C63"/>
<path d="M39.3846 52.224H38.1981L34.8544 48.1252C27.0884 49.0421 26.4413 44.8894 26.4413 44.8894C18.0282 48.8803 15.9249 42.6783 15.9249 42.6783C14.6844 43.3794 8.64428 44.2963 8.21282 38.7953C8.1503 37.9929 8.21282 37.2885 8.36809 36.6726C9.41972 41.0485 14.7664 40.205 15.9248 39.5504C15.9248 39.5504 18.028 45.7523 26.4412 41.7615C26.4412 41.7615 27.0884 45.9141 34.8543 44.9973L38.198 49.096H38.7642L39.3846 52.224Z" fill="#EA2F5C"/>
<path d="M36.3441 9.88828C36.3441 4.85594 32.2646 0.776367 27.2323 0.776367C22.2247 0.776264 18.1634 4.80108 18.1206 9.80847C18.1009 12.1091 18.934 14.2147 20.3228 15.8285C22.206 18.0166 23.2516 20.8018 23.2516 23.6888V25.049H31.2128V23.6891C31.2128 20.7864 32.2887 18.0033 34.1713 15.7938C35.5263 14.2035 36.3441 12.1414 36.3441 9.88828Z" fill="#FFDA2D"/>
<path d="M22.4856 15.4288C24.369 17.6166 25.4147 20.4016 25.4147 23.2888V25.0491H23.2518V23.6886C23.2518 20.8014 22.206 18.0164 20.3227 15.8287C18.9344 14.2153 18.1015 12.1095 18.1206 9.80827C18.1616 4.9958 21.915 1.09055 26.6531 0.7948C22.9835 1.94828 20.3178 5.35635 20.2834 9.40849C20.2636 11.7087 21.0964 13.8145 22.4856 15.4288Z" fill="#FFE571"/>
<path d="M31.9789 15.4288C30.0955 17.6166 29.0498 20.4016 29.0498 23.2888V25.0491H31.2127V23.6886C31.2127 20.8014 32.2585 18.0164 34.1418 15.8287C35.5301 14.2153 36.363 12.1095 36.3439 9.80827C36.3029 4.9958 32.5494 1.09055 27.8114 0.7948C31.4809 1.94828 34.1467 5.35635 34.1811 9.40849C34.2009 11.7087 33.368 13.8145 31.9789 15.4288Z" fill="#FFE571"/>
<path d="M31.6817 25.0488H22.7827V30.9489H31.6817V25.0488Z" fill="#E0E0E3"/>
<path d="M35.2948 32.6442C35.4634 32.7174 35.0747 32.3246 34.9643 32.1769C31.1997 27.1408 27.173 31.284 27.173 31.284C22.233 27.6361 19.1697 33.6068 19.1697 33.6068C19.1697 33.6068 23.7808 30.1188 27.0166 34.2408C27.0166 34.2408 29.5693 30.16 35.2948 32.6442Z" fill="#FF557E"/>
<path d="M39.9109 24.1452L45.1911 23.2716L40.7847 18.865L39.9109 24.1452Z" fill="#00DDC0"/>
<path d="M16.5696 24.1452L11.2894 23.2716L15.6959 18.865L16.5696 24.1452Z" fill="#00DDC0"/>
<path d="M10.7176 34.2398C10.8623 34.2398 11.0089 34.1993 11.1395 34.1146C12.2533 33.3922 13.3934 33.2 13.4026 33.1985C13.741 33.1454 14.0046 32.877 14.0515 32.5375C14.2082 31.4015 14.6207 30.626 15.2776 30.2325C16.4316 29.5417 18.0633 30.1325 18.0773 30.1376C18.3174 30.2282 18.5865 30.1946 18.7968 30.0477C19.0069 29.9007 19.131 29.6594 19.1282 29.4029C19.1141 28.1258 19.4394 27.1799 20.095 26.5918C20.6875 26.0601 21.4593 25.8957 22.0063 25.8516V29.7718C19.7737 30.7754 18.5369 33.1393 18.479 33.2522C18.2834 33.6331 18.4336 34.0998 18.8142 34.296C18.9278 34.3546 19.0492 34.3824 19.1689 34.3824C19.4501 34.3824 19.7216 34.2293 19.8598 33.9625C19.8727 33.9376 21.1808 31.4557 23.2968 30.9642C24.3756 30.7137 25.5243 31.0314 26.7118 31.9084C27.0243 32.1391 27.4592 32.1034 27.7297 31.8249C27.7446 31.8098 29.2343 30.3024 31.1065 30.4705C32.3754 30.5852 33.5675 31.462 34.6499 33.0764C34.8887 33.4324 35.3708 33.5276 35.7271 33.289C36.0831 33.0501 36.1783 32.5679 35.9396 32.2118C34.9031 30.6659 33.7357 29.6572 32.4582 29.1958V26.7282C34.2163 26.9629 35.6377 27.5916 36.689 28.6035C36.8396 28.7484 37.0335 28.8206 37.2273 28.8206C37.431 28.8206 37.6344 28.7409 37.7867 28.5826C38.0841 28.2737 38.0747 27.7822 37.7658 27.4849C36.428 26.1972 34.6438 25.4189 32.4582 25.1643V25.0489C32.4582 24.7293 32.2651 24.455 31.9892 24.3359V23.689C31.9892 21.0212 32.974 18.3962 34.7623 16.2973C35.9031 14.9582 36.6666 13.3386 36.9704 11.6134C37.0447 11.191 36.7626 10.7885 36.3404 10.714C35.9173 10.6393 35.5154 10.9219 35.441 11.344C35.1852 12.7971 34.5418 14.1616 33.5802 15.2902C31.5529 17.6697 30.4363 20.6525 30.4363 23.689V24.2725H29.376V21.4817C29.376 21.0528 29.0285 20.7053 28.5996 20.7053C28.1708 20.7053 27.8233 21.0528 27.8233 21.4817V21.6118H26.6409V21.4817C26.6409 21.0528 26.2934 20.7053 25.8645 20.7053C25.4357 20.7053 25.0882 21.0528 25.0882 21.4817V24.2726H24.028V23.6889C24.028 20.6287 22.9212 17.6574 20.9113 15.3221C19.5951 13.7927 18.8797 11.837 18.8971 9.81531C18.936 5.25925 22.6752 1.55264 27.2323 1.55274C31.3188 1.55274 34.7757 4.47252 35.452 8.49527C35.5231 8.91803 35.9233 9.20301 36.3464 9.1322C36.7693 9.06098 37.0544 8.66058 36.9833 8.23782C36.6002 5.95922 35.4165 3.87378 33.6502 2.36545C31.8637 0.840138 29.5845 0 27.2323 0C27.2323 0 27.2323 0 27.2321 0C24.6041 0 22.1309 1.01684 20.2681 2.86316C18.4053 4.70978 17.3669 7.17409 17.3443 9.80185C17.3238 12.2 18.1726 14.5201 19.7344 16.3349C21.5018 18.3885 22.4753 21.0002 22.4753 23.6888V24.2854C21.7592 24.2712 20.2441 24.3814 19.0713 25.4243C18.2592 26.1465 17.7747 27.1551 17.6251 28.4308C16.7874 28.2914 15.5617 28.2578 14.4905 28.8942C13.5266 29.4669 12.8945 30.4396 12.6068 31.7896C12.0576 31.938 11.1753 32.2405 10.2945 32.812C9.93474 33.0453 9.83236 33.526 10.0657 33.8858C10.2143 34.115 10.4634 34.2398 10.7176 34.2398ZM30.9056 25.8253V26.951H23.559V25.8253H30.9056ZM27.1154 30.3039C25.9252 29.5514 24.7334 29.2333 23.559 29.3516V28.5038H30.9056V28.9059C29.2038 28.8741 27.8184 29.7492 27.1154 30.3039ZM26.641 23.1644H27.8234V24.2725H26.641V23.1644Z" fill="black"/>
<path d="M40.4829 36.0171C40.5653 34.9445 40.6038 32.5513 39.6407 30.2624C39.4744 29.8672 39.0193 29.6817 38.624 29.8479C38.2288 30.0141 38.0432 30.4694 38.2095 30.8646C39.3014 33.4594 38.8908 36.3321 38.8867 36.3598C38.8345 36.7033 39.0171 37.0398 39.3335 37.1834C40.7202 37.8124 41.5245 38.5914 41.7238 39.4985C42.0292 40.8894 40.8601 42.2627 40.8502 42.2743C40.7374 42.403 40.6703 42.5654 40.6592 42.7362C40.6082 43.5277 40.3623 44.1108 39.9286 44.4694C39.5436 44.7879 39.0621 44.8953 38.7044 44.9275L37.9825 41.9046C37.8829 41.4876 37.4647 41.2303 37.047 41.3298C36.63 41.4294 36.3726 41.8482 36.4722 42.2653L37.3318 45.865L38.3981 51.2409L35.456 47.6344C35.2882 47.4289 35.0269 47.3221 34.7634 47.3541C28.0036 48.1528 27.2498 44.9749 27.2078 44.765C27.1754 44.5201 27.0297 44.316 26.8129 44.1972C26.5947 44.0776 26.3336 44.0814 26.1085 44.1879C23.3321 45.5049 21.0232 45.7969 19.2458 45.0555C17.3188 44.2515 16.6652 42.4433 16.6601 42.4288C16.5858 42.2099 16.4178 42.0354 16.2017 41.9529C15.9857 41.8703 15.7442 41.8885 15.5429 42.0023C15.0111 42.3026 12.5775 42.8448 10.8133 41.9058C9.72079 41.3244 9.10632 40.2574 8.98676 38.7344C8.91978 37.8797 9.00943 37.1015 9.25342 36.4212C9.39813 36.0176 9.1883 35.5731 8.7848 35.4282C8.38129 35.2838 7.93679 35.4932 7.79187 35.8969C7.47325 36.7852 7.35441 37.7807 7.43878 38.8559C7.6427 41.4545 8.98966 42.6941 10.0838 43.2763C11.8582 44.2206 14.1641 44.0755 15.5319 43.6667C15.9805 44.4773 16.9171 45.7556 18.6177 46.4756C20.6439 47.3331 23.1246 47.1518 26.0007 45.9376C26.6758 47.2758 28.6879 49.515 34.5191 48.9422L37.5966 52.7144C37.7441 52.8952 37.965 53 38.1982 53H39.3847C39.6171 53 39.8373 52.8959 39.9847 52.7164C40.1322 52.5368 40.1915 52.3006 40.1463 52.0726L39.0313 46.451C39.594 46.3759 40.2947 46.175 40.9025 45.6787C41.6357 45.0803 42.0673 44.2087 42.1875 43.0852C42.6076 42.526 43.6247 40.9451 43.2433 39.1781C42.9662 37.8952 42.0386 36.8336 40.4829 36.0171Z" fill="black"/>
<path d="M15.0644 36.3107C14.0583 36.3643 13.4148 37.0694 13.3448 37.1496L13.9296 37.6604L14.5076 38.1787C14.5095 38.1766 14.6968 37.9765 14.966 37.8941C15.1618 37.8344 15.4759 37.8037 15.9371 38.2303C16.0865 38.3685 16.2756 38.4367 16.4641 38.4367C16.673 38.4367 16.8813 38.3529 17.0343 38.1876C17.3255 37.8728 17.3063 37.3816 16.9915 37.0904C16.2458 36.4007 15.531 36.2851 15.0644 36.3107Z" fill="black"/>
<path d="M33.4204 36.4182C34.3079 36.0792 35.2986 36.1547 36.3649 36.643C36.755 36.8217 37.2157 36.6501 37.3939 36.2603C37.5725 35.8705 37.4011 35.4097 37.0112 35.2313C35.547 34.5609 34.1483 34.4741 32.8537 34.9726C31.3445 35.5538 30.3605 36.8018 29.8456 37.6291C28.6644 36.9841 27.4743 36.873 26.516 36.9496C24.7649 37.0908 23.4402 37.8819 23.3848 37.9154C23.0187 38.137 22.902 38.6122 23.1222 38.9789C23.3426 39.3455 23.8189 39.4641 24.1866 39.2451C24.3574 39.143 28.4015 36.7955 31.0283 40.8866C31.1767 41.1175 31.4269 41.2436 31.6823 41.2436C31.826 41.2436 31.9712 41.2037 32.101 41.1205C32.4619 40.8888 32.5665 40.4085 32.335 40.0477C31.9468 39.4431 31.5325 38.9496 31.105 38.5477C31.4815 37.9185 32.2565 36.8627 33.4204 36.4182Z" fill="black"/>
<path d="M47.8997 31.0826H47.1318V30.3146C47.1318 29.8857 46.7842 29.5382 46.3554 29.5382C45.9265 29.5382 45.579 29.8857 45.579 30.3146V31.0826H44.8109C44.382 31.0826 44.0345 31.4301 44.0345 31.8589C44.0345 32.2878 44.382 32.6353 44.8109 32.6353H45.579V33.4034C45.579 33.8323 45.9265 34.1798 46.3554 34.1798C46.7842 34.1798 47.1318 33.8323 47.1318 33.4034V32.6353H47.8997C48.3286 32.6353 48.6761 32.2878 48.6761 31.8589C48.6761 31.4301 48.3285 31.0826 47.8997 31.0826Z" fill="black"/>
<path d="M12.3851 14.9256H13.1532V15.6936C13.1532 16.1224 13.5007 16.4699 13.9296 16.4699C14.3585 16.4699 14.706 16.1224 14.706 15.6936V14.9256H15.474C15.9028 14.9256 16.2503 14.5781 16.2503 14.1492C16.2503 13.7203 15.9028 13.3728 15.474 13.3728H14.706V12.6047C14.706 12.1759 14.3585 11.8284 13.9296 11.8284C13.5007 11.8284 13.1532 12.1759 13.1532 12.6047V13.3728H12.3851C11.9563 13.3728 11.6088 13.7203 11.6088 14.1492C11.6088 14.5781 11.9564 14.9256 12.3851 14.9256Z" fill="black"/>
<path d="M7.42083 29.2074H8.18892C8.61779 29.2074 8.96529 28.8599 8.96529 28.4311C8.96529 28.0022 8.61779 27.6547 8.18892 27.6547H7.42083V26.8866C7.42083 26.4577 7.07333 26.1102 6.64446 26.1102C6.21559 26.1102 5.86809 26.4577 5.86809 26.8866V27.6547H5.1001C4.67123 27.6547 4.32373 28.0022 4.32373 28.4311C4.32373 28.8599 4.67123 29.2074 5.1001 29.2074H5.86809V29.9754C5.86809 30.4043 6.21559 30.7518 6.64446 30.7518C7.07333 30.7518 7.42083 30.4043 7.42083 29.9754V29.2074Z" fill="black"/>
<path d="M39.911 24.9216C39.953 24.9216 39.9955 24.9182 40.0378 24.9111L45.3181 24.0375C45.6051 23.99 45.8416 23.7859 45.9305 23.5089C46.0194 23.2319 45.946 22.9284 45.7403 22.7225L41.3337 18.316C41.128 18.1102 40.8244 18.0368 40.5473 18.1259C40.2702 18.2148 40.0663 18.4513 40.0188 18.7383L39.1452 24.0185C39.1043 24.2656 39.1851 24.5172 39.3622 24.6943C39.5088 24.8411 39.7068 24.9216 39.911 24.9216ZM41.3039 20.4822L43.5739 22.7522L40.854 23.2023L41.3039 20.4822Z" fill="black"/>
<path d="M11.1627 24.0375L16.4429 24.9111C16.4852 24.9181 16.5275 24.9216 16.5697 24.9216C16.774 24.9216 16.972 24.841 17.1188 24.6943C17.2958 24.5172 17.3765 24.2655 17.3358 24.0185L16.4621 18.7383C16.4146 18.4512 16.2105 18.2148 15.9335 18.1259C15.6563 18.0368 15.3529 18.1102 15.1471 18.316L10.7406 22.7225C10.535 22.9283 10.4616 23.2318 10.5505 23.5089C10.6394 23.786 10.8755 23.99 11.1627 24.0375ZM15.1766 20.4822L15.6267 23.2022L12.9067 22.7521L15.1766 20.4822Z" fill="black"/>
</svg>
