<svg width="31" height="32" viewBox="0 0 31 32" fill="none" xmlns="http://www.w3.org/2000/svg">
<g clip-path="url(#clip0_88_637)">
<path d="M30.5459 4.41314V27.587C30.5459 28.8669 29.5086 29.9042 28.2287 29.9042H4.56383C3.28393 29.9042 2.24664 28.8669 2.24664 27.587V4.41314C2.24664 3.13324 3.28393 2.09595 4.56383 2.09595H28.2287C29.5086 2.09595 30.5459 3.1333 30.5459 4.41314Z" fill="#E0E0E3"/>
<path d="M30.5459 25.4307V27.5866C30.5459 28.8669 29.5088 29.904 28.2285 29.904H4.56401C3.28375 29.904 2.24664 28.8669 2.24664 27.5866V25.4307C2.24664 26.7104 3.28369 27.748 4.56401 27.748H28.2285C29.5088 27.748 30.5459 26.7104 30.5459 25.4307Z" fill="#D1D1D1"/>
<path d="M30.5461 8.55444H2.24713V10.4309H30.5461V8.55444Z" fill="#D1D1D1"/>
<path d="M30.5459 4.41332V8.55479H2.24664V4.41332C2.24664 4.37354 2.24779 4.33376 2.24949 4.29398C2.31143 3.06936 3.32347 2.09595 4.56401 2.09595H28.2285C29.469 2.09595 30.4811 3.06936 30.543 4.29398C30.5447 4.33376 30.5459 4.37354 30.5459 4.41332Z" fill="#FF3C63"/>
<path d="M2.24664 6.56933V4.41332C2.24664 3.13305 3.28369 2.09595 4.56401 2.09595H28.2285C29.5088 2.09595 30.5459 3.13299 30.5459 4.41332V6.56927C30.5459 5.28955 29.5088 4.2519 28.2285 4.2519H4.56401C3.28375 4.25196 2.24664 5.28961 2.24664 6.56933Z" fill="#FF557E"/>
<path d="M4.38517 16.0001H1.75223C1.03529 16.0001 0.454102 15.4189 0.454102 14.702V13.8008C0.454102 13.0839 1.03529 12.5027 1.75223 12.5027H4.38511C5.10204 12.5027 5.68323 13.0839 5.68323 13.8008V14.702C5.68329 15.4189 5.1021 16.0001 4.38517 16.0001Z" fill="#FFDA2D"/>
<path d="M5.68329 20.9321V21.8381C5.68329 22.5537 5.10319 23.1338 4.38759 23.1338H1.7498C1.0342 23.1338 0.454102 22.5537 0.454102 21.8381V20.9322C0.454102 20.2166 1.0342 19.6365 1.7498 19.6365H4.38753C5.10319 19.6364 5.68329 20.2165 5.68329 20.9321Z" fill="#FFDA2D"/>
<path d="M5.68329 21.385V21.838C5.68329 22.5536 5.10319 23.1337 4.38759 23.1337H1.7498C1.0342 23.1337 0.454102 22.5536 0.454102 21.838V21.385H5.68329Z" fill="#FFCE00"/>
<path d="M5.68329 14.2512V14.7042C5.68329 15.4198 5.10319 15.9999 4.38759 15.9999H1.7498C1.0342 15.9999 0.454102 15.4198 0.454102 14.7042V14.2512H5.68329Z" fill="#FFCE00"/>
<path d="M17.7239 25.8086V26.2476C17.7239 26.4984 17.9271 26.7017 18.178 26.7017C18.4288 26.7017 18.6321 26.4984 18.6321 26.2476V25.8086C18.6321 25.5578 18.4288 25.3545 18.178 25.3545C17.9271 25.3545 17.7239 25.5578 17.7239 25.8086Z" fill="black"/>
<path d="M16.0163 25.8086V26.2476C16.0163 26.4984 16.2196 26.7017 16.4704 26.7017C16.7212 26.7017 16.9245 26.4984 16.9245 26.2476V25.8086C16.9245 25.5578 16.7212 25.3545 16.4704 25.3545C16.2196 25.3545 16.0163 25.5578 16.0163 25.8086Z" fill="black"/>
<path d="M15.2169 26.2476V25.8086C15.2169 25.5578 15.0135 25.3545 14.7628 25.3545C14.512 25.3545 14.3087 25.5578 14.3087 25.8086V26.2476C14.3087 26.4984 14.512 26.7017 14.7628 26.7017C15.0135 26.7017 15.2169 26.4985 15.2169 26.2476Z" fill="black"/>
<path d="M28.2288 1.64185H4.56402C3.03594 1.64185 1.79279 2.88499 1.79279 4.41308V6.56503C1.79279 6.56643 1.79261 6.56776 1.79261 6.56915C1.79261 6.57054 1.79279 6.57188 1.79279 6.57327V8.55049C1.79279 8.55188 1.79261 8.55321 1.79261 8.5546C1.79261 8.556 1.79279 8.55733 1.79279 8.55872V12.0485H1.75223C0.78602 12.0485 0 12.8345 0 13.8007V14.7019C0 15.6681 0.78602 16.4541 1.75223 16.4541H1.79279V19.1822H1.75223C0.78602 19.1822 0 19.9682 0 20.9344V21.8356C0 22.8018 0.78602 23.5878 1.75223 23.5878H1.79279V27.5868C1.79279 29.1149 3.03594 30.358 4.56402 30.358H6.31686C6.56764 30.358 6.77096 30.1547 6.77096 29.9039C6.77096 29.6531 6.56764 29.4498 6.31686 29.4498H4.56402C3.53672 29.4498 2.701 28.6141 2.701 27.5868V23.5878H4.38511C5.35131 23.5878 6.13733 22.8018 6.13733 21.8356V20.9344C6.13733 19.9682 5.35131 19.1822 4.38511 19.1822H2.701V16.454H4.38511C5.35131 16.454 6.13733 15.668 6.13733 14.7018V13.8006C6.13733 12.8344 5.35131 12.0484 4.38511 12.0484H2.701V9.00865H30.0918V27.5868C30.0918 28.6141 29.2561 29.4498 28.2288 29.4498H8.0933C7.84252 29.4498 7.6392 29.6531 7.6392 29.9039C7.6392 30.1547 7.84252 30.358 8.0933 30.358H28.2288C29.7568 30.358 31 29.1149 31 27.5868V4.41308C31 2.88499 29.7569 1.64185 28.2288 1.64185ZM5.22919 20.9344V21.8356C5.22919 22.301 4.85053 22.6796 4.38517 22.6796H2.24926C2.24847 22.6796 2.24768 22.6795 2.24689 22.6795C2.24611 22.6795 2.24532 22.6796 2.24453 22.6796H1.75223C1.2868 22.6796 0.908203 22.301 0.908203 21.8356V20.9344C0.908203 20.469 1.2868 20.0904 1.75223 20.0904H2.24399C2.24496 20.0904 2.24593 20.0905 2.24689 20.0905C2.24786 20.0905 2.24883 20.0904 2.2498 20.0904H4.38511C4.85053 20.0904 5.22919 20.469 5.22919 20.9344ZM5.22919 13.8006V14.7018C5.22919 15.1672 4.85053 15.5458 4.38517 15.5458H1.75223C1.2868 15.5458 0.908203 15.1672 0.908203 14.7018V13.8006C0.908203 13.3352 1.2868 12.9566 1.75223 12.9566H2.24163C2.24338 12.9566 2.24514 12.9568 2.24689 12.9568C2.24865 12.9568 2.25041 12.9566 2.25216 12.9566H4.38511C4.85053 12.9566 5.22919 13.3352 5.22919 13.8006ZM2.701 8.10044V7.02325H15.8834C16.1343 7.02325 16.3375 6.81994 16.3375 6.56915C16.3375 6.31837 16.1343 6.11505 15.8834 6.11505H2.701V4.41308C2.701 3.38578 3.53672 2.55005 4.56402 2.55005H28.2288C29.2561 2.55005 30.0918 3.38578 30.0918 4.41308V6.11505H17.6595C17.4087 6.11505 17.2054 6.31837 17.2054 6.56915C17.2054 6.81994 17.4087 7.02325 17.6595 7.02325H30.0918V8.1005L2.701 8.10044Z" fill="black"/>
<path d="M14.0372 22.0848V13.675C14.0372 13.4243 13.8339 13.2209 13.5831 13.2209C13.3323 13.2209 13.129 13.4243 13.129 13.675V22.0848C13.129 22.3356 13.3323 22.5389 13.5831 22.5389C13.8339 22.5389 14.0372 22.3356 14.0372 22.0848Z" fill="black"/>
<path d="M20.7269 13.4065C20.6414 13.2898 20.5054 13.2209 20.3607 13.2209H15.9295C15.6787 13.2209 15.4754 13.4243 15.4754 13.675C15.4754 13.9258 15.6787 14.1292 15.9295 14.1292H19.7416L17.2791 21.9484C17.2038 22.1876 17.3366 22.4426 17.5758 22.518C17.6212 22.5323 17.6671 22.5391 17.7123 22.5391C17.9053 22.5391 18.0843 22.4151 18.1453 22.2212L20.7938 13.8115C20.8373 13.6735 20.8124 13.5231 20.7269 13.4065Z" fill="black"/>
</g>
<defs>
<clipPath id="clip0_88_637">
<rect width="31" height="31" fill="white" transform="translate(0 0.5)"/>
</clipPath>
</defs>
</svg>
