<svg width="21" height="21" viewBox="0 0 21 21" fill="none" xmlns="http://www.w3.org/2000/svg">
<g clip-path="url(#clip0_150_741)">
<path d="M15.412 10.8085L6.9697 18.6708L1.74927 19.2508C3.67138 21.1729 6.78775 21.1729 8.70987 19.2508L13.9804 13.9803C14.8629 13.0977 15.3399 11.9634 15.412 10.8085Z" fill="#6241EA"/>
<path d="M13.9803 7.01972C13.3464 6.38578 12.5825 5.96106 11.7744 5.74528C10.6724 4.64311 10.0344 4.00523 7.0202 7.01923L1.7492 12.2902C-0.172912 14.2123 -0.172912 17.3287 1.7492 19.2508C3.19078 20.6924 5.91758 20.3029 7.8397 18.3808L15.4119 10.8085C15.4969 9.44817 15.0198 8.0593 13.9803 7.01972ZM6.96967 17.5107C6.00859 18.4717 4.45045 18.4717 3.48937 17.5107C2.5283 16.5496 2.5283 14.9914 3.48937 14.0304L5.74532 11.7744L8.75988 13.9803C7.31831 12.5387 7.31831 10.2014 8.75988 8.75985C9.72096 7.79877 11.2791 7.79877 12.2402 8.75985C13.2013 9.72093 13.2013 11.2791 12.2402 12.2401L6.96967 17.5107Z" fill="#725FEE"/>
<path d="M19.2509 1.74921L18.6708 6.96963L12.2402 13.4003L7.01978 13.9803C8.94189 15.9024 12.0583 15.9024 13.9804 13.9803L19.2509 8.7098C21.173 6.78769 21.173 3.67132 19.2509 1.74921Z" fill="#28ABFA"/>
<path d="M19.2509 1.7492C17.3287 -0.172912 14.2124 -0.172912 12.2903 1.7492L7.01976 7.01971C8.30794 5.73153 10.1325 5.30682 11.7745 5.74527L14.0304 3.48933C14.9915 2.52825 16.5497 2.52825 17.5107 3.48933C18.4718 4.45041 18.4718 6.00855 17.5107 6.96963L12.2402 12.2401C11.2792 13.2012 9.72101 13.2012 8.75993 12.2401C7.79885 11.2791 7.79889 9.72092 8.75993 8.75984L5.74536 11.7744C5.96114 12.5825 6.38586 13.3463 7.0198 13.9803C8.46137 15.4218 11.1882 15.0323 13.1103 13.1102L18.3808 7.83969C20.3029 5.91762 20.6924 3.19078 19.2509 1.7492Z" fill="#4FDBFF"/>
<path d="M21 5.22949C21 3.83262 20.456 2.51943 19.4683 1.53173C18.4806 0.54399 17.1674 0 15.7705 0C14.3736 0 13.0604 0.54399 12.0727 1.53169L1.53173 12.0727C0.54399 13.0604 0 14.3736 0 15.7705C0 17.1674 0.54399 18.4806 1.53169 19.4683C2.51943 20.456 3.83262 21 5.22949 21C6.62636 21 7.93956 20.456 8.9273 19.4683L19.4683 8.9273C20.456 7.93956 21 6.62636 21 5.22949ZM8.49224 19.0333C7.62074 19.9048 6.46201 20.3848 5.22949 20.3848C3.99697 20.3848 2.83824 19.9048 1.9667 19.0333C1.0952 18.1618 0.615234 17.003 0.615234 15.7705C0.615234 14.538 1.0952 13.3793 1.96674 12.5078L7.23704 7.23745C8.10875 6.36571 9.26748 5.88574 10.5 5.88574C11.7325 5.88574 12.8913 6.36571 13.7628 7.23725C14.2947 7.76922 14.6884 8.42293 14.9087 9.13652L13.2512 10.794C13.3363 9.99059 13.0721 9.15682 12.4577 8.54228C11.3785 7.46316 9.62272 7.46287 8.54319 8.5415C8.54232 8.54232 3.27182 13.8129 3.27182 13.8129C2.19241 14.8923 2.19241 16.6487 3.27186 17.7282C3.81158 18.2679 4.52054 18.5378 5.22949 18.5378C5.93845 18.5378 6.64744 18.2679 7.18717 17.7282L9.3192 15.5962C9.702 15.6841 10.0975 15.7295 10.5 15.7295C11.0222 15.7295 11.5327 15.6534 12.0189 15.5066L8.49224 19.0333ZM12.0226 12.0226C11.1828 12.8622 9.81684 12.862 8.97738 12.0227C8.13807 11.1833 8.13783 9.81783 8.97656 8.9782C9.39742 8.55746 9.94859 8.3477 10.5 8.3477C11.0513 8.3477 11.6029 8.55766 12.0226 8.97738C12.8619 9.81668 12.8622 11.1822 12.0226 12.0226ZM5.607 12.3477C5.86811 13.0387 6.27543 13.671 6.80215 14.1978C7.33601 14.7316 7.96507 15.1355 8.65089 15.3943L6.75216 17.2931C6.33232 17.713 5.78099 17.9229 5.22949 17.9228C4.67816 17.9228 4.12658 17.7129 3.70687 17.2932C2.86728 16.4535 2.86728 15.0875 3.70687 14.2479L5.607 12.3477ZM13.7628 13.7627C12.8913 14.6343 11.7325 15.1143 10.5 15.1143C9.26748 15.1143 8.10875 14.6343 7.23725 13.7628C6.70528 13.2308 6.31161 12.5771 6.09127 11.8635L7.7488 10.206C7.66369 11.0094 7.92787 11.8432 8.54232 12.4577C9.08205 12.9974 9.791 13.2672 10.5 13.2672C11.2086 13.2672 11.9172 12.9976 12.4569 12.4585C12.4577 12.4577 17.7282 7.18717 17.7282 7.18717C18.8076 6.10772 18.8076 4.35131 17.7281 3.27182C16.6487 2.19245 14.8922 2.19245 13.8128 3.27182L12.5303 4.55433C12.4102 4.67451 12.4102 4.86925 12.5303 4.98939C12.6505 5.10948 12.8452 5.10944 12.9654 4.98935L14.2478 3.70687C15.0874 2.86724 16.4535 2.86728 17.2931 3.70683C18.1327 4.54646 18.1327 5.91253 17.2931 6.75212L15.3929 8.65229C15.1318 7.96126 14.7245 7.329 14.1978 6.8022C13.2101 5.8145 11.8969 5.27051 10.5 5.27051C9.97779 5.27051 9.46727 5.34659 8.98107 5.49343L12.5078 1.96674C13.3793 1.0952 14.538 0.615234 15.7705 0.615234C17.003 0.615234 18.1618 1.0952 19.0333 1.9667C19.9048 2.83824 20.3848 3.99697 20.3848 5.22949C20.3848 6.46201 19.9048 7.62074 19.0333 8.49224L13.7628 13.7627Z" fill="black"/>
</g>
<defs>
<clipPath id="clip0_150_741">
<rect width="21" height="21" fill="white"/>
</clipPath>
</defs>
</svg>
