<svg width="17" height="17" viewBox="0 0 17 17" fill="none" xmlns="http://www.w3.org/2000/svg">
<g clip-path="url(#clip0_88_914)">
<path d="M8.60336 12.2709L5.34896 15.5254C4.1837 16.6906 2.28803 16.6906 1.12278 15.5254C-0.042473 14.3601 -0.042473 12.4644 1.12278 11.2991L10.801 1.62031C12.1604 0.260886 14.3723 0.261118 15.7315 1.62031C17.0698 2.95859 16.6849 4.76418 15.0274 5.84679C15.9982 4.87594 15.9982 3.29578 15.0272 2.3247C14.0563 1.35385 12.4762 1.35385 11.5053 2.3247L8.95578 4.87428C8.95575 4.87442 9.9519 4.87428 9.9519 4.87428L6.07768 8.74903H5.08157L1.82717 12.0035C1.0505 12.7802 1.0505 14.0443 1.82717 14.821C2.60407 15.5979 3.8677 15.5979 4.64461 14.821L11.773 7.69249C12.3541 7.11139 12.3541 6.16047 11.773 5.57937C11.2011 5.00743 10.2562 4.98352 9.68736 5.55237C10.6013 4.14928 11.5969 3.99455 12.4773 4.87501C13.4482 5.84586 13.4482 7.42603 12.4773 8.39687H13.4735L9.59947 12.2709H8.60336Z" fill="#ACD5DF"/>
<path d="M8.95556 4.87479L5.08157 8.74884L5.78593 9.45323C5.78593 9.45323 9.68694 5.55265 9.6874 5.55218C10.6545 4.60199 11.9003 4.29771 12.4774 4.87479C11.5065 3.90395 9.92687 3.90348 8.95556 4.87479Z" fill="#C4F3FF"/>
<path d="M15.7317 6.55122L9.30774 12.9753L8.60339 12.2709L15.0274 5.84684C16.3866 4.48764 16.7026 2.59147 15.7315 1.62036C17.0909 2.97982 17.0909 5.19202 15.7317 6.55122Z" fill="#93B7C0"/>
<path d="M15.9077 1.44431C15.2032 0.739793 14.2651 0.351807 13.2663 0.351807C12.2675 0.351807 11.3294 0.739793 10.6249 1.44431L0.946681 11.1229C-0.31556 12.3853 -0.31556 14.4392 0.946681 15.7015C1.55727 16.3121 2.37023 16.6483 3.23585 16.6483C4.1015 16.6483 4.9145 16.3121 5.52505 15.7015L8.60324 12.6232L9.13151 13.1515C9.17823 13.1982 9.24155 13.2244 9.30762 13.2244C9.3737 13.2244 9.43698 13.1982 9.48374 13.1515L15.9077 6.72726C17.3641 5.27071 17.3641 2.90079 15.9077 1.44431ZM15.5555 6.37504L9.30766 12.6231L8.95546 12.2709L15.2034 6.02281C16.2714 4.95471 16.2714 3.21676 15.2034 2.14866C14.6867 1.63201 13.9988 1.34749 13.2663 1.34749C12.5339 1.34749 11.846 1.63201 11.3293 2.14866L3.63038 9.84792C3.53312 9.94517 3.53312 10.1029 3.63041 10.2001C3.72763 10.2974 3.88531 10.2973 3.98257 10.2001L5.08145 9.10117L5.60969 9.62944C5.6564 9.67616 5.71972 9.70239 5.7858 9.70239C5.85187 9.70239 5.91516 9.67612 5.96191 9.62944L9.83593 5.75529C10.0699 5.52127 10.3826 5.3924 10.7164 5.3924C11.0501 5.3924 11.3628 5.52127 11.5968 5.75529C12.0823 6.24083 12.0823 7.03081 11.5968 7.51628L4.46847 14.6449C4.13985 14.9736 3.7021 15.1545 3.23585 15.1545C2.76963 15.1545 2.33188 14.9736 2.00326 14.6449C1.32354 13.9652 1.32354 12.8592 2.00326 12.1795L3.27818 10.9045C3.37544 10.8072 3.37544 10.6496 3.27815 10.5523C3.1809 10.455 3.02321 10.4551 2.92599 10.5523L1.65107 11.8273C0.777209 12.7012 0.777209 14.1232 1.65107 14.9971C2.07378 15.4198 2.63662 15.6526 3.23588 15.6526C3.83514 15.6526 4.39795 15.4198 4.82066 14.9971L11.949 7.86848C12.6287 7.1888 12.6287 6.08284 11.949 5.40313C11.6209 5.07504 11.1831 4.89435 10.7164 4.89435C10.2495 4.89435 9.81179 5.07504 9.4837 5.40313L5.7858 9.1012L5.43364 8.74901L9.13154 5.05094C9.55413 4.62835 10.117 4.39559 10.7164 4.39559C11.3158 4.39559 11.8786 4.62832 12.3012 5.0509C13.1751 5.92479 13.1751 7.34678 12.3012 8.22067C12.3011 8.2208 5.17286 15.3493 5.17286 15.3493C4.65637 15.8658 3.96849 16.1502 3.23585 16.1502C2.50327 16.1502 1.81536 15.8658 1.29887 15.3493C0.230808 14.2812 0.230808 12.5432 1.29887 11.4751L10.9771 1.79644C11.5875 1.18599 12.4005 0.84983 13.2662 0.84983C14.132 0.84983 14.9451 1.18602 15.5554 1.79644C16.8178 3.05878 16.8178 5.1127 15.5555 6.37504ZM13.4128 7.10901C13.5607 6.25955 13.308 5.35339 12.6534 4.69875C12.1367 4.18206 11.4488 3.89754 10.7164 3.89754C10.5562 3.89754 10.3984 3.91195 10.2438 3.93861L11.6815 2.50085C12.1041 2.07827 12.6669 1.84554 13.2663 1.84554C13.8657 1.84554 14.4285 2.07827 14.8511 2.50085C15.725 3.37474 15.725 4.79673 14.8511 5.67065L13.4128 7.10901Z" fill="black"/>
</g>
<defs>
<clipPath id="clip0_88_914">
<rect width="17" height="17" fill="white"/>
</clipPath>
</defs>
</svg>
