<svg width="24" height="24" viewBox="0 0 24 24" fill="none" xmlns="http://www.w3.org/2000/svg">
<g clip-path="url(#clip0_88_898)">
<path d="M12 0.351562V23.6484C18.4333 23.6484 23.6484 18.4333 23.6484 12C23.6484 5.56673 18.4333 0.351562 12 0.351562Z" fill="#6241EA"/>
<path d="M22.2422 12C22.2422 5.56673 17.6566 0.351562 12 0.351562C5.56673 0.351562 0.351562 5.56673 0.351562 12C0.351562 18.4333 5.56673 23.6484 12 23.6484C17.6566 23.6484 22.2422 18.4333 22.2422 12Z" fill="#725FEE"/>
<path d="M12 20.8359C16.88 20.8359 20.8359 16.88 20.8359 12C20.8359 7.12005 16.88 3.16406 12 3.16406C7.12005 3.16406 3.16406 7.12005 3.16406 12C3.16406 16.88 7.12005 20.8359 12 20.8359Z" fill="#94E368"/>
<path d="M12 4.57031V19.4297C16.1033 19.4297 19.4297 16.1033 19.4297 12C19.4297 7.8967 16.1033 4.57031 12 4.57031Z" fill="#C4F3FF"/>
<path d="M18.0234 12C18.0234 7.8967 15.3267 4.57031 12 4.57031C7.8967 4.57031 4.57031 7.8967 4.57031 12C4.57031 16.1033 7.8967 19.4297 12 19.4297C15.3267 19.4297 18.0234 16.1033 18.0234 12Z" fill="white"/>
<path d="M6.78356 15.0117C6.97771 15.3479 7.40774 15.4632 7.74402 15.269L12.2798 12.6502L11.5767 11.4324L7.0409 14.0511C6.70462 14.2453 6.5894 14.6754 6.78356 15.0117Z" fill="#14CFFF"/>
<path d="M12 5.97656C11.6117 5.97656 11.2969 6.29137 11.2969 6.67969V11.9172H12.7031V6.67969C12.7031 6.29137 12.3883 5.97656 12 5.97656Z" fill="#14CFFF"/>
<path d="M12 13.0547C12.5825 13.0547 13.0547 12.5825 13.0547 12C13.0547 11.4175 12.5825 10.9453 12 10.9453C11.4175 10.9453 10.9453 11.4175 10.9453 12C10.9453 12.5825 11.4175 13.0547 12 13.0547Z" fill="#725FEE"/>
<path d="M20.4853 3.51469C18.2188 1.24823 15.2053 0 12 0C8.79469 0 5.78123 1.24823 3.51469 3.51469C1.24823 5.78123 0 8.79469 0 12C0 15.2053 1.24823 18.2188 3.51469 20.4853C5.78123 22.7518 8.79469 24 12 24C15.2053 24 18.2188 22.7518 20.4853 20.4853C22.7518 18.2188 24 15.2053 24 12C24 8.79469 22.7518 5.78123 20.4853 3.51469ZM12 23.2969C5.77087 23.2969 0.703125 18.2291 0.703125 12C0.703125 5.77087 5.77087 0.703125 12 0.703125C18.2291 0.703125 23.2969 5.77087 23.2969 12C23.2969 18.2291 18.2291 23.2969 12 23.2969Z" fill="black"/>
<path d="M12 19.7812C16.2906 19.7812 19.7812 16.2906 19.7812 12C19.7812 7.70939 16.2906 4.21875 12 4.21875C7.70939 4.21875 4.21875 7.70939 4.21875 12C4.21875 16.2906 7.70939 19.7812 12 19.7812ZM12 4.92188C15.9029 4.92188 19.0781 8.09709 19.0781 12C19.0781 15.9029 15.9029 19.0781 12 19.0781C8.09709 19.0781 4.92188 15.9029 4.92188 12C4.92188 8.09709 8.09709 4.92188 12 4.92188Z" fill="black"/>
<path d="M6.4791 15.1875C6.61996 15.4315 6.8474 15.606 7.11951 15.6789C7.21035 15.7032 7.30256 15.7153 7.3942 15.7153C7.57692 15.7153 7.75734 15.6673 7.91981 15.5735L11.7217 13.3785C11.8117 13.3966 11.9047 13.4062 12 13.4062C12.654 13.4062 13.2052 12.9574 13.3618 12.3515H18.0234C18.2176 12.3515 18.375 12.1941 18.375 12C18.375 11.8058 18.2176 11.6484 18.0234 11.6484H13.3618C13.3057 11.4313 13.1987 11.2346 13.0547 11.0713V6.67969C13.0547 6.09811 12.5816 5.625 12 5.625C11.4184 5.625 10.9453 6.09811 10.9453 6.67969V11.0714C10.8231 11.21 10.7279 11.3727 10.6675 11.5515L6.86512 13.7468C6.3615 14.0376 6.18834 14.6839 6.4791 15.1875ZM12 12.7031C11.6123 12.7031 11.2969 12.3877 11.2969 12C11.2969 11.6123 11.6123 11.2969 12 11.2969C12.3877 11.2969 12.7031 11.6123 12.7031 12C12.7031 12.3877 12.3877 12.7031 12 12.7031ZM12 6.32812C12.1939 6.32812 12.3516 6.48581 12.3516 6.67969V10.6382C12.2392 10.6092 12.1214 10.5937 12 10.5937C11.8786 10.5937 11.7608 10.6092 11.6484 10.6382V6.67969C11.6484 6.48581 11.8061 6.32812 12 6.32812ZM7.0529 14.5692C7.07718 14.4785 7.13535 14.4026 7.21668 14.3557L10.6453 12.3762C10.7099 12.6088 10.8328 12.8173 10.9974 12.9848L7.56825 14.9646C7.48692 15.0115 7.39218 15.024 7.30148 14.9997C7.21078 14.9754 7.13498 14.9173 7.08801 14.8359C7.04104 14.7546 7.02857 14.6599 7.0529 14.5692Z" fill="black"/>
<path d="M12 2.8125C9.81684 2.8125 7.70063 3.59203 6.04116 5.00747C5.89345 5.13347 5.87583 5.35538 6.00183 5.50308C6.12783 5.65083 6.34973 5.66841 6.49744 5.54241C8.02978 4.23539 9.98395 3.51562 12 3.51562C16.6783 3.51562 20.4844 7.32169 20.4844 12C20.4844 16.6783 16.6783 20.4844 12 20.4844C7.32169 20.4844 3.51562 16.6783 3.51562 12C3.51562 9.98395 4.23539 8.02978 5.54241 6.49748C5.66841 6.34978 5.65083 6.12787 5.50308 6.00187C5.35533 5.87583 5.13347 5.89345 5.00747 6.0412C3.59203 7.70062 2.8125 9.81684 2.8125 12C2.8125 17.066 6.93398 21.1875 12 21.1875C17.066 21.1875 21.1875 17.066 21.1875 12C21.1875 6.93398 17.066 2.8125 12 2.8125Z" fill="black"/>
</g>
<defs>
<clipPath id="clip0_88_898">
<rect width="24" height="24" fill="white"/>
</clipPath>
</defs>
</svg>
