<svg width="22" height="22" viewBox="0 0 22 22" fill="none" xmlns="http://www.w3.org/2000/svg">
<path d="M11.1736 16.7201H18.9196C19.1622 16.7201 19.3596 16.5234 19.3596 16.2821C19.3602 16.2117 19.36 16.0836 19.3598 15.9785L19.3596 15.8403C19.3596 14.9086 18.6186 14.4237 18.1771 14.2174C17.9357 14.1045 17.3591 13.8269 17.0375 13.672C16.914 13.6124 16.8289 13.5714 16.8159 13.5655C16.8144 13.5655 16.2798 13.3607 16.2798 12.8151V12.4923L16.3726 12.4266C16.7926 12.1287 17.1008 11.7289 17.4346 11.2201C17.549 11.0461 17.7096 10.6487 17.7096 10.3097V10.1938L17.8053 10.1269C17.9045 10.0589 17.9846 9.94122 18.0303 9.79558C18.0737 9.66094 18.2563 8.73914 18.2589 8.61352C18.2545 8.48504 18.2068 8.39638 18.1674 8.34468L18.04 8.1744V6.93008C18.04 5.14698 16.6872 3.74976 14.96 3.74976C13.2328 3.74976 11.88 5.14698 11.88 6.93008V8.17396L11.7537 8.34248C11.713 8.3955 11.6653 8.4846 11.6609 8.6155C11.6633 8.73826 11.8457 9.65896 11.8888 9.79272C11.9352 9.94012 12.0153 10.058 12.1147 10.1262L12.2104 10.1918V10.3077C12.2104 10.6483 12.3713 11.0456 12.4854 11.2196C12.8192 11.7285 13.1274 12.1285 13.5474 12.4261L13.6402 12.4919V12.8146C13.6402 13.206 13.3503 13.4645 13.079 13.5758C13.0786 13.5765 12.0813 14.0592 11.7432 14.2171C11.3014 14.4235 10.5607 14.9084 10.5607 15.8396C10.5607 15.8396 10.5602 16.0896 10.5602 16.1432" fill="#CCAC94"/>
<path d="M19.3598 15.84C19.3598 14.96 18.7053 14.4641 18.1773 14.2175C17.8369 14.0584 16.8298 13.5711 16.8298 13.5711C16.8298 13.5711 16.5858 13.4382 16.5829 13.4365C16.5314 13.4059 16.4646 13.423 16.4327 13.4734C16.4302 13.4774 16.1753 13.8597 14.9598 13.8597C13.7443 13.8597 13.4893 13.4774 13.4882 13.4758C13.4583 13.4228 13.3914 13.4039 13.3384 13.434C13.3368 13.4349 13.0902 13.5711 13.0902 13.5711C13.0902 13.5711 12.0833 14.0584 11.7427 14.2175C11.2147 14.4641 10.5602 14.96 10.5602 15.84C10.5602 15.9258 10.5593 16.1741 10.5602 16.28C10.5602 16.5231 10.7571 16.72 11.0002 16.72H14.9595H14.96H18.9193C19.1622 16.72 19.3593 16.5231 19.3593 16.28C19.3606 16.1741 19.3598 15.9258 19.3598 15.84Z" fill="#60BE92"/>
<path d="M11.44 17.7385L11.4398 17.6003C11.4398 16.6686 10.6988 16.1837 10.2573 15.9774C10.0159 15.8645 9.43931 15.5869 9.11767 15.432C8.99425 15.3724 8.90911 15.3314 8.89613 15.3255C8.89459 15.3255 8.35999 15.1207 8.35999 14.5751V14.2523L8.45283 14.1866C8.87281 13.8887 9.18103 13.4889 9.51477 12.9801C9.62917 12.8061 9.78977 12.4087 9.78977 12.0697V11.9538L9.88547 11.8869C9.98469 11.8189 10.0648 11.7012 10.1105 11.5556C10.1539 11.4209 10.3365 10.4991 10.3391 10.3735C10.3347 10.245 10.287 10.1564 10.2476 10.1047L10.12 9.93441V8.69009C10.12 6.90699 8.76721 5.50977 7.03999 5.50977C5.31277 5.50977 3.95999 6.90699 3.95999 8.69009V9.93397L3.83371 10.1025C3.79301 10.1555 3.74527 10.2446 3.74087 10.3755C3.74329 10.4983 3.92567 11.419 3.96879 11.5527C4.01521 11.7001 4.09529 11.818 4.19473 11.8862L4.29043 11.9518V12.0677C4.29043 12.4083 4.45125 12.8056 4.56543 12.9796C4.89917 13.4885 5.20739 13.8885 5.62737 14.1861L5.72021 14.2519V14.5746C5.72021 14.966 5.43025 15.2245 5.15899 15.3358C5.15855 15.3365 4.16129 15.8192 3.82315 15.9771C3.38139 16.1835 2.64065 16.6684 2.64065 17.5996L2.63999 17.7382C2.63977 17.8432 2.63955 17.9708 2.64021 18.0368C2.64021 18.2823 2.83755 18.4801 3.08021 18.4801H10.9993C11.242 18.4801 11.4393 18.2834 11.4393 18.0421C11.4402 17.9714 11.44 17.8434 11.44 17.7385Z" fill="#EAD6C7"/>
<path d="M11.44 17.5992C11.44 16.7192 10.7855 16.2234 10.2575 15.9767C9.91716 15.8177 8.91 15.3304 8.91 15.3304C8.91 15.3304 8.66602 15.1975 8.66316 15.1957C8.61168 15.1651 8.5448 15.1823 8.5129 15.2327C8.51048 15.2366 8.2555 15.619 7.04 15.619C5.8245 15.619 5.56952 15.2367 5.56842 15.2351C5.5385 15.1821 5.47162 15.1632 5.4186 15.1933C5.41706 15.1942 5.17044 15.3304 5.17044 15.3304C5.17044 15.3304 4.1635 15.8177 3.82294 15.9767C3.29494 16.2234 2.64044 16.7192 2.64044 17.5992C2.64044 17.685 2.63956 17.9334 2.64044 18.0392C2.64044 18.2823 2.83734 18.4792 3.08044 18.4792H7.03978H7.04022H10.9996C11.2424 18.4792 11.4396 18.2823 11.4396 18.0392C11.4409 17.9334 11.44 17.685 11.44 17.5992Z" fill="#F15B6C"/>
<path d="M10.9996 18.7001H3.08043C2.71655 18.7001 2.42043 18.4025 2.42043 18.0368C2.41977 17.9893 2.41977 17.9039 2.41999 17.8192L2.42043 17.5988C2.42043 16.5463 3.24081 16.006 3.72987 15.7776C4.06449 15.6214 5.01533 15.161 5.05933 15.1396C5.06439 15.1368 5.06989 15.1346 5.07539 15.1322C5.28087 15.0481 5.50021 14.8574 5.50021 14.5747V14.3659C5.05229 14.0484 4.72911 13.6302 4.38151 13.1005C4.26117 12.9174 4.07043 12.475 4.07043 12.068C3.93029 11.9719 3.81985 11.8126 3.75891 11.6192C3.71645 11.4863 3.52417 10.5357 3.52087 10.3806C3.52615 10.2191 3.57367 10.0812 3.65859 9.96964L3.73999 9.86073V8.69011C3.73999 6.78337 5.18957 5.28979 7.03999 5.28979C8.89041 5.28979 10.34 6.78337 10.34 8.69011V9.86118L10.4236 9.97272C10.4815 10.0488 10.5525 10.1797 10.5589 10.3656C10.5556 10.5394 10.3646 11.4832 10.32 11.6227C10.2597 11.8141 10.1493 11.973 10.0096 12.0682V12.0695C10.0096 12.4757 9.81881 12.9174 9.69847 13.1007C9.35087 13.6304 9.02769 14.0487 8.57977 14.3659V14.5749C8.57977 14.9526 8.94475 15.108 8.97247 15.1192C8.97709 15.1209 8.98171 15.1229 8.98633 15.1249C9.00019 15.1308 9.08709 15.1729 9.21315 15.2338C9.53369 15.3882 10.1092 15.6654 10.3501 15.7781C10.8392 16.0064 11.6596 16.5468 11.6596 17.6003L11.66 17.7378V17.7385V17.8195C11.6602 17.9046 11.6602 17.9911 11.6596 18.0445C11.6596 18.4049 11.3634 18.7001 10.9996 18.7001ZM5.24105 15.5365C5.10883 15.6124 4.78147 15.7721 3.91599 16.1763C3.52175 16.3604 2.86043 16.7899 2.86043 17.5995L2.85999 17.8197C2.85977 17.902 2.85977 17.9851 2.86043 18.0342C2.86043 18.16 2.95899 18.2601 3.08043 18.2601H10.9996C11.121 18.2601 11.2196 18.1624 11.2196 18.0421C11.2202 17.9871 11.2202 17.9026 11.22 17.8199L11.2196 17.601C11.2196 16.7905 10.5582 16.3609 10.164 16.1767C9.92177 16.0636 9.34405 15.7853 9.02197 15.63C8.90295 15.5726 8.82023 15.5328 8.80527 15.5257L8.80703 15.5216C8.59737 15.4399 8.13999 15.1427 8.13999 14.5747V14.2519C8.13999 14.1807 8.17453 14.1136 8.23283 14.0724L8.32567 14.0066C8.71705 13.7292 9.01053 13.3473 9.33085 12.8589C9.42721 12.7122 9.56977 12.3597 9.56977 12.0693V11.9534C9.56977 11.8814 9.60497 11.8141 9.66393 11.773L9.75985 11.7061C9.81947 11.6654 9.87029 11.5866 9.90109 11.4892C9.94311 11.3576 10.1147 10.4781 10.1196 10.3676C10.1171 10.3102 10.0927 10.2638 10.0727 10.2374L9.94399 10.0664C9.91539 10.0284 9.89999 9.98217 9.89999 9.93443V8.69011C9.89999 7.02999 8.64379 5.72979 7.03999 5.72979C5.43619 5.72979 4.17999 7.02999 4.17999 8.69011V9.93399C4.17999 9.98173 4.16459 10.0279 4.13599 10.066L4.00971 10.2345C3.97891 10.2752 3.96285 10.3245 3.96065 10.3832C3.96615 10.4811 4.13709 11.3572 4.17823 11.4857C4.20969 11.5855 4.26095 11.665 4.31903 11.705L4.41473 11.7703C4.47457 11.8115 4.51065 11.8792 4.51065 11.9518V12.0678C4.51065 12.3593 4.65299 12.7122 4.74957 12.8589C5.06989 13.3473 5.36337 13.7292 5.75475 14.0069L5.84759 14.0724C5.90589 14.1138 5.94043 14.1807 5.94043 14.2519V14.5747C5.94043 15.075 5.57985 15.4012 5.24237 15.5396L5.24105 15.5365Z" fill="#1F212B"/>
<path d="M7.80977 15.7695C7.75851 15.7695 7.71252 15.7332 7.70218 15.6809C7.6903 15.6212 7.72903 15.5636 7.78887 15.5517C8.36945 15.4369 8.51333 15.2301 8.51465 15.2281C8.54787 15.1786 8.61519 15.1628 8.66579 15.1951C8.71617 15.227 8.73289 15.2919 8.70231 15.3432C8.68493 15.3724 8.51245 15.6327 7.83155 15.7675C7.82407 15.7689 7.81681 15.7695 7.80977 15.7695Z" fill="#1F212B"/>
<path d="M7.04 15.8366C5.69448 15.8366 5.40518 15.3913 5.37658 15.3405C5.34666 15.2877 5.36558 15.2203 5.41838 15.1906C5.4703 15.1609 5.5363 15.1788 5.5671 15.2305C5.5748 15.2423 5.83748 15.6166 7.03978 15.6166L7.1478 15.6141C7.21556 15.619 7.25868 15.6614 7.25978 15.7222C7.26088 15.7829 7.21248 15.833 7.15176 15.8341L7.04 15.8366Z" fill="#1F212B"/>
<path d="M11.3302 17.8201H5.17C5.10928 17.8201 5.06 17.7708 5.06 17.7101C5.06 17.6494 5.10928 17.6001 5.17 17.6001H11.3302C11.3909 17.6001 11.4402 17.6494 11.4402 17.7101C11.4402 17.7708 11.3909 17.8201 11.3302 17.8201Z" fill="#1F212B"/>
<path d="M7.04001 14.7366C6.46471 14.7366 5.53499 14.1393 5.49561 14.114L5.61507 13.9292C5.62409 13.9349 6.52917 14.5166 7.04045 14.5166C7.55173 14.5166 8.45637 13.9349 8.46539 13.9292L8.58485 14.114C8.54547 14.1395 7.61575 14.7366 7.04001 14.7366Z" fill="#1F212B"/>
<path d="M4.51021 17.8201H4.07021C4.00949 17.8201 3.96021 17.7708 3.96021 17.7101C3.96021 17.6494 4.00949 17.6001 4.07021 17.6001H4.51021C4.57093 17.6001 4.61999 17.6494 4.61999 17.7101C4.61999 17.7708 4.57093 17.8201 4.51021 17.8201Z" fill="#1F212B"/>
<path d="M3.6302 17.8201H3.4102C3.34948 17.8201 3.3002 17.7708 3.3002 17.7101C3.3002 17.6494 3.34948 17.6001 3.4102 17.6001H3.6302C3.69092 17.6001 3.73998 17.6494 3.73998 17.7101C3.73998 17.7708 3.69092 17.8201 3.6302 17.8201Z" fill="#1F212B"/>
<path d="M18.9196 16.9401H11.1736C11.0519 16.9401 10.9536 16.8418 10.9536 16.7201C10.9536 16.5984 11.0519 16.5001 11.1736 16.5001H18.9196C19.041 16.5001 19.1396 16.4024 19.1396 16.2821C19.1402 16.2271 19.1402 16.1426 19.14 16.0599L19.1396 15.841C19.1396 15.0305 18.4782 14.6008 18.084 14.4167C17.8418 14.3036 17.2641 14.0253 16.942 13.87C16.823 13.8126 16.7402 13.7728 16.7253 13.7657L16.727 13.7615C16.5174 13.6799 16.06 13.3827 16.06 12.8147V12.4919C16.06 12.4206 16.0945 12.3535 16.1528 12.3124L16.2457 12.2466C16.6371 11.9692 16.9305 11.5873 17.2509 11.0989C17.3472 10.9521 17.4898 10.5997 17.4898 10.3093V10.1934C17.4898 10.1214 17.525 10.0541 17.5839 10.013L17.6799 9.94608C17.7395 9.90538 17.7903 9.82662 17.8211 9.72916C17.8631 9.5976 18.0347 8.71804 18.0396 8.6076C18.0371 8.55018 18.0127 8.50377 17.9927 8.47737L17.864 8.30643C17.8354 8.26837 17.82 8.22216 17.82 8.17442V6.93011C17.82 5.26999 16.5638 3.96979 14.96 3.96979C13.3562 3.96979 12.1 5.26999 12.1 6.93011V8.17398C12.1 8.22172 12.0846 8.26793 12.056 8.30599L11.9297 8.47451C11.8989 8.51521 11.8829 8.56448 11.8807 8.62322C11.8862 8.72112 12.0571 9.59717 12.0982 9.72565C12.1297 9.82553 12.181 9.90494 12.239 9.94498L12.3347 10.0103C12.3946 10.0515 12.4307 10.1192 12.4307 10.1918V10.3078C12.4307 10.5993 12.573 10.9521 12.6696 11.0989C12.9899 11.5873 13.2834 11.9692 13.6748 12.2468L13.7676 12.3124C13.8259 12.3538 13.8604 12.4206 13.8604 12.4919V12.8147C13.8604 13.3149 13.4999 13.6412 13.1624 13.7796L13.1613 13.7767C13.0291 13.8526 12.7017 14.0123 11.8362 14.4165C11.442 14.6006 10.7807 15.0301 10.7807 15.8397L10.78 16.143C10.78 16.2647 10.6817 16.363 10.56 16.363C10.4383 16.363 10.34 16.2647 10.34 16.143L10.3404 15.839C10.3404 14.7863 11.1608 14.246 11.6499 14.0176C11.9845 13.8614 12.9342 13.4016 12.9791 13.3796C12.9844 13.377 12.9899 13.3746 12.9954 13.3721C13.2009 13.2881 13.4202 13.0974 13.4202 12.8147V12.6059C12.9723 12.2884 12.6491 11.8702 12.3015 11.3404C12.1812 11.1574 11.9904 10.715 11.9904 10.308C11.8503 10.2118 11.7399 10.0526 11.6789 9.85918C11.6365 9.7263 11.4442 8.77568 11.4409 8.62058C11.4462 8.4591 11.4937 8.32117 11.5786 8.20963L11.66 8.10072V6.93011C11.66 5.02337 13.1096 3.52979 14.96 3.52979C16.8104 3.52979 18.26 5.02337 18.26 6.93011V8.10117L18.3436 8.21271C18.4015 8.28883 18.4725 8.41973 18.4789 8.60563C18.4756 8.77943 18.2846 9.72323 18.24 9.86271C18.1797 10.0541 18.0693 10.2129 17.9296 10.3082V10.3095C17.9296 10.7156 17.7388 11.1574 17.6185 11.3407C17.2709 11.8704 16.9477 12.2886 16.4998 12.6059V12.8149C16.4998 13.1926 16.8648 13.3479 16.8925 13.3592C16.8971 13.3609 16.9017 13.3629 16.9063 13.3649C16.9202 13.3708 17.0071 13.4128 17.1332 13.4738C17.4537 13.6282 18.0292 13.9054 18.2701 14.0181C18.7592 14.2464 19.5796 14.7867 19.5796 15.8403L19.58 16.0594C19.5802 16.1446 19.5802 16.231 19.5796 16.2845C19.5796 16.6449 19.2834 16.9401 18.9196 16.9401Z" fill="#1F212B"/>
<path d="M15.7298 14.0095C15.6785 14.0095 15.6325 13.9732 15.6222 13.9208C15.6103 13.8612 15.649 13.8035 15.7089 13.7917C16.2895 13.6768 16.4333 13.47 16.4347 13.468C16.4679 13.4183 16.5354 13.4029 16.5858 13.435C16.6362 13.4669 16.6529 13.5318 16.6223 13.5831C16.6049 13.6124 16.4325 13.8726 15.7516 14.0075C15.7441 14.0088 15.7368 14.0095 15.7298 14.0095Z" fill="#1F212B"/>
<path d="M14.96 14.0765C13.6145 14.0765 13.3252 13.6312 13.2966 13.5804C13.2667 13.5276 13.2856 13.4603 13.3384 13.4306C13.3903 13.4009 13.4563 13.4189 13.4871 13.4704C13.4948 13.4823 13.7575 13.8565 14.9598 13.8565L15.0678 13.8541C15.132 13.862 15.1787 13.9014 15.1798 13.9621C15.1809 14.0228 15.1325 14.073 15.0718 14.0741L14.96 14.0765Z" fill="#1F212B"/>
<path d="M19.2502 16.0601H13.09C13.0293 16.0601 12.98 16.0108 12.98 15.9501C12.98 15.8894 13.0293 15.8401 13.09 15.8401H19.2502C19.311 15.8401 19.3602 15.8894 19.3602 15.9501C19.3602 16.0108 19.311 16.0601 19.2502 16.0601Z" fill="#1F212B"/>
<path d="M14.96 12.9766C14.3847 12.9766 13.455 12.3793 13.4156 12.354L13.535 12.1692C13.5441 12.1749 14.4491 12.7566 14.9604 12.7566C15.4717 12.7566 16.3763 12.1749 16.3854 12.1692L16.5048 12.354C16.4654 12.3795 15.5357 12.9766 14.96 12.9766Z" fill="#1F212B"/>
<path d="M12.4302 16.0601H11.9902C11.9295 16.0601 11.8802 16.0108 11.8802 15.9501C11.8802 15.8894 11.9295 15.8401 11.9902 15.8401H12.4302C12.4909 15.8401 12.54 15.8894 12.54 15.9501C12.54 16.0108 12.4909 16.0601 12.4302 16.0601Z" fill="#1F212B"/>
<path d="M11.55 16.0601C11.5496 16.0601 11.5491 16.0601 11.5485 16.0601L11.3287 16.0572C11.2682 16.0563 11.2193 16.0073 11.2202 15.9472C11.2209 15.8878 11.2699 15.8401 11.33 15.8401C11.3304 15.8401 11.3309 15.8401 11.3315 15.8401L11.5513 15.8429C11.6118 15.8438 11.6607 15.8929 11.6598 15.9529C11.6591 16.0123 11.6101 16.0601 11.55 16.0601Z" fill="#1F212B"/>
</svg>
