<svg width="58" height="58" viewBox="0 0 58 58" fill="none" xmlns="http://www.w3.org/2000/svg">
<g clip-path="url(#clip0_106_6174)">
<path d="M56.8672 29C56.8672 29.3089 44.389 45.5023 29 45.5023C13.611 45.5023 1.13281 29.2053 1.13281 29C1.13281 28.6916 13.611 12.4977 29 12.4977C44.389 12.4977 56.8672 28.7947 56.8672 29Z" fill="#EDF2FA"/>
<path d="M40.8945 29C40.8945 35.569 35.569 40.8945 29 40.8945C22.431 40.8945 17.1055 35.569 17.1055 29C17.1055 22.431 22.431 17.1055 29 17.1055C35.569 17.1055 40.8945 22.431 40.8945 29Z" fill="#4DBAF6"/>
<path d="M38.9755 24.367C38.9755 27.3176 36.5838 29.7093 33.6331 29.7093C30.6825 29.7093 28.2908 27.3176 28.2908 24.367C28.2908 21.4163 30.6825 19.0246 33.6331 19.0246C36.5838 19.0246 38.9755 21.4163 38.9755 24.367Z" fill="white"/>
<path d="M37.9311 19.5251C35.5973 17.3241 32.4538 15.9727 29 15.9727C21.8168 15.9727 15.9727 21.8168 15.9727 29C15.9727 36.1832 21.8168 42.0273 29 42.0273C36.1832 42.0273 42.0273 36.1832 42.0273 29C42.0273 25.5462 40.6759 22.4023 38.4745 20.0685C38.39 19.9733 38.3028 19.8795 38.2116 19.7884C38.1205 19.6972 38.0267 19.61 37.9311 19.5251ZM36.6098 27.3437C34.9685 28.9845 32.298 28.985 30.6563 27.3437C29.015 25.7025 29.015 23.0315 30.6563 21.3902C31.4515 20.5951 32.5086 20.1574 33.633 20.1574C34.6742 20.1574 35.657 20.5336 36.4279 21.2199C36.5478 21.3345 36.6651 21.4518 36.7797 21.5717C38.2484 23.2231 38.1922 25.7613 36.6098 27.3437ZM29 39.7617C23.066 39.7617 18.2383 34.934 18.2383 29C18.2383 23.066 23.066 18.2383 29 18.2383C29.6965 18.2383 30.378 18.3055 31.0382 18.4325C30.3076 18.7525 29.635 19.2074 29.0544 19.7884C26.5299 22.3129 26.5299 26.4206 29.0544 28.9456C30.3169 30.208 31.975 30.8391 33.633 30.8391C35.2911 30.8391 36.9496 30.208 38.2116 28.9456C38.8019 28.3557 39.252 27.6787 39.5661 26.9561C39.694 27.6181 39.7617 28.3013 39.7617 29C39.7617 34.934 34.934 39.7617 29 39.7617Z" fill="black"/>
<path d="M56.2371 26.387C55.3596 25.3737 53.9152 23.7984 52.0173 22.0461C51.5576 21.6221 50.8412 21.6505 50.4168 22.1102C49.9924 22.57 50.0208 23.2864 50.4805 23.7108C52.9793 26.018 54.7202 28.0637 55.4746 29.0142C54.4679 30.3023 51.6284 33.6136 47.5401 36.8478C43.2031 40.279 36.4664 44.3695 29 44.3695C21.5305 44.3695 14.7748 40.2427 10.4228 36.781C6.41411 33.5923 3.55995 30.293 2.52405 28.9872C3.52986 27.6999 6.3703 24.3873 10.4599 21.1517C14.7969 17.7206 21.5336 13.6305 29 13.6305C33.6547 13.6305 38.5236 15.2023 43.4721 18.3025C44.0031 18.6348 44.7018 18.4742 45.0337 17.944C45.366 17.4139 45.2054 16.7148 44.6753 16.3829C39.3608 13.053 34.0866 11.3649 29 11.3649C20.6796 11.3649 13.3044 15.9267 8.58238 19.753C5.86673 21.9536 3.76616 24.1103 2.48245 25.5321C1.68417 26.4162 1.13148 27.0915 0.808456 27.5021C0.162399 28.3239 0 28.5863 0 29C0 29.416 0.143814 29.635 0.813767 30.4744C1.14299 30.8873 1.69966 31.5608 2.48334 32.4259C3.77678 33.853 5.88399 36.0146 8.58105 38.2072C13.3105 42.0521 20.692 46.6352 29 46.6352C37.3204 46.6352 44.6956 42.0734 49.4176 38.247C52.1333 36.0465 54.2338 33.8897 55.5175 32.4679C56.3163 31.5838 56.8685 30.9085 57.1915 30.4979C57.8376 29.6762 58 29.4138 58 29C58 28.6403 58 28.423 56.2371 26.387Z" fill="black"/>
<path d="M47.1334 20.8694C47.1453 20.8783 47.1573 20.8867 47.1692 20.8942C47.3626 21.0234 47.5807 21.0849 47.7967 21.0849C48.1626 21.0849 48.5219 20.9079 48.7401 20.5805C49.0799 20.0711 48.9525 19.387 48.4595 19.0326C48.448 19.0242 48.4361 19.0158 48.4241 19.0082C47.9038 18.6609 47.2002 18.8016 46.8533 19.322C46.5139 19.8313 46.6408 20.515 47.1334 20.8694Z" fill="black"/>
<path d="M29 7.39072C29.6257 7.39072 30.1328 6.88361 30.1328 6.2579V1.13281C30.1328 0.507111 29.6257 0 29 0C28.3743 0 27.8672 0.507111 27.8672 1.13281V6.2579C27.8672 6.88361 28.3743 7.39072 29 7.39072Z" fill="black"/>
<path d="M40.0072 9.81473C40.297 9.81473 40.5869 9.7041 40.8081 9.48285L44.5433 5.74767C44.9858 5.30516 44.9858 4.58786 44.5433 4.14536C44.1008 3.70285 43.3839 3.70285 42.941 4.14536L39.2058 7.88054C38.7638 8.32304 38.7638 9.04034 39.2058 9.48285C39.4275 9.7041 39.7169 9.81473 40.0072 9.81473Z" fill="black"/>
<path d="M17.1918 9.48288C17.4131 9.70414 17.7029 9.81476 17.9928 9.81476C18.2826 9.81476 18.5724 9.70369 18.7937 9.48288C19.2362 9.04038 19.2362 8.32308 18.7937 7.88057L15.0589 4.14539C14.6164 3.70333 13.8991 3.70333 13.4566 4.14539C13.0141 4.58789 13.0141 5.30519 13.4566 5.7477L17.1918 9.48288Z" fill="black"/>
<path d="M29 50.4867C28.3743 50.4867 27.8672 50.9942 27.8672 51.6195V56.8672C27.8672 57.4929 28.3743 58 29 58C29.6257 58 30.1328 57.4929 30.1328 56.8672V51.6195C30.1328 50.9938 29.6257 50.4867 29 50.4867Z" fill="black"/>
<path d="M40.8081 48.395C40.3656 47.9525 39.6488 47.9525 39.2058 48.395C38.7638 48.8371 38.7638 49.5544 39.2058 49.9969L42.941 53.732C43.1623 53.9533 43.4521 54.0639 43.7424 54.0639C44.0322 54.0639 44.3221 53.9533 44.5433 53.732C44.9854 53.29 44.9854 52.5727 44.5433 52.1302L40.8081 48.395Z" fill="black"/>
<path d="M17.1918 48.395L13.4566 52.1302C13.0141 52.5723 13.0141 53.2896 13.4566 53.7321C13.6779 53.9533 13.9677 54.0639 14.2576 54.0639C14.5474 54.0639 14.8372 53.9533 15.0585 53.7321L18.7937 49.9969C19.2362 49.5548 19.2362 48.8375 18.7937 48.395C18.3516 47.9529 17.6348 47.9525 17.1918 48.395Z" fill="black"/>
</g>
<defs>
<clipPath id="clip0_106_6174">
<rect width="58" height="58" fill="white"/>
</clipPath>
</defs>
</svg>
