<svg width="26" height="27" viewBox="0 0 26 27" fill="none" xmlns="http://www.w3.org/2000/svg">
<g clip-path="url(#clip0_85_466)">
<path d="M10.7974 17.3086H8.51221V19.5938L9.65479 20.7871L10.7974 19.5938V17.3086Z" fill="#8AE7FF"/>
<path d="M8.51221 19.5938V24.9766C8.51221 25.6076 9.02378 26.1191 9.65479 26.1191C10.2858 26.1191 10.7974 25.6076 10.7974 24.9766V19.5938H8.51221Z" fill="#C4F3FF"/>
<path d="M9.65479 0.880859C9.02378 0.880859 8.51221 1.39243 8.51221 2.02344V9.69141H10.7974V2.02344C10.7974 1.39243 10.2858 0.880859 9.65479 0.880859Z" fill="#C4F3FF"/>
<path d="M11.4766 8.92969H9.95312V15.0234L12.2383 13.5V9.69141C12.2383 9.27094 11.897 8.92969 11.4766 8.92969Z" fill="#61CE5A"/>
<path d="M10.7148 9.69141V16.5469L7.07129 13.5V9.69141C7.07129 9.27094 7.41254 8.92969 7.83301 8.92969H9.95312C10.3736 8.92969 10.7148 9.27094 10.7148 9.69141Z" fill="#94E368"/>
<path d="M10.7148 13.5L9.95312 18.0703H11.4766C11.897 18.0703 12.2383 17.7291 12.2383 17.3086V13.5H10.7148Z" fill="#2DB94D"/>
<path d="M10.7148 13.5V17.3086C10.7148 17.7291 10.3736 18.0703 9.95312 18.0703H7.83301C7.41254 18.0703 7.07129 17.7291 7.07129 17.3086V13.5H10.7148Z" fill="#61CE5A"/>
<path d="M17.4878 13.5H15.2026V15.7852L16.3452 16.9785L17.4878 15.7852V13.5Z" fill="#8AE7FF"/>
<path d="M15.2026 15.7852V24.9766C15.2026 25.6076 15.7142 26.1191 16.3452 26.1191C16.9762 26.1191 17.4878 25.6076 17.4878 24.9766V15.7852H15.2026Z" fill="#C4F3FF"/>
<path d="M16.3452 0.880859C15.7142 0.880859 15.2026 1.39243 15.2026 2.02344V6.64453H17.4878V2.02344C17.4878 1.39243 16.9762 0.880859 16.3452 0.880859Z" fill="#C4F3FF"/>
<path d="M18.167 5.12109H16.6436V11.2148L18.9287 9.69141V5.88281C18.9287 5.46234 18.5875 5.12109 18.167 5.12109Z" fill="#3B88F5"/>
<path d="M17.4053 5.88281V12.7383L13.7617 9.69141V5.88281C13.7617 5.46234 14.103 5.12109 14.5234 5.12109H16.6436C17.064 5.12109 17.4053 5.46234 17.4053 5.88281Z" fill="#28ABFA"/>
<path d="M17.4053 9.69141L16.6436 14.2617H18.167C18.5875 14.2617 18.9287 13.9205 18.9287 13.5V9.69141H17.4053Z" fill="#3A6FD8"/>
<path d="M17.4053 9.69141V13.5C17.4053 13.9205 17.064 14.2617 16.6436 14.2617H14.5234C14.103 14.2617 13.7617 13.9205 13.7617 13.5V9.69141H17.4053Z" fill="#3B88F5"/>
<path d="M24.1782 21.1172H21.8931V23.4023L23.0356 24.5957L24.1782 23.4023V21.1172Z" fill="#8AE7FF"/>
<path d="M21.8931 23.4023V24.9766C21.8931 25.6076 22.4046 26.1191 23.0356 26.1191C23.6667 26.1191 24.1782 25.6076 24.1782 24.9766V23.4023H21.8931Z" fill="#C4F3FF"/>
<path d="M23.0356 0.880859C22.4046 0.880859 21.8931 1.39243 21.8931 2.02344V13.5H24.1782V2.02344C24.1782 1.39243 23.6667 0.880859 23.0356 0.880859Z" fill="#C4F3FF"/>
<path d="M24.8574 12.7383H23.334V18.832L25.6191 17.3086V13.5C25.6191 13.0795 25.2779 12.7383 24.8574 12.7383Z" fill="#3B88F5"/>
<path d="M24.0957 13.5V20.3555L20.4521 17.3086V13.5C20.4521 13.0795 20.7934 12.7383 21.2139 12.7383H23.334C23.7545 12.7383 24.0957 13.0795 24.0957 13.5Z" fill="#28ABFA"/>
<path d="M24.0957 17.3086L23.334 21.8789H24.8574C25.2779 21.8789 25.6191 21.5377 25.6191 21.1172V17.3086H24.0957Z" fill="#3A6FD8"/>
<path d="M24.0957 17.3086V21.1172C24.0957 21.5377 23.7545 21.8789 23.334 21.8789H21.2139C20.7934 21.8789 20.4521 21.5377 20.4521 21.1172V17.3086H24.0957Z" fill="#3B88F5"/>
<path d="M4.10693 21.1172H1.82178V23.4023L2.96436 24.5957L4.10693 23.4023V21.1172Z" fill="#8AE7FF"/>
<path d="M1.82178 23.4023V24.9766C1.82178 25.6076 2.33335 26.1191 2.96436 26.1191C3.59536 26.1191 4.10693 25.6076 4.10693 24.9766V23.4023H1.82178Z" fill="#C4F3FF"/>
<path d="M2.96436 0.880859C2.33335 0.880859 1.82178 1.39243 1.82178 2.02344V13.5H4.10693V2.02344C4.10693 1.39243 3.59536 0.880859 2.96436 0.880859Z" fill="#C4F3FF"/>
<path d="M4.78613 12.7383H3.2627V18.832L5.54785 17.3086V13.5C5.54785 13.0795 5.2066 12.7383 4.78613 12.7383Z" fill="#3B88F5"/>
<path d="M4.02441 13.5V20.3555L0.380859 17.3086V13.5C0.380859 13.0795 0.722109 12.7383 1.14258 12.7383H3.2627C3.68316 12.7383 4.02441 13.0795 4.02441 13.5Z" fill="#28ABFA"/>
<path d="M4.02441 17.3086L3.2627 21.8789H4.78613C5.2066 21.8789 5.54785 21.5377 5.54785 21.1172V17.3086H4.02441Z" fill="#3A6FD8"/>
<path d="M4.02441 17.3086V21.1172C4.02441 21.5377 3.68316 21.8789 3.2627 21.8789H1.14258C0.722109 21.8789 0.380859 21.5377 0.380859 21.1172V17.3086H4.02441Z" fill="#3B88F5"/>
<path d="M24.8574 12.3574H24.5591V2.02344C24.5591 1.18341 23.8757 0.5 23.0356 0.5C22.1956 0.5 21.5122 1.18341 21.5122 2.02344V12.3574H21.2139C20.5838 12.3574 20.0713 12.87 20.0713 13.5V21.1172C20.0713 21.7472 20.5838 22.2598 21.2139 22.2598H21.5122V24.9766C21.5122 25.8166 22.1956 26.5 23.0356 26.5C23.8757 26.5 24.5591 25.8166 24.5591 24.9766V22.2598H24.8574C25.4875 22.2598 26 21.7472 26 21.1172V13.5C26 12.87 25.4875 12.3574 24.8574 12.3574ZM22.2739 2.02344C22.2739 1.60343 22.6156 1.26172 23.0356 1.26172C23.4557 1.26172 23.7974 1.60343 23.7974 2.02344V12.3574H22.2739V2.02344ZM21.2139 13.1191H24.8574C25.0675 13.1191 25.2383 13.29 25.2383 13.5V16.9277H20.833V13.5C20.833 13.29 21.0038 13.1191 21.2139 13.1191ZM23.7974 24.9766C23.7974 25.3966 23.4557 25.7383 23.0356 25.7383C22.6156 25.7383 22.2739 25.3966 22.2739 24.9766V22.2598H23.7974V24.9766ZM24.8574 21.498H21.2139C21.0038 21.498 20.833 21.3272 20.833 21.1172V17.6895H25.2383V21.1172C25.2383 21.3272 25.0675 21.498 24.8574 21.498Z" fill="black"/>
<path d="M24.0957 18.4512H21.9756C21.7652 18.4512 21.5947 18.6217 21.5947 18.832C21.5947 19.0424 21.7652 19.2129 21.9756 19.2129H24.0957C24.306 19.2129 24.4766 19.0424 24.4766 18.832C24.4766 18.6217 24.306 18.4512 24.0957 18.4512Z" fill="black"/>
<path d="M24.0957 19.9746H21.9756C21.7652 19.9746 21.5947 20.1451 21.5947 20.3555C21.5947 20.5658 21.7652 20.7363 21.9756 20.7363H24.0957C24.306 20.7363 24.4766 20.5658 24.4766 20.3555C24.4766 20.1451 24.306 19.9746 24.0957 19.9746Z" fill="black"/>
<path d="M11.4766 8.54883H11.1782V2.02344C11.1782 1.18341 10.4948 0.5 9.65479 0.5C8.81476 0.5 8.13135 1.18341 8.13135 2.02344V8.54883H7.83301C7.20296 8.54883 6.69043 9.06136 6.69043 9.69141V17.3086C6.69043 17.9386 7.20296 18.4512 7.83301 18.4512H8.13135V24.9766C8.13135 25.8166 8.81476 26.5 9.65479 26.5C10.4948 26.5 11.1782 25.8166 11.1782 24.9766V18.4512H11.4766C12.1066 18.4512 12.6191 17.9386 12.6191 17.3086V9.69141C12.6191 9.06136 12.1066 8.54883 11.4766 8.54883ZM8.89307 2.02344C8.89307 1.60343 9.23477 1.26172 9.65479 1.26172C10.0748 1.26172 10.4165 1.60343 10.4165 2.02344V8.54883H8.89307V2.02344ZM7.83301 9.31055H11.4766C11.6866 9.31055 11.8574 9.48137 11.8574 9.69141V13.1191H7.45215V9.69141C7.45215 9.48137 7.62298 9.31055 7.83301 9.31055ZM10.4165 24.9766C10.4165 25.3966 10.0748 25.7383 9.65479 25.7383C9.23477 25.7383 8.89307 25.3966 8.89307 24.9766V18.4512H10.4165V24.9766ZM11.4766 17.6895H7.83301C7.62298 17.6895 7.45215 17.5186 7.45215 17.3086V13.8809H11.8574V17.3086C11.8574 17.5186 11.6866 17.6895 11.4766 17.6895Z" fill="black"/>
<path d="M10.7148 14.6426H8.59473C8.38439 14.6426 8.21387 14.8131 8.21387 15.0234C8.21387 15.2338 8.38439 15.4043 8.59473 15.4043H10.7148C10.9252 15.4043 11.0957 15.2338 11.0957 15.0234C11.0957 14.8131 10.9252 14.6426 10.7148 14.6426Z" fill="black"/>
<path d="M10.7148 16.166H8.59473C8.38439 16.166 8.21387 16.3365 8.21387 16.5469C8.21387 16.7572 8.38439 16.9277 8.59473 16.9277H10.7148C10.9252 16.9277 11.0957 16.7572 11.0957 16.5469C11.0957 16.3365 10.9252 16.166 10.7148 16.166Z" fill="black"/>
<path d="M18.167 4.74023H17.8687V2.02344C17.8687 1.18341 17.1852 0.5 16.3452 0.5C15.5052 0.5 14.8218 1.18341 14.8218 2.02344V4.74023H14.5234C13.8934 4.74023 13.3809 5.25277 13.3809 5.88281V13.5C13.3809 14.13 13.8934 14.6426 14.5234 14.6426H14.8218V24.9766C14.8218 25.8166 15.5052 26.5 16.3452 26.5C17.1852 26.5 17.8687 25.8166 17.8687 24.9766V14.6426H18.167C18.797 14.6426 19.3096 14.13 19.3096 13.5V5.88281C19.3096 5.25277 18.797 4.74023 18.167 4.74023ZM15.5835 2.02344C15.5835 1.60343 15.9252 1.26172 16.3452 1.26172C16.7652 1.26172 17.1069 1.60343 17.1069 2.02344V4.74023H15.5835V2.02344ZM14.5234 5.50195H18.167C18.377 5.50195 18.5479 5.67278 18.5479 5.88281V9.31055H14.1426V5.88281C14.1426 5.67278 14.3134 5.50195 14.5234 5.50195ZM17.1069 24.9766C17.1069 25.3966 16.7652 25.7383 16.3452 25.7383C15.9252 25.7383 15.5835 25.3966 15.5835 24.9766V14.6426H17.1069V24.9766ZM18.167 13.8809H14.5234C14.3134 13.8809 14.1426 13.71 14.1426 13.5V10.0723H18.5479V13.5C18.5479 13.71 18.377 13.8809 18.167 13.8809Z" fill="black"/>
<path d="M17.4053 10.834H15.2852C15.0748 10.834 14.9043 11.0045 14.9043 11.2148C14.9043 11.4252 15.0748 11.5957 15.2852 11.5957H17.4053C17.6156 11.5957 17.7861 11.4252 17.7861 11.2148C17.7861 11.0045 17.6156 10.834 17.4053 10.834Z" fill="black"/>
<path d="M17.4053 12.3574H15.2852C15.0748 12.3574 14.9043 12.5279 14.9043 12.7383C14.9043 12.9486 15.0748 13.1191 15.2852 13.1191H17.4053C17.6156 13.1191 17.7861 12.9486 17.7861 12.7383C17.7861 12.5279 17.6156 12.3574 17.4053 12.3574Z" fill="black"/>
<path d="M4.78613 12.3574H4.48779V2.02344C4.48779 1.18341 3.80438 0.5 2.96436 0.5C2.12433 0.5 1.44092 1.18341 1.44092 2.02344V6.61914C1.44092 6.82948 1.61144 7 1.82178 7C2.03211 7 2.20264 6.82948 2.20264 6.61914V2.02344C2.20264 1.60343 2.54434 1.26172 2.96436 1.26172C3.38437 1.26172 3.72607 1.60343 3.72607 2.02344V12.3574H2.20264V8.14258C2.20264 7.93224 2.03211 7.76172 1.82178 7.76172C1.61144 7.76172 1.44092 7.93224 1.44092 8.14258V12.3574H1.14258C0.512535 12.3574 0 12.87 0 13.5V21.1172C0 21.7472 0.512535 22.2598 1.14258 22.2598H1.44092V24.9766C1.44092 25.8166 2.12433 26.5 2.96436 26.5C3.80438 26.5 4.48779 25.8166 4.48779 24.9766V22.2598H4.78613C5.41618 22.2598 5.92871 21.7472 5.92871 21.1172V13.5C5.92871 12.87 5.41618 12.3574 4.78613 12.3574ZM1.14258 13.1191H4.78613C4.99616 13.1191 5.16699 13.29 5.16699 13.5V16.9277H0.761719V13.5C0.761719 13.29 0.932547 13.1191 1.14258 13.1191ZM3.72607 24.9766C3.72607 25.3966 3.38437 25.7383 2.96436 25.7383C2.54434 25.7383 2.20264 25.3966 2.20264 24.9766V22.2598H3.72607V24.9766ZM4.78613 21.498H1.14258C0.932547 21.498 0.761719 21.3272 0.761719 21.1172V17.6895H5.16699V21.1172C5.16699 21.3272 4.99616 21.498 4.78613 21.498Z" fill="black"/>
<path d="M4.02441 19.9746H1.9043C1.69396 19.9746 1.52344 20.1451 1.52344 20.3555C1.52344 20.5658 1.69396 20.7363 1.9043 20.7363H4.02441C4.23475 20.7363 4.40527 20.5658 4.40527 20.3555C4.40527 20.1451 4.23475 19.9746 4.02441 19.9746Z" fill="black"/>
<path d="M4.02441 18.4512H1.9043C1.69396 18.4512 1.52344 18.6217 1.52344 18.832C1.52344 19.0424 1.69396 19.2129 1.9043 19.2129H4.02441C4.23475 19.2129 4.40527 19.0424 4.40527 18.832C4.40527 18.6217 4.23475 18.4512 4.02441 18.4512Z" fill="black"/>
</g>
<defs>
<clipPath id="clip0_85_466">
<rect width="26" height="26" fill="white" transform="translate(0 0.5)"/>
</clipPath>
</defs>
</svg>
