<svg width="16" height="16" viewBox="0 0 16 16" fill="none" xmlns="http://www.w3.org/2000/svg">
<g clip-path="url(#clip0_88_842)">
<path d="M0.703125 0.234375C0.44425 0.234375 0.234375 0.44425 0.234375 0.703125V15.2969C0.234375 15.5558 0.44425 15.7656 0.703125 15.7656C0.962 15.7656 1.17188 15.5558 1.17188 15.2969V0.703125C1.17188 0.44425 0.962 0.234375 0.703125 0.234375Z" fill="#FFD06A"/>
<path d="M15.7656 4.21875H14.8281L11.0781 8.46875L14.8281 12.7188H15.7656L13.8906 8.46875L15.7656 4.21875Z" fill="#FF3E3A"/>
<path d="M14.8281 4.21875H7.76562V12.7188H14.8281L12.9531 8.46875L14.8281 4.21875Z" fill="#FF5D34"/>
<path d="M7.76562 1.40625H6.82812L8.23438 10.8438L9.17188 11.3125V2.8125C9.17188 2.03906 8.53906 1.40625 7.76562 1.40625Z" fill="#FF3E3A"/>
<path d="M6.82812 1.40625H1.17188C3.67188 3.75347 3.67188 7.55903 1.17188 9.90625H6.35938L8.23438 10.8438V2.8125C8.23438 2.03906 7.60156 1.40625 6.82812 1.40625Z" fill="#FF5D34"/>
<path d="M8.23438 9.98657L7.76562 12.7187C8.54228 12.7187 9.17188 12.0891 9.17188 11.3125C9.17188 10.7002 8.7805 10.1797 8.23438 9.98657Z" fill="#CC3245"/>
<path d="M8.23438 11.3125V9.98659C8.08772 9.93475 7.93003 9.90625 7.76562 9.90625H6.35938V11.3125C6.35938 12.0892 6.98897 12.7188 7.76562 12.7188C8.0245 12.7188 8.23438 12.0892 8.23438 11.3125Z" fill="#FF3E3A"/>
<path d="M14.1468 8.46875L15.9801 4.31334C16.012 4.24087 16.0052 4.15713 15.962 4.09075C15.9187 4.02438 15.8448 3.98438 15.7656 3.98438H10.1094C9.97991 3.98438 9.875 4.08928 9.875 4.21875C9.875 4.34822 9.97991 4.45312 10.1094 4.45312H15.4061L13.6762 8.37416C13.6496 8.43444 13.6496 8.50309 13.6762 8.56338L15.4061 12.4844H8.91225C9.21678 12.1863 9.40625 11.7712 9.40625 11.3125V2.8125C9.40625 1.90788 8.67025 1.17188 7.76562 1.17188H1.40625V0.703125C1.40625 0.315437 1.09081 0 0.703125 0C0.315437 0 0 0.315437 0 0.703125V15.2969C0 15.6846 0.315437 16 0.703125 16C1.09081 16 1.40625 15.6846 1.40625 15.2969V10.1406H6.125V11.3125C6.125 12.2171 6.861 12.9531 7.76562 12.9531H15.7656C15.8448 12.9531 15.9187 12.9131 15.962 12.8468C16.0052 12.7804 16.012 12.6966 15.9801 12.6242L14.1468 8.46875ZM0.9375 15.2969C0.9375 15.4261 0.832375 15.5312 0.703125 15.5312C0.573875 15.5312 0.46875 15.4261 0.46875 15.2969V0.703125C0.46875 0.573875 0.573875 0.46875 0.703125 0.46875C0.832375 0.46875 0.9375 0.573875 0.9375 0.703125V15.2969ZM1.40625 1.98441C2.31684 3.01634 2.8125 4.30084 2.8125 5.65625C2.8125 7.01166 2.31684 8.29616 1.40625 9.32809V1.98441ZM1.72825 9.67188C2.73372 8.54878 3.28125 7.14244 3.28125 5.65625C3.28125 4.17006 2.73372 2.76372 1.72825 1.64062H7.76562C8.41181 1.64062 8.9375 2.16631 8.9375 2.8125V10.1654C8.6395 9.86103 8.22425 9.67188 7.76562 9.67188H1.72825ZM6.59375 11.3125V10.1406H7.76562C8.41181 10.1406 8.9375 10.6663 8.9375 11.3125C8.9375 11.9587 8.41181 12.4844 7.76562 12.4844C7.11944 12.4844 6.59375 11.9587 6.59375 11.3125Z" fill="black"/>
</g>
<defs>
<clipPath id="clip0_88_842">
<rect width="16" height="16" fill="white"/>
</clipPath>
</defs>
</svg>
