<svg width="37" height="33" viewBox="0 0 37 33" fill="none" xmlns="http://www.w3.org/2000/svg">
<g clip-path="url(#clip0_173_1221)">
<path d="M2.79725 28.2827L4.42898 31.0962C4.76804 31.6885 5.25544 32.1539 5.82761 32.4923L11.6552 22.4231H0C0 23.0788 0.16953 23.7346 0.508591 24.3269L2.79725 28.2827Z" fill="#0066DA"/>
<path d="M18.5 10.5769L12.6724 0.50769C12.1002 0.846152 11.6128 1.31154 11.2738 1.90384L0.508591 20.5192C0.175766 21.0988 0.000443137 21.7551 0 22.4231H11.6552L18.5 10.5769Z" fill="#00AC47"/>
<path d="M31.1724 32.4923C31.7446 32.1539 32.232 31.6885 32.5711 31.0962L33.2492 29.9327L36.4915 24.3269C36.8305 23.7346 37.0001 23.0788 37.0001 22.4231H25.344L27.8242 27.2885L31.1724 32.4923Z" fill="#EA4335"/>
<path d="M18.5 10.5769L24.3276 0.507692C23.7554 0.169231 23.0985 0 22.4204 0H14.5796C13.9015 0 13.2445 0.190385 12.6724 0.507692L18.5 10.5769Z" fill="#00832D"/>
<path d="M25.3448 22.4231H11.6552L5.82764 32.4923C6.3998 32.8308 7.05673 33 7.73485 33H29.2652C29.9433 33 30.6003 32.8096 31.1724 32.4923L25.3448 22.4231Z" fill="#2684FC"/>
<path d="M31.1088 11.2115L25.7262 1.90384C25.3872 1.31154 24.8998 0.846152 24.3276 0.50769L18.5 10.5769L25.3448 22.4231H36.9788C36.9788 21.7673 36.8093 21.1115 36.4702 20.5192L31.1088 11.2115Z" fill="#FFBA00"/>
</g>
<defs>
<clipPath id="clip0_173_1221">
<rect width="37" height="33" fill="white"/>
</clipPath>
</defs>
</svg>
