<svg width="40" height="40" viewBox="0 0 40 40" fill="none" xmlns="http://www.w3.org/2000/svg">
<g clip-path="url(#clip0_88_633)">
<path d="M39.0667 19.1689L20.8288 0.93097C20.6124 0.714586 20.3328 0.600536 20.0492 0.5896L35.8968 21.1695H38.2379C39.2816 21.1695 39.805 19.9071 39.0667 19.1689Z" fill="#6241EA"/>
<path d="M36.7232 19.1687C36.9451 19.4218 37.0466 19.7202 37.0466 20.0077C37.0466 20.6108 36.6022 21.1678 35.8968 21.1693V39.4119H25.2989V23.398H14.7011V39.4119H4.10325V21.1693H1.76209C0.718449 21.1693 0.195067 19.9069 0.93327 19.1687L19.1712 0.930823C19.4001 0.701941 19.7 0.587891 20 0.587891C20.0164 0.587891 20.0328 0.588672 20.0492 0.589453C20.2804 0.601952 20.5078 0.70116 20.6906 0.889421L36.7232 19.1687Z" fill="#725FEE"/>
<path d="M39.4808 18.7546L21.2428 0.516557C20.5576 -0.168605 19.4425 -0.168605 18.7572 0.516557L0.51916 18.7546C0.0069489 19.2668 -0.138973 20.0008 0.138263 20.67C0.4155 21.3392 1.0377 21.7549 1.762 21.7549H3.51736V29.1186C3.51736 29.4422 3.7796 29.7045 4.10324 29.7045C4.42687 29.7045 4.68911 29.4422 4.68911 29.1186V21.1691C4.68911 20.8455 4.42687 20.5832 4.10324 20.5832H1.762C1.39883 20.5832 1.25588 20.3064 1.22073 20.2216C1.18565 20.1368 1.0909 19.84 1.34774 19.5831L19.5857 1.34522C19.8142 1.11681 20.186 1.11688 20.4142 1.34522L38.6522 19.5831C38.909 19.84 38.8143 20.1368 38.7792 20.2216C38.744 20.3064 38.6012 20.5832 38.2379 20.5832H35.8967C35.573 20.5832 35.3108 20.8455 35.3108 21.1691V38.8259H25.8848V23.3978C25.8848 23.0743 25.6225 22.8119 25.2989 22.8119H14.7011C14.3775 22.8119 14.1152 23.0743 14.1152 23.3978V38.8259H4.68911V31.4621C4.68911 31.1386 4.42687 30.8762 4.10324 30.8762C3.7796 30.8762 3.51736 31.1386 3.51736 31.4621V39.4118C3.51736 39.7353 3.7796 39.9976 4.10324 39.9976H14.7011C15.0247 39.9976 15.287 39.7353 15.287 39.4118V23.9837H24.713V39.4118C24.713 39.7353 24.9752 39.9976 25.2989 39.9976H35.8968C36.2204 39.9976 36.4826 39.7353 36.4826 39.4118V21.7549H38.238C38.9623 21.7549 39.5845 21.3392 39.8617 20.67C40.139 20.0008 39.993 19.2668 39.4808 18.7546Z" fill="black"/>
</g>
<defs>
<clipPath id="clip0_88_633">
<rect width="40" height="40" fill="white"/>
</clipPath>
</defs>
</svg>
