<svg width="16" height="14" viewBox="0 0 16 14" fill="none" xmlns="http://www.w3.org/2000/svg">
<path d="M15.3007 0.810547H0.686286C0.375377 0.810547 0.124191 1.06173 0.124191 1.37264V12.6145C0.124191 12.9254 0.375377 13.1766 0.686286 13.1766H15.3007C15.6116 13.1766 15.8628 12.9254 15.8628 12.6145V1.37264C15.8628 1.06173 15.6116 0.810547 15.3007 0.810547ZM13.8814 2.72342L8.33955 7.03574C8.20254 7.14289 8.01108 7.14289 7.87407 7.03574L2.33041 2.72342C2.30951 2.7073 2.29419 2.68503 2.28658 2.65976C2.27897 2.63448 2.27946 2.60746 2.28798 2.58247C2.2965 2.55749 2.31263 2.5358 2.3341 2.52044C2.35557 2.50508 2.3813 2.49683 2.4077 2.49683H13.8042C13.8306 2.49683 13.8563 2.50508 13.8778 2.52044C13.8992 2.5358 13.9154 2.55749 13.9239 2.58247C13.9324 2.60746 13.9329 2.63448 13.9253 2.65976C13.9177 2.68503 13.9023 2.7073 13.8814 2.72342V2.72342Z" fill="#9D91F4"/>
</svg>
