<svg width="33" height="33" viewBox="0 0 33 33" fill="none" xmlns="http://www.w3.org/2000/svg">
<path d="M14.8107 9.60836V15.1823H3.60205V9.60836C3.60205 6.51338 6.1114 4.00403 9.20638 4.00403C10.7538 4.00403 12.1548 4.63154 13.1693 5.64539C14.1832 6.65995 14.8107 8.06084 14.8107 9.60836Z" fill="#6B7F9E"/>
<path d="M14.8107 9.60836V10.9498C14.8107 9.40236 14.1832 8.00141 13.1693 6.98685C12.1548 5.97301 10.7539 5.34549 9.20638 5.34549C6.1114 5.34549 3.60205 7.85484 3.60205 10.9498V9.60836C3.60205 6.51338 6.1114 4.00403 9.20638 4.00403C10.7538 4.00403 12.1548 4.63154 13.1693 5.64539C14.1832 6.65995 14.8107 8.06084 14.8107 9.60836Z" fill="#798DAA"/>
<path d="M14.8107 13.578V15.1822H3.60205V13.472C3.856 13.3281 4.11677 13.1937 4.38155 13.0708C5.81963 12.4 7.42315 12.0265 9.11453 12.0265C10.8059 12.0265 12.4094 12.4007 13.8482 13.0708C13.9697 13.1282 14.0913 13.187 14.2116 13.2484C14.4149 13.3524 14.6148 13.4625 14.8107 13.578Z" fill="#586C89"/>
<path d="M32.5166 21.9538H15.2539C15.2539 18.7737 16.9736 15.9948 19.5337 14.4973C19.5667 14.4777 19.6006 14.4588 19.6336 14.4399C20.8879 13.7279 22.3389 13.322 23.885 13.322C25.0725 13.322 26.2032 13.5611 27.2326 13.9954C27.4271 14.0772 27.6183 14.1656 27.8054 14.2616C30.6017 15.6895 32.5166 18.5981 32.5166 21.9538Z" fill="#00DDC0"/>
<path d="M27.2324 13.9955C26.8278 15.2207 25.1918 16.1205 23.2606 16.1205C21.6044 16.1205 20.1657 15.4586 19.5334 14.4974C19.5665 14.4778 19.6003 14.4589 19.6334 14.44C20.8877 13.728 22.3386 13.3221 23.8848 13.3221C25.0722 13.322 26.203 13.5611 27.2324 13.9955Z" fill="#00CDB3"/>
<path d="M26.611 9.14076L26.5225 9.95674L26.3888 11.1874L26.2186 12.7572C26.0909 13.9325 24.8048 14.8369 23.2607 14.8369C21.7166 14.8369 20.4305 13.9325 20.3029 12.7572L20.1219 11.0854L19.9868 9.84117C19.9861 9.84117 19.9861 9.84117 19.9861 9.84117L19.9105 9.14069C19.7673 7.81947 21.1324 6.68671 22.8683 6.68671H23.6532C25.3891 6.68677 26.7542 7.81953 26.611 9.14076Z" fill="#FFDAA7"/>
<path d="M26.611 9.14076L26.5225 9.95673L26.3888 11.1874C24.1077 10.7598 22.6474 9.40624 22.6474 9.40624L20.1219 11.0854L19.9868 9.84123C19.9861 9.84123 19.9861 9.84123 19.9861 9.84123L19.9105 9.14076C19.7673 7.81953 21.1324 6.68677 22.8683 6.68677H23.6532C25.3891 6.68677 26.7542 7.81953 26.611 9.14076Z" fill="#F9C587"/>
<path d="M19.28 10.2262L22.6472 7.98761C22.6472 7.98761 24.606 9.83645 27.3416 10.2262C27.3416 10.2262 29.3786 4.00415 23.2604 4.00415C17.1421 4.00415 19.28 10.2262 19.28 10.2262Z" fill="#6B7F9E"/>
<path d="M27.6102 8.93809C27.517 9.69258 27.342 10.2262 27.342 10.2262C24.6063 9.83644 22.6475 7.98773 22.6475 7.98773L19.2804 10.2262C19.2804 10.2262 19.0635 9.59596 18.9656 8.7361L22.7887 6.51111C22.7887 6.51111 24.6414 8.39907 27.6102 8.93809Z" fill="#586C89"/>
<path d="M27.6377 8.68211C27.4695 7.02792 26.5279 5.25346 23.2607 5.25346C20.0617 5.25346 19.1194 6.95425 18.9485 8.57744C18.7777 6.73408 19.2079 4.00391 23.2607 4.00391C27.3912 4.00384 27.8046 6.83946 27.6377 8.68211Z" fill="#798DAA"/>
<path d="M17.7461 21.9538H0.483398C0.483398 18.7325 2.24774 15.9232 4.86312 14.44C5.06241 14.3272 5.2664 14.2218 5.47439 14.1252C6.58015 13.6091 7.81352 13.322 9.11444 13.322C10.4154 13.322 11.6488 13.6097 12.7552 14.1252C12.8491 14.1691 12.9423 14.2143 13.0349 14.2616C15.8312 15.6895 17.7461 18.5981 17.7461 21.9538Z" fill="#FF3C63"/>
<path d="M12.7552 14.1252C11.9203 15.4592 10.6005 16.3204 9.11513 16.3204C7.62981 16.3204 6.30994 15.4592 5.47437 14.1252C6.58012 13.6091 7.8135 13.322 9.11442 13.322C10.4153 13.322 11.6487 13.6098 12.7552 14.1252Z" fill="#EA2F5C"/>
<path d="M25.0484 28.9961H7.78564C7.78564 25.7748 9.54992 22.9656 12.1654 21.4823C13.4197 20.7704 14.8706 20.3644 16.4168 20.3644C17.8285 20.3644 19.1605 20.7028 20.3371 21.304C23.1335 22.7319 25.0484 25.6404 25.0484 28.9961Z" fill="#E0E0E3"/>
<path d="M20.337 21.304L20.333 21.3438C20.1567 22.971 18.3768 24.2226 16.2397 24.2226C14.1633 24.2226 12.4247 23.0412 12.1653 21.4823C13.4196 20.7703 14.8705 20.3644 16.4167 20.3644C17.8284 20.3644 19.1604 20.7028 20.337 21.304Z" fill="#D1D1D1"/>
<path d="M19.7671 16.9614L19.6786 17.7774L19.3746 20.5779C19.247 21.7532 17.9609 22.6577 16.4168 22.6577C14.8726 22.6577 13.5865 21.7532 13.4589 20.5779L13.1428 17.6619C13.1421 17.6619 13.1421 17.6619 13.1421 17.6619L13.0665 16.9614C12.9233 15.6402 14.2884 14.5075 16.0243 14.5075H16.8093C18.5452 14.5074 19.9103 15.6402 19.7671 16.9614Z" fill="#FFDAA7"/>
<path d="M19.7671 16.9614L19.6786 17.7774C17.1558 18.3704 14.8409 18.1753 13.7264 17.9327C13.5116 17.8861 13.3137 17.7922 13.1428 17.6619C13.1421 17.6619 13.1421 17.6619 13.1421 17.6619L13.0665 16.9614C12.9233 15.6402 14.2884 14.5075 16.0243 14.5075H16.8093C18.5452 14.5074 19.9103 15.6402 19.7671 16.9614Z" fill="#F9C587"/>
<path d="M21.5444 12.502C21.5397 12.5195 21.5335 12.5364 21.5275 12.554C20.9696 14.0819 20.1401 15.0201 20.1401 15.0201L20.9452 15.7401C21.1391 15.9131 21.083 16.2434 20.8459 16.3224C17.8907 17.3025 15.0113 17.0864 13.7265 16.8067C13.0382 16.6574 12.5276 16.0212 12.5006 15.2748C12.4736 14.5135 12.6046 13.8631 12.8471 13.3221C13.609 11.6132 15.4746 10.9856 16.9545 11.3504C18.1798 11.6523 19.5963 11.5145 20.6027 11.3355C21.2262 11.2254 21.7348 11.8738 21.5444 12.502Z" fill="#6B7F9E"/>
<path d="M21.5445 12.502C20.4252 12.9241 18.6454 13.3733 17.0411 12.8073C14.4568 11.8954 12.8472 13.322 12.8472 13.322C13.6091 11.6131 15.4747 10.9856 16.9546 11.3503C18.18 11.6523 19.5964 11.5145 20.6028 11.3354C21.2263 11.2254 21.7349 11.8738 21.5445 12.502Z" fill="#798DAA"/>
<path d="M20.8459 16.3224C17.8908 17.3025 15.0113 17.0864 13.7266 16.8067C13.0383 16.6574 12.5276 16.0212 12.5006 15.2748C12.4878 14.9202 12.5101 14.5892 12.5614 14.2825C12.7181 14.8506 13.1626 15.2998 13.7266 15.4221C14.9248 15.6828 17.5112 15.8888 20.2516 15.1195L20.9453 15.7402C21.1391 15.9131 21.083 16.2434 20.8459 16.3224Z" fill="#586C89"/>
<path d="M12.2528 10.9343C12.2528 13.0438 10.8485 14.7533 9.11527 14.7533C7.38206 14.7533 5.97705 13.0437 5.97705 10.9343C5.97705 10.5027 6.03583 10.0873 6.14456 9.70021H9.76367L10.5344 7.91022L11.5537 9.70021H12.0853C12.1941 10.0873 12.2528 10.5027 12.2528 10.9343Z" fill="#FFDAA7"/>
<path d="M12.2527 10.9343H5.97705C5.97705 10.5027 6.03583 10.0873 6.14456 9.70021H9.76367L10.5344 7.91022L11.5537 9.70021H12.0853C12.194 10.0873 12.2527 10.5027 12.2527 10.9343Z" fill="#F9C587"/>
<path d="M1.53003 23.9441C1.26306 23.9441 1.04663 24.1605 1.04663 24.4275V24.9329C1.04663 25.1999 1.26306 25.4163 1.53003 25.4163C1.79699 25.4163 2.01343 25.1999 2.01343 24.9329V24.4275C2.01343 24.1605 1.79699 23.9441 1.53003 23.9441Z" fill="black"/>
<path d="M3.49561 23.9441C3.22864 23.9441 3.01221 24.1605 3.01221 24.4275V24.9329C3.01221 25.1999 3.22864 25.4163 3.49561 25.4163C3.76257 25.4163 3.979 25.1999 3.979 24.9329V24.4275C3.979 24.1605 3.76257 23.9441 3.49561 23.9441Z" fill="black"/>
<path d="M5.46143 23.9441C5.19446 23.9441 4.97803 24.1605 4.97803 24.4275V24.9329C4.97803 25.1999 5.19446 25.4163 5.46143 25.4163C5.72839 25.4163 5.94482 25.1999 5.94482 24.9329V24.4275C5.94482 24.1605 5.72839 23.9441 5.46143 23.9441Z" fill="black"/>
<path d="M27.3801 23.9441C27.1132 23.9441 26.8967 24.1605 26.8967 24.4275V24.9329C26.8967 25.1999 27.1132 25.4163 27.3801 25.4163C27.6471 25.4163 27.8635 25.1999 27.8635 24.9329V24.4275C27.8635 24.1605 27.6471 23.9441 27.3801 23.9441Z" fill="black"/>
<path d="M29.3457 23.9441C29.0787 23.9441 28.8623 24.1605 28.8623 24.4275V24.9329C28.8623 25.1999 29.0787 25.4163 29.3457 25.4163C29.6127 25.4163 29.8291 25.1999 29.8291 24.9329V24.4275C29.8291 24.1605 29.6127 23.9441 29.3457 23.9441Z" fill="black"/>
<path d="M31.3113 23.9441C31.0443 23.9441 30.8279 24.1605 30.8279 24.4275V24.9329C30.8279 25.1999 31.0443 25.4163 31.3113 25.4163C31.5782 25.4163 31.7947 25.1999 31.7947 24.9329V24.4275C31.7947 24.1605 31.5782 23.9441 31.3113 23.9441Z" fill="black"/>
<path d="M31.2009 16.5156C31.0414 16.3014 30.7386 16.257 30.5244 16.4164C30.3102 16.5758 30.2659 16.8787 30.4253 17.0929C31.3808 18.3764 31.9271 19.8808 32.0192 21.47H30.2508V20.5238C30.2508 20.2569 30.0344 20.0404 29.7674 20.0404C29.5005 20.0404 29.284 20.2569 29.284 20.5238V21.47H21.5574C21.0325 21.1104 20.4661 20.8026 19.8632 20.5563L20.2477 17.014C20.248 17.011 20.2481 17.008 20.2485 17.0051C20.4984 16.9377 20.7486 16.8639 20.9981 16.7811C21.2704 16.6908 21.4685 16.4652 21.5282 16.1776C21.5892 15.8837 21.4893 15.578 21.2677 15.3798L20.7989 14.9607C20.8617 14.8739 20.9322 14.7722 21.0075 14.6577C21.6278 15.083 22.4211 15.3205 23.2605 15.3205C24.4225 15.3205 25.4823 14.8664 26.1186 14.1163C27.261 14.4418 28.3322 15.0216 29.2324 15.8055C29.324 15.8853 29.4371 15.9244 29.5497 15.9244C29.6846 15.9244 29.8189 15.8682 29.9144 15.7585C30.0897 15.5571 30.0687 15.2518 29.8674 15.0764C28.9186 14.2502 27.8 13.6264 26.6045 13.2522C26.6503 13.1078 26.6824 12.9601 26.6989 12.8093L26.9333 10.6481C27.0455 10.669 27.1587 10.6883 27.2736 10.7047C27.2966 10.708 27.3194 10.7096 27.3421 10.7096C27.5484 10.7096 27.7355 10.5774 27.8012 10.3766C27.843 10.249 28.8073 7.22882 27.3451 5.21157C26.5319 4.08963 25.1577 3.52077 23.2606 3.52077C21.3671 3.52077 20.0023 4.0877 19.2042 5.2059C17.7626 7.2256 18.779 10.2553 18.823 10.3834C18.8716 10.525 18.9832 10.6361 19.125 10.6842C19.2668 10.7322 19.423 10.7118 19.5477 10.6289L19.5832 10.6053L19.6245 10.9862C18.8202 11.0706 17.8931 11.0835 17.0701 10.8807C16.4914 10.7382 15.8807 10.7335 15.2941 10.8509V9.60869C15.2941 7.98247 14.6608 6.45358 13.511 5.30374C12.3617 4.15376 10.833 3.52045 9.20648 3.52045C7.58755 3.52045 6.06362 4.1488 4.91545 5.28969C4.72609 5.47782 4.72506 5.78391 4.91326 5.97328C5.10153 6.1627 5.40762 6.16367 5.59685 5.97547C6.56275 5.01576 7.84465 4.48724 9.20648 4.48724C10.5747 4.48724 11.8605 5.01995 12.8273 5.98726C13.7946 6.95457 14.3273 8.24067 14.3273 9.60869V11.1677C14.0354 11.3049 13.7598 11.4754 13.5099 11.6785C12.953 12.1309 12.5433 12.7218 12.2946 13.4107C12.2342 13.3882 12.174 13.3653 12.1132 13.3441C12.5062 12.6562 12.7361 11.8265 12.7361 10.9342C12.7361 10.6809 12.7171 10.4301 12.6806 10.1835H13.4449C13.7119 10.1835 13.9283 9.96711 13.9283 9.70015C13.9283 9.43318 13.7119 9.21675 13.4449 9.21675H11.8346L10.9545 7.67103C10.8638 7.51164 10.6908 7.41728 10.5076 7.4276C10.3246 7.43778 10.163 7.55064 10.0904 7.71905L9.44548 9.21681H4.96785C4.70089 9.21681 4.48446 9.43325 4.48446 9.70021C4.48446 9.96718 4.70089 10.1836 4.96785 10.1836H5.54896C5.51255 10.4301 5.4936 10.6809 5.4936 10.9343C5.4936 11.8263 5.72337 12.6556 6.11615 13.3436C5.39866 13.5925 4.71939 13.9297 4.08504 14.351V9.60869C4.08504 8.78163 4.27595 7.99253 4.65248 7.2633C4.77495 7.02612 4.682 6.73447 4.44475 6.61201C4.20756 6.48948 3.91591 6.58249 3.79345 6.81974C3.35169 7.67522 3.11824 8.63964 3.11824 9.60869V15.0893C1.13128 16.8236 0 19.3004 0 21.9534C0 22.2204 0.216434 22.4368 0.483398 22.4368H10.0899C8.34836 24.1215 7.30196 26.4741 7.30196 28.9962C7.30196 29.2632 7.51839 29.4796 7.78536 29.4796H12.4969C12.7638 29.4796 12.9803 29.2632 12.9803 28.9962C12.9803 28.7292 12.7638 28.5128 12.4969 28.5128H11.0179V27.5662C11.0179 27.2992 10.8014 27.0828 10.5345 27.0828C10.2675 27.0828 10.0511 27.2992 10.0511 27.5662V28.5128H8.28313C8.46689 25.4254 10.4001 22.6909 13.2489 21.4882C13.7834 22.4822 15.008 23.1412 16.417 23.1412C17.8264 23.1412 19.0514 22.4818 19.5853 21.4882C22.4339 22.691 24.3671 25.4254 24.5508 28.5127H22.783V27.5661C22.783 27.2991 22.5665 27.0827 22.2996 27.0827C22.0326 27.0827 21.8162 27.2991 21.8162 27.5661V28.5127H14.337C14.07 28.5127 13.8536 28.7292 13.8536 28.9961C13.8536 29.2631 14.07 29.4795 14.337 29.4795H25.0484C25.3154 29.4795 25.5318 29.2631 25.5318 28.9961C25.5318 26.474 24.4854 24.1214 22.7438 22.4367H32.5166C32.7836 22.4367 33 22.2203 33 21.9533C33 19.9771 32.3779 18.0967 31.2009 16.5156ZM19.9928 5.76496C20.5994 4.91734 21.6988 4.48757 23.2605 4.48757C24.8286 4.48757 25.9388 4.92114 26.5603 5.77631C27.4602 7.01458 27.1745 8.866 26.9884 9.6743C24.6634 9.19632 22.9962 7.65215 22.979 7.6361C22.8867 7.5489 22.7673 7.50423 22.6471 7.50423C22.5544 7.50423 22.4611 7.53085 22.3796 7.58505L19.7083 9.361C19.7058 9.36267 19.7032 9.36428 19.7007 9.36602L19.5743 9.45007C19.3813 8.55965 19.1802 6.90069 19.9928 5.76496ZM22.6095 8.59317C23.1431 9.02848 24.3621 9.91259 25.9862 10.4137L25.7377 12.7047C25.7149 12.9131 25.6418 13.1153 25.5212 13.3046C25.1128 13.9419 24.2254 14.3537 23.2605 14.3537C22.5985 14.3537 21.9629 14.1574 21.4975 13.8194C21.6647 13.4965 21.8321 13.1287 21.9814 12.7199C22.156 12.2418 22.0615 11.703 21.7348 11.3138C21.4427 10.9657 21.0157 10.7959 20.5822 10.8506L20.4902 10.0022L22.6095 8.59317ZM14.1196 12.4288C14.6753 11.9773 15.396 11.7325 16.1132 11.7325C16.3577 11.7325 16.6018 11.761 16.8388 11.8194C17.9628 12.0963 19.2209 12.0277 20.2052 11.8883C20.2063 11.8882 20.2074 11.8883 20.2085 11.8881C20.213 11.8876 20.2173 11.8866 20.2218 11.886C20.385 11.8627 20.5414 11.8377 20.6874 11.8118C20.8412 11.7844 20.9457 11.8774 20.9943 11.9353C21.0766 12.0334 21.1406 12.2039 21.0732 12.3884C20.5569 13.8026 19.785 14.6917 19.7778 14.6999C19.6016 14.8991 19.6195 15.2033 19.8177 15.3805L20.4466 15.9428C20.1894 16.0224 19.935 16.0925 19.684 16.1543C19.6663 16.1575 19.6491 16.1618 19.6322 16.1669C16.6164 16.896 14.131 16.4002 13.8291 16.3346C13.3579 16.2322 13.0025 15.7793 12.984 15.2577C12.9694 14.8465 13.0054 14.4846 13.0759 14.166C13.0768 14.162 13.0777 14.158 13.0785 14.1541C13.2721 13.2933 13.7206 12.753 14.1196 12.4288ZM9.76362 10.1836C9.95672 10.1836 10.1313 10.0688 10.2076 9.89138L10.5945 8.99284L11.1335 9.9394C11.2195 10.0903 11.3798 10.1836 11.5536 10.1836H11.701C11.7461 10.4283 11.7693 10.6794 11.7693 10.9343C11.7693 11.8498 11.4742 12.6801 10.9974 13.2835C10.9842 13.2976 10.972 13.3128 10.9605 13.3285C10.4825 13.9106 9.83181 14.27 9.11522 14.27C8.3974 14.27 7.74565 13.9096 7.26735 13.326C7.25729 13.3126 7.24672 13.2996 7.23538 13.2873C6.75675 12.6836 6.46039 11.8517 6.46039 10.9343C6.46039 10.6794 6.48366 10.4283 6.52871 10.1836H9.76362ZM4.06151 15.561C4.86254 14.927 5.7574 14.4576 6.72459 14.1622C7.36293 14.8302 8.19966 15.2367 9.11522 15.2367C10.0308 15.2367 10.8674 14.8301 11.5057 14.1619C11.6942 14.2198 11.8807 14.2853 12.0647 14.3569C12.0234 14.657 12.0064 14.969 12.0179 15.2919C12.0367 15.8242 12.2436 16.3097 12.5762 16.6729C12.5711 16.7862 12.5738 16.9 12.586 17.0136L12.9705 20.5563C12.3677 20.8026 11.8012 21.1104 11.2763 21.47H3.71572V20.5238C3.71572 20.2569 3.49929 20.0404 3.23232 20.0404C2.96536 20.0404 2.74893 20.2569 2.74893 20.5238V21.47H0.980848C1.11613 19.1502 2.22189 17.0176 4.06151 15.561ZM16.4169 22.1745C15.2372 22.1745 14.2124 21.5691 13.9797 20.7332C13.9605 20.6653 13.9471 20.596 13.9397 20.5258L13.5863 17.2703C13.5988 17.2733 13.6113 17.2766 13.6238 17.2793C14.304 17.4271 15.2043 17.5278 16.2274 17.5278C17.1584 17.5278 18.1911 17.4436 19.2511 17.2364L18.8939 20.5274C18.8866 20.596 18.8732 20.6654 18.8535 20.7352C18.6213 21.5691 17.5965 22.1745 16.4169 22.1745Z" fill="black"/>
</svg>
