<svg width="18" height="18" viewBox="0 0 18 18" fill="none" xmlns="http://www.w3.org/2000/svg">
<circle cx="9" cy="9" r="9" fill="#FF0000"/>
<path fill-rule="evenodd" clip-rule="evenodd" d="M6.09743 5.18829C5.84637 4.93724 5.43934 4.93724 5.18829 5.18829C4.93724 5.43934 4.93724 5.84637 5.18829 6.09743L8.59087 9.50001L5.18829 12.9026C4.93724 13.1536 4.93724 13.5607 5.18829 13.8117C5.43934 14.0628 5.84637 14.0628 6.09743 13.8117L9.50001 10.4091L12.9026 13.8117C13.1536 14.0628 13.5607 14.0628 13.8117 13.8117C14.0628 13.5607 14.0628 13.1536 13.8117 12.9026L10.4091 9.50001L13.8117 6.09743C14.0628 5.84637 14.0628 5.43934 13.8117 5.18829C13.5607 4.93724 13.1536 4.93724 12.9026 5.18829L9.50001 8.59087L6.09743 5.18829Z" fill="white"/>
</svg>
