<svg width="25" height="25" viewBox="0 0 25 25" fill="none" xmlns="http://www.w3.org/2000/svg">
<g clip-path="url(#clip0_123_1511)">
<path d="M13.2324 0.366211L11.7676 3.62451H14.6973V0.366211H13.2324Z" fill="#FF9A27"/>
<path d="M10.3027 0.366211H13.2324V3.62451H10.3027V0.366211Z" fill="#FFB820"/>
<path d="M15.4297 20.2393L12.5 24.6338C14.9271 24.6338 16.8945 22.6663 16.8945 20.2393H15.4297Z" fill="#FF5D34"/>
<path d="M15.4297 20.2393H8.10547C8.10547 22.6663 10.0729 24.6338 12.5 24.6338C14.118 24.6338 15.4297 22.6663 15.4297 20.2393Z" fill="#FF7B2D"/>
<path d="M22.2568 16.585L21.4214 15.8447L12.5 11.4502L22.4365 20.9717L23.9014 20.2393C23.9014 18.8418 23.3027 17.5117 22.2568 16.585Z" fill="#FF9A27"/>
<path d="M19.957 15.8447L20.792 16.585C21.8379 17.5117 22.4365 18.8418 22.4365 20.2393V20.9717H1.09863V20.2393C1.09863 18.8418 1.69727 17.5117 2.74316 16.585L3.57861 15.8447L12.5 11.4502C12.5 11.4502 19.9565 15.8447 19.957 15.8447Z" fill="#FFB820"/>
<path d="M19.8579 7.98242C19.2329 4.48535 16.1768 1.83105 12.5 1.83105L19.957 15.8447H21.4214L19.8579 7.98242Z" fill="#FFB820"/>
<path d="M18.6499 7.98242L19.957 15.8447C19.9565 15.8447 3.57861 15.8447 3.57861 15.8447L5.14209 7.98242C5.76709 4.48535 8.82324 1.83105 12.5 1.83105C15.5728 1.83105 18.1274 4.48535 18.6499 7.98242Z" fill="#FFD06A"/>
<path d="M23.9014 20.2393H22.4365V21.7041H23.9014C24.3042 21.7041 24.6338 21.3745 24.6338 20.9717C24.6338 20.5688 24.3042 20.2393 23.9014 20.2393Z" fill="#FFB820"/>
<path d="M23.1689 20.9717C23.1689 20.5688 22.8394 20.2393 22.4365 20.2393H1.09863C0.695801 20.2393 0.366211 20.5688 0.366211 20.9717C0.366211 21.3745 0.695801 21.7041 1.09863 21.7041H22.4365C22.8394 21.7041 23.1689 21.3745 23.1689 20.9717Z" fill="#FFD06A"/>
<path d="M24.2584 19.9329C24.1771 18.5447 23.5465 17.2382 22.4997 16.3107L21.7567 15.6524L20.2175 7.91445C19.7057 5.05552 17.6866 2.79673 15.0635 1.89268V0.366211C15.0635 0.163965 14.8996 0 14.6973 0H10.3027C10.1004 0 9.93652 0.163965 9.93652 0.366211V1.89268C7.31343 2.79673 5.29434 5.05557 4.78247 7.9144L3.24326 15.6524L2.50034 16.3107C1.45352 17.2382 0.8229 18.5446 0.74165 19.9329C0.310645 20.0814 0 20.4908 0 20.9717C0 21.5775 0.492871 22.0703 1.09863 22.0703H8.10547C8.84009 23.8328 10.5736 25 12.5 25C14.4264 25 16.1599 23.8328 16.8945 22.0703H23.9014C24.5071 22.0703 25 21.5775 25 20.9717C25 20.4908 24.6894 20.0814 24.2584 19.9329ZM10.6689 0.732422H14.3311V1.67998C13.742 1.5394 13.1287 1.46484 12.5 1.46484C11.8713 1.46484 11.258 1.5394 10.6689 1.67998V0.732422ZM2.98604 16.8589L3.71728 16.2109H5.04326C5.24556 16.2109 5.40947 16.047 5.40947 15.8447C5.40947 15.6425 5.24556 15.4785 5.04326 15.4785H4.02461L5.50146 8.05396C5.50195 8.05161 5.50244 8.04922 5.50278 8.04688C6.1082 4.65737 9.05093 2.19727 12.5 2.19727C15.9491 2.19727 18.8918 4.65737 19.4972 8.04688C19.4976 8.04922 19.4981 8.05156 19.4985 8.05396L20.9754 15.4785H6.50806C6.30576 15.4785 6.14185 15.6425 6.14185 15.8447C6.14185 16.047 6.30576 16.2109 6.50806 16.2109H21.2827L22.0139 16.8589C22.8888 17.6341 23.426 18.7169 23.5202 19.873H1.47979C1.57397 18.7169 2.11113 17.6341 2.98604 16.8589ZM12.5 24.2676C10.9749 24.2676 9.59263 23.403 8.91177 22.0703H16.0882C15.4074 23.403 14.0251 24.2676 12.5 24.2676ZM23.9014 21.3379H1.09863C0.89668 21.3379 0.732422 21.1736 0.732422 20.9717C0.732422 20.7697 0.89668 20.6055 1.09863 20.6055H23.9014C24.1033 20.6055 24.2676 20.7697 24.2676 20.9717C24.2676 21.1736 24.1033 21.3379 23.9014 21.3379Z" fill="black"/>
</g>
<defs>
<clipPath id="clip0_123_1511">
<rect width="25" height="25" fill="white"/>
</clipPath>
</defs>
</svg>
