<svg width="29" height="29" viewBox="0 0 29 29" fill="none" xmlns="http://www.w3.org/2000/svg">
<g clip-path="url(#clip0_76_2475)">
<path d="M15.3496 0.424805L13.6504 4.20443H17.0488V0.424805H15.3496Z" fill="#FF9A27"/>
<path d="M11.9512 0.424805H15.3496V4.20443H11.9512V0.424805Z" fill="#FFB820"/>
<path d="M17.8984 23.4775L14.5 28.5752C17.3154 28.5752 19.5977 26.2929 19.5977 23.4775H17.8984Z" fill="#FF5D34"/>
<path d="M17.8984 23.4775H9.40234C9.40234 26.2929 11.6846 28.5752 14.5 28.5752C16.3769 28.5752 17.8984 26.2929 17.8984 23.4775Z" fill="#FF7B2D"/>
<path d="M25.8179 19.2386L24.8488 18.3799L14.5 13.2822L26.0264 24.3271L27.7256 23.4775C27.7256 21.8565 27.0312 20.3136 25.8179 19.2386Z" fill="#FF9A27"/>
<path d="M23.1502 18.3799L24.1187 19.2386C25.332 20.3136 26.0264 21.8565 26.0264 23.4775V24.3271H1.27441V23.4775C1.27441 21.8565 1.96883 20.3136 3.18207 19.2386L4.15119 18.3799L14.5 13.2822C14.5 13.2822 23.1496 18.3799 23.1502 18.3799Z" fill="#FFB820"/>
<path d="M23.0352 9.25961C22.3102 5.20301 18.765 2.12402 14.5 2.12402L23.1502 18.3799H24.8488L23.0352 9.25961Z" fill="#FFB820"/>
<path d="M21.6339 9.25961L23.1501 18.3799C23.1496 18.3799 4.15118 18.3799 4.15118 18.3799L5.96482 9.25961C6.68982 5.20301 10.235 2.12402 14.5 2.12402C18.0644 2.12402 21.0278 5.20301 21.6339 9.25961Z" fill="#FFD06A"/>
<path d="M27.7256 23.4775H26.0264V25.1768H27.7256C28.1929 25.1768 28.5752 24.7944 28.5752 24.3271C28.5752 23.8599 28.1929 23.4775 27.7256 23.4775Z" fill="#FFB820"/>
<path d="M26.876 24.3271C26.876 23.8599 26.4937 23.4775 26.0264 23.4775H1.27441C0.807129 23.4775 0.424805 23.8599 0.424805 24.3271C0.424805 24.7944 0.807129 25.1768 1.27441 25.1768H26.0264C26.4937 25.1768 26.876 24.7944 26.876 24.3271Z" fill="#FFD06A"/>
<path d="M28.1397 23.1222C28.0454 21.5118 27.3139 19.9963 26.0996 18.9205L25.2378 18.1568L23.4523 9.18077C22.8586 5.8644 20.5164 3.2442 17.4736 2.1955V0.424805C17.4736 0.190199 17.2835 0 17.0488 0H11.9512C11.7165 0 11.5264 0.190199 11.5264 0.424805V2.1955C8.48358 3.2442 6.14143 5.86446 5.54767 9.18071L3.76218 18.1568L2.9004 18.9204C1.68608 19.9963 0.954564 21.5118 0.860314 23.1221C0.360348 23.2945 0 23.7694 0 24.3271C0 25.0299 0.57173 25.6016 1.27441 25.6016H9.40234C10.2545 27.6461 12.2654 29 14.5 29C16.7346 29 18.7455 27.6461 19.5977 25.6016H27.7256C28.4283 25.6016 29 25.0299 29 24.3271C29 23.7694 28.6397 23.2945 28.1397 23.1222ZM12.376 0.849609H16.624V1.94878C15.9407 1.78571 15.2292 1.69922 14.5 1.69922C13.7708 1.69922 13.0593 1.78571 12.376 1.94878V0.849609ZM3.4638 19.5563L4.31205 18.8047H5.85018C6.08485 18.8047 6.27499 18.6145 6.27499 18.3799C6.27499 18.1453 6.08485 17.9551 5.85018 17.9551H4.66855L6.3817 9.34259C6.38227 9.33987 6.38283 9.33709 6.38323 9.33438C7.08552 5.40255 10.4991 2.54883 14.5 2.54883C18.5009 2.54883 21.9145 5.40255 22.6168 9.33438C22.6172 9.33709 22.6178 9.33981 22.6183 9.34259L24.3315 17.9551H7.54935C7.31468 17.9551 7.12454 18.1453 7.12454 18.3799C7.12454 18.6145 7.31468 18.8047 7.54935 18.8047H24.6879L25.5361 19.5563C26.551 20.4556 27.1741 21.7116 27.2834 23.0527H1.71655C1.82581 21.7116 2.44891 20.4556 3.4638 19.5563ZM14.5 28.1504C12.7308 28.1504 11.1274 27.1475 10.3377 25.6016H18.6623C17.8726 27.1475 16.2692 28.1504 14.5 28.1504ZM27.7256 24.752H1.27441C1.04015 24.752 0.849609 24.5614 0.849609 24.3271C0.849609 24.0929 1.04015 23.9023 1.27441 23.9023H27.7256C27.9599 23.9023 28.1504 24.0929 28.1504 24.3271C28.1504 24.5614 27.9599 24.752 27.7256 24.752Z" fill="black"/>
<circle cx="5" cy="4" r="4" fill="#FF0000"/>
</g>
<defs>
<clipPath id="clip0_76_2475">
<rect width="29" height="29" fill="white"/>
</clipPath>
</defs>
</svg>
