<svg width="28" height="28" viewBox="0 0 28 28" fill="none" xmlns="http://www.w3.org/2000/svg">
<g clip-path="url(#clip0_83_4407)">
<path d="M22.1569 3.2265L20.9337 2.17004L19.9613 3.28457L21.1845 4.34108L22.1569 3.2265Z" fill="#D1D1D1"/>
<path d="M11.8602 14.4399L13.315 15.7091L14.7814 16.9884L26.4432 3.62217C27.1301 2.83457 27.0669 1.65042 26.3146 0.940358C26.2956 0.921327 26.2766 0.903663 26.2568 0.886655C25.8896 0.566297 25.4352 0.40918 24.9829 0.40918C24.4422 0.40918 23.9048 0.633617 23.5219 1.07298L11.8602 14.4399Z" fill="#6B7F9E"/>
<path d="M13.315 15.7091L14.7814 16.9885L26.4432 3.62218C27.1301 2.83458 27.0669 1.65043 26.3146 0.940369L13.315 15.7091Z" fill="#586C89"/>
<path d="M13.8126 18.0989L10.8915 15.5504L11.8602 14.44L14.7813 16.9886L13.8126 18.0989Z" fill="#EAEAEA"/>
<path d="M4.72409 22.6194L5.87827 23.6267L6.69716 24.3409L13.8129 18.0991L12.5397 16.9885L10.891 15.5507L4.72409 22.6194Z" fill="#6B7F9E"/>
<path d="M5.8763 23.624L5.87827 23.6267L6.69716 24.3409L13.8129 18.0991L12.5397 16.9885L5.8763 23.624Z" fill="#586C89"/>
<path d="M6.69751 24.3407L4.455 26.2795C4.17133 26.5475 3.76446 26.6401 3.39275 26.5214C3.10219 26.4286 2.78583 26.4639 2.52295 26.6187L1.55646 27.1875C1.43915 27.2566 1.29079 27.2427 1.18825 27.1533C1.05667 27.0385 1.04305 26.8388 1.15784 26.7072L4.72433 22.6192L6.69751 24.3407Z" fill="#FFE571"/>
<path d="M21.3019 1.979L20.0428 0.880493L12.1136 9.9691L13.0139 10.7546L21.3019 1.979Z" fill="#EAEAEA"/>
<path d="M0.848736 26.4376L4.41523 22.3496L8.16312 18.0537C8.31198 17.883 8.57103 17.8654 8.74182 18.0143C8.9125 18.1632 8.93017 18.4223 8.78125 18.593L5.30302 22.5798L6.69673 23.7957L13.1897 18.1001L10.9306 16.1293L9.7846 17.4429C9.63569 17.6137 9.37669 17.6313 9.2059 17.4824C9.03522 17.3334 9.01756 17.0743 9.16647 16.9037L10.5822 15.281L11.5509 14.1705L20.3114 4.12912L20.0494 3.90265L13.3123 11.0362C13.2317 11.1215 13.123 11.1648 13.0139 11.1648C12.9181 11.1648 12.822 11.1314 12.7444 11.0636L11.844 10.2782C11.762 10.2066 11.7118 10.1055 11.7045 9.99696C11.697 9.88846 11.7331 9.78144 11.8046 9.69946L19.7338 0.610856C19.8054 0.52888 19.9065 0.478677 20.015 0.471294C20.1233 0.464021 20.2305 0.499896 20.3125 0.571427L21.5716 1.66993C21.6558 1.74327 21.7063 1.84772 21.7117 1.95917C21.7164 2.05614 21.6865 2.15102 21.6282 2.22753L21.8233 2.39613L23.2127 0.80352C24.0641 -0.172267 25.5506 -0.273548 26.5264 0.577771C27.5022 1.4292 27.6035 2.91566 26.7522 3.8915L21.7597 9.6141C21.6108 9.78483 21.3516 9.80244 21.181 9.65353C21.0103 9.50461 20.9926 9.2455 21.1415 9.07483L26.1341 3.35223C26.688 2.71725 26.6221 1.74994 25.9872 1.1959C25.3521 0.641974 24.3848 0.707763 23.8308 1.34285L12.4388 14.4007L14.742 16.41L20.1466 10.2152C20.2955 10.0445 20.5546 10.0269 20.7253 10.1758C20.896 10.3247 20.9137 10.5838 20.7647 10.7545L15.0905 17.2584L14.1217 18.3689C14.1205 18.3703 14.1191 18.3715 14.1179 18.3729C14.114 18.3773 14.1098 18.3813 14.1058 18.3855C14.0999 18.3915 14.0939 18.3975 14.0877 18.4031C14.0861 18.4046 14.0848 18.4061 14.0832 18.4075L6.96809 24.649C6.96771 24.6493 6.96733 24.6496 6.96694 24.6498C6.96656 24.6502 6.96623 24.6506 6.96579 24.6509L4.72957 26.5844C4.33779 26.9497 3.77861 27.0753 3.26794 26.9121C3.08999 26.8552 2.89558 26.8767 2.73403 26.9706C6.64549 27.341 10.4648 27.1458 14.4843 26.9402L15.1253 26.9074C15.5042 26.8882 15.696 26.7875 15.7064 26.7255C15.7106 26.7004 15.7008 26.5992 15.3998 26.3511L14.0657 25.2513C13.2825 24.6057 13.3755 24.0687 13.5007 23.806C13.6003 23.597 13.7676 23.4631 13.9181 23.3597C14.5964 22.8938 15.3751 22.6742 15.9018 22.5496C16.1225 22.4971 16.3432 22.6337 16.3954 22.8542C16.4475 23.0746 16.3112 23.2956 16.0907 23.3477C15.3453 23.5242 14.8185 23.7364 14.3826 24.0358C14.2809 24.1056 14.2496 24.1413 14.2412 24.1589C14.2225 24.1981 14.2838 24.368 14.5875 24.6183L15.9216 25.7181C16.1102 25.8735 16.6111 26.2865 16.5155 26.8603C16.4654 27.1608 16.2236 27.673 15.1669 27.7266L14.5263 27.7593C12.1399 27.8815 9.82436 28 7.51256 28C5.4556 28 3.40143 27.906 1.30543 27.6373C1.16472 27.6193 1.02516 27.5552 0.91868 27.4624C0.616806 27.1992 0.585472 26.7395 0.848736 26.4376ZM13.7732 17.5205L14.2027 17.0282L13.0511 16.0235L11.8995 15.0187L11.4701 15.5111L12.6217 16.5158L13.7732 17.5205ZM20.0822 1.45922L12.6923 9.92975L12.9865 10.1863L20.7109 2.00757L20.0822 1.45922ZM21.0661 2.82602L20.6131 3.30569L20.8507 3.51098L21.284 3.01426L21.0661 2.82602ZM3.06697 26.0606C3.21845 26.0606 3.37054 26.0838 3.51759 26.1307C3.74706 26.2041 3.99824 26.1468 4.17329 25.9814C4.17767 25.9773 4.18215 25.9732 4.18669 25.9692L6.07198 24.3393L5.73998 24.0497L4.7637 23.198L4.04565 24.021L4.18357 24.1589C4.34375 24.3192 4.34375 24.5788 4.18357 24.739C4.10345 24.8191 3.99846 24.8591 3.89351 24.8591C3.78857 24.8591 3.68357 24.8191 3.60345 24.739L3.50501 24.6406L1.84787 26.54L2.31469 26.2652C2.54487 26.1299 2.80507 26.0606 3.06697 26.0606Z" fill="black"/>
<path d="M15.7402 13.085C15.6446 13.085 15.5485 13.0518 15.4707 12.9839C15.3001 12.835 15.2824 12.5759 15.4313 12.4052L23.6381 2.99838C23.787 2.82765 24.0461 2.81004 24.2168 2.95896C24.3875 3.10787 24.4051 3.36698 24.2562 3.53766L16.0495 12.9445C15.9683 13.0375 15.8546 13.085 15.7402 13.085Z" fill="black"/>
<path d="M17.6346 22.215C20.1443 21.7826 22.7062 21.5049 25.2491 21.3894C25.4758 21.3798 25.6672 21.5542 25.6774 21.7805C25.6877 22.0068 25.5126 22.1986 25.2863 22.2089C22.7775 22.3227 20.2499 22.5967 17.7738 23.0234C17.7503 23.0275 17.7269 23.0294 17.7037 23.0294C17.5078 23.0294 17.3344 22.8885 17.3 22.6888C17.2615 22.4656 17.4113 22.2535 17.6346 22.215Z" fill="black"/>
<path d="M2.27441 21.4208H1.90872C1.68215 21.4208 1.49857 21.2373 1.49857 21.0107C1.49857 20.7841 1.68215 20.6005 1.90872 20.6005H2.27441C2.50098 20.6005 2.68457 20.7841 2.68457 21.0107C2.68457 21.2373 2.50088 21.4208 2.27441 21.4208Z" fill="black"/>
<path d="M2.27441 19.9988H1.90872C1.68215 19.9988 1.49857 19.8152 1.49857 19.5886C1.49857 19.3621 1.68215 19.1785 1.90872 19.1785H2.27441C2.50098 19.1785 2.68457 19.3621 2.68457 19.5886C2.68457 19.8152 2.50088 19.9988 2.27441 19.9988Z" fill="black"/>
<path d="M2.27441 18.5767H1.90872C1.68215 18.5767 1.49857 18.3931 1.49857 18.1666C1.49857 17.94 1.68215 17.7564 1.90872 17.7564H2.27441C2.50098 17.7564 2.68457 17.94 2.68457 18.1666C2.68457 18.3931 2.50088 18.5767 2.27441 18.5767Z" fill="black"/>
</g>
<defs>
<clipPath id="clip0_83_4407">
<rect width="28" height="28" fill="white" transform="matrix(-1 0 0 1 28 0)"/>
</clipPath>
</defs>
</svg>
