<svg width="22" height="22" viewBox="0 0 22 22" fill="none" xmlns="http://www.w3.org/2000/svg">
<g clip-path="url(#clip0_150_694)">
<path d="M9.86726 13.0442L8.95576 12.1328L7.13277 13.9557L6.677 15.323L8.04427 14.8672L9.86726 13.0442Z" fill="#ACD5DF"/>
<path d="M7.13277 13.9557L0.966797 20.1217C0.554125 20.5344 0.322266 21.0941 0.322266 21.6778C0.90591 21.6778 1.46562 21.4459 1.87829 21.0332L8.04427 14.8672L7.13277 13.9557Z" fill="#C4F3FF"/>
<path d="M21.489 6.43579L20.5775 5.52429L19.666 6.43579L20.5775 7.34728C20.8292 7.599 21.2373 7.599 21.489 7.34728C21.7407 7.09562 21.7407 6.6875 21.489 6.43579Z" fill="#FF3E3A"/>
<path d="M20.5774 6.43584C20.8291 6.18413 20.8291 5.77605 20.5774 5.52434L15.5641 0.511049C15.3124 0.259338 14.9044 0.259338 14.6527 0.511049C14.4009 0.76276 14.4009 1.17083 14.6527 1.42254L15.5641 2.33404L16.0199 5.5243L19.6659 6.43579C19.9176 6.68755 20.3257 6.68755 20.5774 6.43584Z" fill="#FF5D34"/>
<path d="M19.666 6.43579L18.7545 5.52429L11.0286 10.9715L14.7622 11.9706L19.666 6.43579Z" fill="#CC3245"/>
<path d="M15.5641 2.33405L10.0293 7.23781L11.0284 10.9715L13.8506 11.0592L18.7544 5.5243L15.5641 2.33405Z" fill="#FF3E3A"/>
<path d="M14.762 11.9705L13.8505 11.059L12.146 17.146L13.0575 18.0575C14.7079 16.4071 15.2761 14.0839 14.762 11.9705Z" fill="#FF3E3A"/>
<path d="M14.0339 12.5681C14.0391 14.2243 13.4098 15.8823 12.1462 17.146L3.94263 8.94242C5.59306 7.29199 7.91616 6.72381 10.0297 7.23789L13.8507 11.0589C13.971 11.5542 14.0321 12.0613 14.0339 12.5681Z" fill="#FF5D34"/>
<path d="M21.7168 6.20795L15.792 0.283164C15.6094 0.100547 15.3667 0 15.1084 0C14.8502 0 14.6074 0.10059 14.4248 0.283164C14.2422 0.465781 14.1416 0.708555 14.1416 0.966797C14.1416 1.22504 14.2422 1.46781 14.4248 1.65043L15.0942 2.31988L9.93983 6.88664C8.88104 6.65728 7.77438 6.68465 6.72826 6.96738C5.59298 7.27418 4.55086 7.87836 3.71465 8.71462C3.65419 8.77503 3.62025 8.85702 3.62025 8.94248C3.62025 9.02795 3.65419 9.10993 3.71465 9.17035L7.58854 13.0442L0.738934 19.8938C0.26241 20.3703 0 21.0039 0 21.6777C0 21.8557 0.144289 22 0.322266 22C0.996145 22 1.62968 21.7376 2.1062 21.2611L8.9558 14.4115L12.8297 18.2854C12.8926 18.3483 12.9751 18.3798 13.0576 18.3798C13.1401 18.3798 13.2226 18.3483 13.2855 18.2854C14.1217 17.4491 14.7259 16.4071 15.0327 15.2717C15.3154 14.2255 15.3428 13.1189 15.1134 12.0602L19.6802 6.90572L20.3496 7.57513C20.5322 7.75775 20.775 7.8583 21.0332 7.8583C21.2915 7.8583 21.5343 7.75771 21.7168 7.57513C21.8995 7.39252 22 7.14974 22 6.8915C22 6.63334 21.8994 6.39057 21.7168 6.20795ZM1.65043 20.8053C1.38102 21.0748 1.04418 21.2522 0.677961 21.322C0.747785 20.9558 0.925289 20.619 1.19466 20.3496L8.04427 13.5L8.50004 13.9557L1.65043 20.8053ZM13.0517 17.5959L4.40408 8.94829C5.88913 7.60809 7.90243 7.08237 9.86721 7.53143L14.4686 12.1329C14.9175 14.0977 14.3919 16.1109 13.0517 17.5959ZM21.2611 7.11945C21.2002 7.18034 21.1193 7.21381 21.0332 7.21381C20.9471 7.21381 20.8662 7.18029 20.8053 7.11941L16.7036 3.0177C16.5777 2.89188 16.3737 2.8918 16.2478 3.0177C16.122 3.14355 16.122 3.34761 16.2478 3.47342L19.2236 6.44918L14.748 11.5007L10.4993 7.25205L15.7779 2.57529C15.8444 2.51634 15.8836 2.43259 15.8862 2.34382C15.8889 2.255 15.8549 2.16902 15.792 2.1062L14.8805 1.19466C14.8197 1.13377 14.7861 1.05286 14.7861 0.966797C14.7861 0.88073 14.8197 0.79982 14.8806 0.738934C14.9414 0.678047 15.0223 0.644531 15.1084 0.644531C15.1945 0.644531 15.2754 0.678047 15.3363 0.738934L21.2611 6.66372C21.322 6.72461 21.3555 6.80552 21.3555 6.89159C21.3555 6.97765 21.322 7.05856 21.2611 7.11945Z" fill="black"/>
</g>
<defs>
<clipPath id="clip0_150_694">
<rect width="22" height="22" fill="white"/>
</clipPath>
</defs>
</svg>
