<svg width="22" height="23" viewBox="0 0 22 23" fill="none" xmlns="http://www.w3.org/2000/svg">
<g clip-path="url(#clip0_85_452)">
<path d="M9.39252 12.1942L10.304 13.1057L7.29604 16.1137L6.38454 15.2022L9.39252 12.1942Z" fill="#93B7C0"/>
<path d="M14.5884 15.0025C18.5047 15.0025 21.6794 11.8277 21.6794 7.91151C21.6794 3.99528 18.5047 0.820557 14.5884 0.820557C10.6722 0.820557 7.4975 3.99528 7.4975 7.91151C7.4975 11.8277 10.6722 15.0025 14.5884 15.0025Z" fill="#ACD5DF"/>
<path d="M18.6908 3.80908L10.4861 12.0139C12.7518 14.2796 16.4252 14.2796 18.6909 12.0139C20.9566 9.74825 20.9566 6.07479 18.6908 3.80908Z" fill="#C4F3FF"/>
<path d="M17.7792 11.1023C20.0449 8.8366 20.4531 5.57137 18.6908 3.80911C16.4252 1.54345 12.7517 1.54345 10.4861 3.80911C8.22035 6.07482 8.22035 9.74824 10.4861 12.0139C12.2483 13.7762 15.5135 13.368 17.7792 11.1023Z" fill="white"/>
<path d="M1.91373 19.3707L0.698212 21.8018C1.20171 22.3053 2.01803 22.3053 2.52149 21.8018L1.91373 19.3707Z" fill="#93B7C0"/>
<path d="M0.698213 19.9785C0.194712 20.482 0.194712 21.2983 0.698213 21.8018L2.52149 19.9785H0.698213Z" fill="#ACD5DF"/>
<path d="M6.38362 14.2931L1.60986 20.8902L2.5215 21.8018L8.20694 16.1164L6.38362 14.2931Z" fill="#3857BC"/>
<path d="M0.696411 19.9768L6.38095 14.2923L7.29246 15.2038L1.60792 20.8883L0.696411 19.9768Z" fill="#3A6FD8"/>
<path d="M8.66272 15.6605L7.75109 14.7489L6.83945 15.6605L7.75109 16.5722C8.00284 16.8239 8.41097 16.8239 8.66272 16.5722C8.91447 16.3205 8.91447 15.9123 8.66272 15.6605Z" fill="#93B7C0"/>
<path d="M7.7511 15.6605C8.00285 15.4088 8.00285 15.0006 7.7511 14.7489L6.83946 13.8373C6.58771 13.5855 6.17958 13.5855 5.92783 13.8373C5.67608 14.089 5.67608 14.4971 5.92783 14.7489L6.83946 15.6605C7.09122 15.9123 7.49935 15.9123 7.7511 15.6605Z" fill="#ACD5DF"/>
<path d="M14.5902 1.78577C13.1851 1.78577 11.8633 2.249 10.7678 3.1254C10.6288 3.23658 10.6062 3.43942 10.7174 3.5784C10.8286 3.71747 11.0315 3.73999 11.1704 3.62877C12.1504 2.84481 13.333 2.4304 14.5902 2.4304C17.6115 2.4304 20.0695 4.88842 20.0695 7.90977C20.0695 10.9311 17.6115 13.3891 14.5902 13.3891C11.5688 13.3891 9.11079 10.9311 9.11079 7.90977C9.11079 6.65261 9.5252 5.47005 10.3092 4.49004C10.4204 4.35106 10.3978 4.14821 10.2588 4.03704C10.1198 3.92577 9.91701 3.94834 9.80579 4.0874C8.92939 5.18293 8.46616 6.50469 8.46616 7.90977C8.46616 11.2866 11.2134 14.0338 14.5902 14.0338C17.967 14.0338 20.7142 11.2866 20.7142 7.90977C20.7142 4.53297 17.967 1.78577 14.5902 1.78577Z" fill="black"/>
<path d="M19.8322 2.66759C16.9417 -0.222855 12.2386 -0.222855 9.3482 2.66759C6.68947 5.32635 6.47657 9.51861 8.70902 12.4232L7.29698 13.8352L7.06908 13.6073C6.69205 13.2304 6.07862 13.2304 5.7016 13.6073C5.519 13.79 5.41839 14.0328 5.41839 14.2911C5.41839 14.4378 5.45088 14.5796 5.51242 14.7082L0.471999 19.7486C0.167647 20.053 0 20.4577 0 20.8882C0 21.3187 0.167647 21.7234 0.471999 22.0278C0.776395 22.3321 1.18109 22.4998 1.61158 22.4998C2.04207 22.4998 2.44676 22.3321 2.75116 22.0278L7.79154 16.9874C7.92012 17.0489 8.0619 17.0814 8.20866 17.0814C8.46694 17.0814 8.70975 16.9809 8.8924 16.7982C9.26938 16.4212 9.26938 15.8078 8.8924 15.4307L8.6645 15.2028L10.0765 13.7908C11.4022 14.8097 12.9961 15.3195 14.5902 15.3195C16.4886 15.3195 18.387 14.5969 19.8322 13.1517C22.7226 10.2611 22.7226 5.55808 19.8322 2.66759ZM0.927883 21.5719C0.630837 21.2749 0.568866 20.8316 0.739823 20.4723L2.02745 21.7599C1.66822 21.9309 1.22484 21.8689 0.927883 21.5719ZM8.43656 16.3423C8.3757 16.4032 8.29474 16.4368 8.20866 16.4368C8.12279 16.4368 8.04204 16.4034 7.98119 16.3428C7.98011 16.3417 7.06903 15.4307 7.06903 15.4307C6.9432 15.3049 6.73911 15.3047 6.61324 15.4307C6.48736 15.5566 6.48736 15.7607 6.61328 15.8865L7.29702 16.5702L2.52322 21.344L1.15583 19.9766L6.15748 14.9749C6.28336 14.8489 6.28336 14.6449 6.15748 14.519C6.03178 14.3934 6.03178 14.1889 6.15748 14.0633C6.22031 14.0004 6.30282 13.969 6.38538 13.969C6.46794 13.969 6.55045 14.0004 6.61328 14.0633L8.4366 15.8866C8.56222 16.0122 8.56222 16.2167 8.43656 16.3423ZM8.20866 14.747L7.75286 14.2912L9.12558 12.9185C9.19791 12.9973 9.27183 13.0753 9.34824 13.1516C9.42465 13.228 9.50252 13.3019 9.58138 13.3743L8.20866 14.747ZM19.3763 12.6957C16.7373 15.3349 12.4431 15.3349 9.80404 12.6957C7.16491 10.0567 7.16491 5.76255 9.80404 3.12347C11.1236 1.80391 12.8569 1.14411 14.5902 1.14411C16.3235 1.14411 18.0568 1.80391 19.3763 3.12347C22.0154 5.76255 22.0154 10.0567 19.3763 12.6957Z" fill="black"/>
</g>
<defs>
<clipPath id="clip0_85_452">
<rect width="22" height="22" fill="white" transform="translate(0 0.5)"/>
</clipPath>
</defs>
</svg>
