<svg width="28" height="28" viewBox="0 0 28 28" fill="none" xmlns="http://www.w3.org/2000/svg">
<g clip-path="url(#clip0_88_603)">
<path d="M27.5898 16.4609V11.5391L24.6772 11.0536C24.4322 10.1639 24.0793 9.31902 23.6329 8.53404L25.3496 6.13063L21.8693 2.65032L19.4659 4.36702C18.6809 3.92066 17.836 3.5677 16.9463 3.3227L16.4609 0.410156H11.5391L11.0536 3.32281C10.1639 3.56781 9.31902 3.92071 8.53404 4.36713L6.13063 2.65043L2.65032 6.13074L4.36702 8.53415C3.92066 9.31913 3.5677 10.164 3.3227 11.0537L0.410156 11.5391V16.4609L3.32281 16.9464C3.56781 17.8361 3.92071 18.681 4.36713 19.466L2.65043 21.8694L6.13074 25.3497L8.53415 23.633C9.31913 24.0793 10.164 24.4323 11.0537 24.6773L11.5391 27.5898H16.4609L16.9464 24.6772C17.8359 24.4323 18.6798 24.078 19.4645 23.6319L21.8694 25.3496L25.3497 21.8693L23.6319 19.4645C24.0781 18.6797 24.4324 17.8358 24.6772 16.9463L27.5898 16.4609ZM14 19.332C11.0552 19.332 8.66797 16.9448 8.66797 14C8.66797 11.0552 11.0552 8.66797 14 8.66797C16.9448 8.66797 19.332 11.0552 19.332 14C19.332 16.9448 16.9448 19.332 14 19.332Z" fill="#ACD5DF"/>
<path d="M14.1006 4.56689C19.2642 4.62104 23.4336 8.82322 23.4336 13.9999C23.4336 19.1767 19.2642 23.3788 14.1006 23.433L20.1523 13.9999L14.1006 4.56689Z" fill="#83A3AB"/>
<path d="M14.1006 4.56695C18.358 4.63258 21.793 8.83039 21.793 14C21.793 19.1696 18.358 23.3674 14.1006 23.433C14.0673 23.4336 14.0334 23.4336 14 23.4336C8.78992 23.4336 4.56641 19.2101 4.56641 14C4.56641 8.78992 8.78992 4.56641 14 4.56641C14.0334 4.56641 14.0673 4.56641 14.1006 4.56695ZM18.5117 14C18.5117 11.5084 16.4916 9.48828 14 9.48828C11.5084 9.48828 9.48828 11.5084 9.48828 14C9.48828 16.4916 11.5084 18.5117 14 18.5117C16.4916 18.5117 18.5117 16.4916 18.5117 14Z" fill="#93B7C0"/>
<path d="M14 8.66797C11.0552 8.66797 8.66797 11.0552 8.66797 14C8.66797 16.9448 11.0552 19.332 14 19.332C16.9448 19.332 19.332 16.9448 19.332 14C19.332 11.0552 16.9448 8.66797 14 8.66797ZM14 17.6914C11.9613 17.6914 10.3086 16.0387 10.3086 14C10.3086 11.9613 11.9613 10.3086 14 10.3086C16.0387 10.3086 17.6914 11.9613 17.6914 14C17.6914 16.0387 16.0387 17.6914 14 17.6914Z" fill="#ACD5DF"/>
<path d="M18.1016 14C18.1016 11.7384 16.2616 9.89844 14 9.89844C11.7384 9.89844 9.89844 11.7384 9.89844 14C9.89844 16.2616 11.7384 18.1016 14 18.1016C16.2616 18.1016 18.1016 16.2616 18.1016 14ZM10.7188 14C10.7188 12.1907 12.1907 10.7188 14 10.7188C15.8093 10.7188 17.2812 12.1907 17.2812 14C17.2812 15.8093 15.8093 17.2812 14 17.2812C12.1907 17.2812 10.7188 15.8093 10.7188 14Z" fill="black"/>
<path d="M19.7422 14C19.7422 10.8338 17.1662 8.25781 14 8.25781C10.8338 8.25781 8.25781 10.8338 8.25781 14C8.25781 17.1662 10.8338 19.7422 14 19.7422C17.1662 19.7422 19.7422 17.1662 19.7422 14ZM9.07812 14C9.07812 11.2861 11.2861 9.07812 14 9.07812C16.7139 9.07812 18.9219 11.2861 18.9219 14C18.9219 16.7139 16.7139 18.9219 14 18.9219C11.2861 18.9219 9.07812 16.7139 9.07812 14Z" fill="black"/>
<path d="M27.6573 11.1345L24.9997 10.6916C24.7782 9.95444 24.4822 9.24016 24.117 8.56193L25.6833 6.36907C25.7999 6.20594 25.7814 5.98243 25.6396 5.84063L22.1594 2.36037C22.0176 2.21856 21.7941 2.20008 21.6309 2.31662L19.4381 3.88292C18.7598 3.51772 18.0456 3.2217 17.3084 3.00021L16.8655 0.342727C16.8325 0.144922 16.6614 0 16.4609 0H11.5391C11.3385 0 11.1675 0.144922 11.1345 0.342727L10.6916 3.00021C9.95444 3.22164 9.24011 3.51772 8.56193 3.88292L6.36907 2.31662C6.20599 2.20008 5.98243 2.21856 5.84063 2.36037L2.36037 5.84063C2.21856 5.98238 2.20008 6.20588 2.31662 6.36907L3.88292 8.56193C3.51772 9.24016 3.22164 9.95444 3.00021 10.6916L0.342727 11.1345C0.144922 11.1675 0 11.3385 0 11.5391V16.4609C0 16.6615 0.144922 16.8325 0.342727 16.8655L3.00021 17.3084C3.22164 18.0456 3.51772 18.7599 3.88292 19.4381L2.31662 21.6309C2.20008 21.7941 2.21856 22.0176 2.36037 22.1594L5.84063 25.6396C5.98243 25.7814 6.20588 25.7999 6.36907 25.6834L8.56193 24.1171C9.24016 24.4823 9.95444 24.7784 10.6916 24.9998L11.1345 27.6573C11.1675 27.8551 11.3385 28 11.5391 28H16.4609C16.6614 28 16.8325 27.8551 16.8655 27.6573L17.3084 24.9997C18.0426 24.779 18.7564 24.4826 19.4367 24.1161L21.6309 25.6834C21.7941 25.7999 22.0176 25.7814 22.1594 25.6396L25.6397 22.1594C25.7814 22.0176 25.8 21.7941 25.6834 21.6309L24.1161 19.4366C24.4826 18.7562 24.779 18.0424 24.9997 17.3084L27.6573 16.8655C27.8551 16.8325 28 16.6615 28 16.4609V11.5391C28 11.3385 27.8551 11.1675 27.6573 11.1345ZM27.1797 16.1135L24.6098 16.5418C24.4522 16.568 24.3242 16.6834 24.2818 16.8375C24.0501 17.679 23.7114 18.4947 23.2754 19.2618C23.1964 19.4007 23.2053 19.5728 23.2982 19.7029L24.814 21.825L21.8251 24.8139L19.703 23.2981C19.5729 23.2052 19.4008 23.1962 19.2619 23.2753C18.4949 23.7114 17.6792 24.05 16.8376 24.2817C16.6836 24.3241 16.5681 24.4521 16.5419 24.6097L16.1135 27.1797H11.8865L11.4582 24.6098C11.4319 24.4521 11.3165 24.3241 11.1625 24.2817C10.3165 24.0488 9.50037 23.7105 8.73682 23.2764C8.59786 23.1974 8.4257 23.2063 8.29566 23.2992L6.17498 24.8139L3.18609 21.825L4.70083 19.7043C4.79374 19.5743 4.8026 19.4021 4.72363 19.2632C4.28947 18.4996 3.95117 17.6835 3.71826 16.8375C3.67587 16.6835 3.54785 16.5681 3.39024 16.5418L0.820312 16.1135V11.8865L3.39024 11.4582C3.54785 11.4319 3.67587 11.3165 3.71826 11.1625C3.95117 10.3165 4.28947 9.50037 4.72363 8.73682C4.80266 8.59786 4.79374 8.4257 4.70083 8.29566L3.18609 6.17498L6.17498 3.18609L8.29566 4.70083C8.4257 4.79374 8.59786 4.80255 8.73682 4.72363C9.50037 4.28947 10.3165 3.95117 11.1625 3.71826C11.3165 3.67587 11.4319 3.54785 11.4582 3.39024L11.8865 0.820312H16.1135L16.5418 3.39024C16.5681 3.54785 16.6835 3.67582 16.8375 3.71826C17.6835 3.95123 18.4997 4.28947 19.2632 4.72363C19.4021 4.80266 19.5742 4.79374 19.7043 4.70083L21.825 3.18609L24.8139 6.17498L23.2991 8.29566C23.2062 8.4257 23.1973 8.59786 23.2763 8.73682C23.7105 9.50037 24.0488 10.3165 24.2817 11.1625C24.3241 11.3165 24.4521 11.4319 24.6097 11.4582L27.1797 11.8865V16.1135Z" fill="black"/>
<path d="M14 4.15625C11.7252 4.15625 9.50622 4.9507 7.75195 6.39324C7.57701 6.53712 7.5518 6.79558 7.69568 6.97058C7.83956 7.14547 8.09802 7.17073 8.27302 7.02685C9.88083 5.70467 11.9148 4.97656 14 4.97656C18.9755 4.97656 23.0234 9.02448 23.0234 14C23.0234 18.9755 18.9755 23.0234 14 23.0234C9.02448 23.0234 4.97656 18.9755 4.97656 14C4.97656 11.8448 5.74891 9.75844 7.15138 8.12514C7.29892 7.95326 7.27923 7.69437 7.10735 7.54677C6.93552 7.39922 6.67658 7.41891 6.52898 7.59079C4.99888 9.37273 4.15625 11.6489 4.15625 14C4.15625 19.4278 8.57216 23.8438 14 23.8438C19.4278 23.8438 23.8438 19.4278 23.8438 14C23.8438 8.57216 19.4278 4.15625 14 4.15625Z" fill="black"/>
</g>
<defs>
<clipPath id="clip0_88_603">
<rect width="28" height="28" fill="white"/>
</clipPath>
</defs>
</svg>
