<svg width="44" height="44" viewBox="0 0 44 44" fill="none" xmlns="http://www.w3.org/2000/svg">
<g clip-path="url(#clip0_106_1879)">
<path d="M43.3555 4.51236V39.4877C43.3555 41.4194 41.7899 42.985 39.8582 42.985H4.14176C2.21005 42.985 0.644531 41.4193 0.644531 39.4877V4.51236C0.644531 2.58066 2.21014 1.01514 4.14176 1.01514H39.8582C41.7899 1.01514 43.3555 2.58075 43.3555 4.51236Z" fill="#E0E0E3"/>
<path d="M43.3555 36.2335V39.4875C43.3555 41.4198 41.7903 42.9849 39.858 42.9849H4.14202C2.20971 42.9849 0.644531 41.4198 0.644531 39.4875V36.2335C0.644531 38.165 2.20971 39.731 4.14202 39.731H39.858C41.7903 39.731 43.3555 38.165 43.3555 36.2335Z" fill="#D1D1D1"/>
<path d="M43.3555 10.7628H0.644531V13.5949H43.3555V10.7628Z" fill="#D1D1D1"/>
<path d="M43.3555 4.51262V10.7632H0.644531V4.51262C0.644531 4.45255 0.64625 4.39257 0.648828 4.3325C0.742328 2.48424 2.26978 1.01514 4.14202 1.01514H39.858C41.7302 1.01514 43.2577 2.48424 43.3512 4.3325C43.3538 4.39248 43.3555 4.45255 43.3555 4.51262Z" fill="#6B7F9E"/>
<path d="M0.644531 7.76644V4.5125C0.644531 2.58019 2.20971 1.01501 4.14202 1.01501H39.858C41.7903 1.01501 43.3555 2.58019 43.3555 4.5125V7.76644C43.3555 5.83499 41.7903 4.26895 39.858 4.26895H4.14202C2.20971 4.26895 0.644531 5.83499 0.644531 7.76644Z" fill="#798DAA"/>
<path d="M12.4257 17.8999H6.37402V23.9516H12.4257V17.8999Z" fill="#00DDC0"/>
<path d="M25.0258 17.8999H18.9741V23.9516H25.0258V17.8999Z" fill="#FF3C63"/>
<path d="M37.6259 17.8999H31.5742V23.9516H37.6259V17.8999Z" fill="#FF3C63"/>
<path d="M39.8582 0.370605H31.574C31.218 0.370605 30.9295 0.659184 30.9295 1.01514C30.9295 1.37109 31.218 1.65967 31.574 1.65967H39.8582C41.4312 1.65967 42.7109 2.93936 42.7109 4.51236V10.1185H11.2864C10.9304 10.1185 10.6418 10.4071 10.6418 10.763C10.6418 11.119 10.9304 11.4076 11.2864 11.4076H42.7109V20.4246C42.7109 20.7805 42.9995 21.0691 43.3554 21.0691C43.7114 21.0691 43.9999 20.7805 43.9999 20.4246V4.51236C43.9999 2.22857 42.142 0.370605 39.8582 0.370605Z" fill="black"/>
<path d="M43.3555 22.3581C42.9995 22.3581 42.7109 22.6467 42.7109 23.0027V39.4877C42.7109 41.0607 41.4312 42.3404 39.8582 42.3404H4.14176C2.56876 42.3404 1.28906 41.0607 1.28906 39.4877V11.4076H8.67969C9.03564 11.4076 9.32422 11.119 9.32422 10.763C9.32422 10.4071 9.03564 10.1185 8.67969 10.1185H1.28906V4.51236C1.28906 2.93936 2.56876 1.65967 4.14176 1.65967H29.0183C29.3742 1.65967 29.6628 1.37109 29.6628 1.01514C29.6628 0.659184 29.3742 0.370605 29.0183 0.370605H4.14176C1.85797 0.370605 0 2.22857 0 4.51236V39.4877C0 41.7715 1.85797 43.6295 4.14176 43.6295H39.8582C42.1419 43.6295 43.9999 41.7715 43.9999 39.4877V23.0027C44 22.6467 43.7114 22.3581 43.3555 22.3581Z" fill="black"/>
<path d="M13.0705 18.3026L14.7705 16.6026C15.0223 16.3508 15.0223 15.9427 14.7705 15.6911C14.5188 15.4394 14.1107 15.4394 13.8591 15.6911L12.2951 17.2551H6.37402C6.01807 17.2551 5.72949 17.5437 5.72949 17.8996V19.1705C5.72949 19.1707 5.72949 19.1708 5.72949 19.171V23.9516C5.72949 24.3075 6.01807 24.5961 6.37402 24.5961H12.426C12.782 24.5961 13.0705 24.3075 13.0705 23.9516V18.3026ZM11.006 18.5441L8.83244 20.7177L7.01855 18.9038V18.5441H11.006ZM7.01855 23.3071V20.7268L8.37671 22.0849C8.50252 22.2108 8.66752 22.2737 8.83244 22.2737C8.99735 22.2737 9.16235 22.2108 9.28816 22.0849L11.7815 19.5916V23.3071H7.01855Z" fill="black"/>
<path d="M18.9741 24.5962H25.0261C25.3821 24.5962 25.6706 24.3076 25.6706 23.9516V17.8997C25.6706 17.5437 25.3821 17.2551 25.0261 17.2551H18.9741C18.6182 17.2551 18.3296 17.5437 18.3296 17.8997V23.9516C18.3296 24.3076 18.6181 24.5962 18.9741 24.5962ZM19.6187 18.5442H24.3816V23.3071H19.6187V18.5442Z" fill="black"/>
<path d="M31.574 24.5962H37.626C37.9819 24.5962 38.2705 24.3076 38.2705 23.9516V17.8997C38.2705 17.5437 37.9819 17.2551 37.626 17.2551H31.574C31.218 17.2551 30.9294 17.5437 30.9294 17.8997V23.9516C30.9294 24.3076 31.218 24.5962 31.574 24.5962ZM32.2185 18.5442H36.9814V23.3071H32.2185V18.5442Z" fill="black"/>
<path d="M12.426 27.3616H6.37402C6.01807 27.3616 5.72949 27.6502 5.72949 28.0061C5.72949 28.3621 6.01807 28.6506 6.37402 28.6506H12.426C12.782 28.6506 13.0705 28.3621 13.0705 28.0061C13.0705 27.6502 12.782 27.3616 12.426 27.3616Z" fill="black"/>
<path d="M12.426 30.6598H6.37402C6.01807 30.6598 5.72949 30.9484 5.72949 31.3043C5.72949 31.6603 6.01807 31.9489 6.37402 31.9489H12.426C12.782 31.9489 13.0705 31.6603 13.0705 31.3043C13.0705 30.9484 12.782 30.6598 12.426 30.6598Z" fill="black"/>
<path d="M12.426 33.9579H6.37402C6.01807 33.9579 5.72949 34.2465 5.72949 34.6024C5.72949 34.9584 6.01807 35.2469 6.37402 35.2469H12.426C12.782 35.2469 13.0705 34.9584 13.0705 34.6024C13.0705 34.2465 12.782 33.9579 12.426 33.9579Z" fill="black"/>
<path d="M18.9741 28.6506H25.0261C25.3821 28.6506 25.6706 28.3621 25.6706 28.0061C25.6706 27.6502 25.3821 27.3616 25.0261 27.3616H18.9741C18.6182 27.3616 18.3296 27.6502 18.3296 28.0061C18.3296 28.3621 18.6181 28.6506 18.9741 28.6506Z" fill="black"/>
<path d="M18.9741 31.9489H25.0261C25.3821 31.9489 25.6706 31.6603 25.6706 31.3043C25.6706 30.9484 25.3821 30.6598 25.0261 30.6598H18.9741C18.6182 30.6598 18.3296 30.9484 18.3296 31.3043C18.3296 31.6603 18.6181 31.9489 18.9741 31.9489Z" fill="black"/>
<path d="M18.9741 35.2469H25.0261C25.3821 35.2469 25.6706 34.9584 25.6706 34.6024C25.6706 34.2465 25.3821 33.9579 25.0261 33.9579H18.9741C18.6182 33.9579 18.3296 34.2465 18.3296 34.6024C18.3296 34.9584 18.6181 35.2469 18.9741 35.2469Z" fill="black"/>
<path d="M31.574 28.6506H37.626C37.9819 28.6506 38.2705 28.3621 38.2705 28.0061C38.2705 27.6502 37.9819 27.3616 37.626 27.3616H31.574C31.218 27.3616 30.9294 27.6502 30.9294 28.0061C30.9294 28.3621 31.218 28.6506 31.574 28.6506Z" fill="black"/>
<path d="M31.574 31.9489H37.626C37.9819 31.9489 38.2705 31.6603 38.2705 31.3043C38.2705 30.9484 37.9819 30.6598 37.626 30.6598H31.574C31.218 30.6598 30.9294 30.9484 30.9294 31.3043C30.9294 31.6603 31.218 31.9489 31.574 31.9489Z" fill="black"/>
<path d="M31.574 35.2469H37.626C37.9819 35.2469 38.2705 34.9584 38.2705 34.6024C38.2705 34.2465 37.9819 33.9579 37.626 33.9579H31.574C31.218 33.9579 30.9294 34.2465 30.9294 34.6024C30.9294 34.9584 31.218 35.2469 31.574 35.2469Z" fill="black"/>
</g>
<defs>
<clipPath id="clip0_106_1879">
<rect width="44" height="44" fill="white"/>
</clipPath>
</defs>
</svg>
