<svg width="67" height="67" viewBox="0 0 67 67" fill="none" xmlns="http://www.w3.org/2000/svg">
<path d="M30.0702 19.5079V30.8246H7.31323V19.5079C7.31323 13.2241 12.408 8.12939 18.6917 8.12939C21.8335 8.12939 24.6779 9.40344 26.7377 11.4619C28.7962 13.5217 30.0702 16.3659 30.0702 19.5079Z" fill="#6B7F9E"/>
<path d="M30.0702 19.5079V22.2315C30.0702 19.0897 28.7962 16.2453 26.7377 14.1854C24.6779 12.127 21.8336 10.853 18.6917 10.853C12.408 10.853 7.31323 15.9477 7.31323 22.2315V19.5079C7.31323 13.2241 12.408 8.12939 18.6917 8.12939C21.8335 8.12939 24.6779 9.40344 26.7377 11.4619C28.7962 13.5217 30.0702 16.3659 30.0702 19.5079Z" fill="#798DAA"/>
<path d="M30.0702 27.5675V30.8246H7.31323V27.3523C7.82882 27.0602 8.35828 26.7872 8.89585 26.5377C11.8156 25.1758 15.0712 24.4175 18.5052 24.4175C21.9393 24.4175 25.1949 25.1772 28.1159 26.5377C28.3627 26.6543 28.6097 26.7736 28.8537 26.8983C29.2666 27.1095 29.6725 27.333 30.0702 27.5675Z" fill="#586C89"/>
<path d="M66.0184 44.5727H30.9698C30.9698 38.1162 34.4614 32.4742 39.659 29.4338C39.7262 29.394 39.7949 29.3557 39.862 29.3172C42.4087 27.8718 45.3544 27.0476 48.4936 27.0476C50.9046 27.0476 53.2002 27.5331 55.2902 28.4148C55.6851 28.5808 56.0733 28.7604 56.4531 28.9551C62.1306 31.8543 66.0184 37.7596 66.0184 44.5727Z" fill="#00DDC0"/>
<path d="M55.29 28.4151C54.4686 30.9027 51.147 32.7295 47.2262 32.7295C43.8635 32.7295 40.9425 31.3856 39.6589 29.4341C39.726 29.3943 39.7947 29.3559 39.8618 29.3175C42.4085 27.872 45.3543 27.0479 48.4935 27.0479C50.9043 27.0477 53.2001 27.5332 55.29 28.4151Z" fill="#00CDB3"/>
<path d="M54.0284 18.5584L53.8488 20.2151L53.5772 22.7137L53.2316 25.9008C52.9724 28.287 50.3614 30.1234 47.2264 30.1234C44.0914 30.1234 41.4802 28.287 41.2211 25.9008L40.8535 22.5066L40.5792 19.9804C40.5779 19.9804 40.5779 19.9804 40.5779 19.9804L40.4243 18.5583C40.1335 15.8758 42.9051 13.5759 46.4295 13.5759H48.0232C51.5476 13.5761 54.3191 15.8759 54.0284 18.5584Z" fill="#FFDAA7"/>
<path d="M54.0284 18.5585L53.8488 20.2152L53.5772 22.7138C48.946 21.8457 45.9811 19.0975 45.9811 19.0975L40.8535 22.5068L40.5792 19.9807C40.5779 19.9807 40.5779 19.9807 40.5779 19.9807L40.4243 18.5585C40.1335 15.876 42.9051 13.5762 46.4295 13.5762H48.0232C51.5476 13.5762 54.3191 15.876 54.0284 18.5585Z" fill="#F9C587"/>
<path d="M39.1443 20.7623L45.9807 16.2173C45.9807 16.2173 49.9578 19.971 55.5118 20.7623C55.5118 20.7623 59.6476 8.12964 47.2257 8.12964C34.8037 8.12964 39.1443 20.7623 39.1443 20.7623Z" fill="#6B7F9E"/>
<path d="M56.0567 18.147C55.8675 19.6788 55.5122 20.7622 55.5122 20.7622C49.958 19.9709 45.9811 16.2175 45.9811 16.2175L39.1447 20.7622C39.1447 20.7622 38.7045 19.4827 38.5056 17.7369L46.2677 13.2195C46.2677 13.2195 50.0293 17.0526 56.0567 18.147Z" fill="#586C89"/>
<path d="M56.1129 17.6273C55.7715 14.2688 53.8597 10.6661 47.2262 10.6661C40.7313 10.6661 38.8182 14.1192 38.4712 17.4148C38.1243 13.6722 38.9978 8.12915 47.2262 8.12915C55.6123 8.12902 56.4517 13.8862 56.1129 17.6273Z" fill="#798DAA"/>
<path d="M36.0302 44.5727H0.981567C0.981567 38.0325 4.56371 32.3288 9.87372 29.3174C10.2783 29.0884 10.6925 28.8744 11.1148 28.6782C13.3598 27.6305 15.8639 27.0476 18.5052 27.0476C21.1465 27.0476 23.6507 27.6318 25.8971 28.6782C26.0877 28.7674 26.2769 28.8592 26.4649 28.9553C32.1423 31.8543 36.0302 37.7596 36.0302 44.5727Z" fill="#FF3C63"/>
<path d="M25.8971 28.6782C24.2021 31.3868 21.5223 33.1353 18.5067 33.1353C15.491 33.1353 12.8113 31.3868 11.1148 28.6782C13.3598 27.6305 15.864 27.0476 18.5052 27.0476C21.1465 27.0476 23.6506 27.6319 25.8971 28.6782Z" fill="#EA2F5C"/>
<path d="M50.8559 58.8709H15.8073C15.8073 52.3307 19.3893 46.627 24.6995 43.6156C27.2461 42.1701 30.1919 41.3459 33.3311 41.3459C36.1973 41.3459 38.9016 42.033 41.2906 43.2536C46.9681 46.1527 50.8559 52.0578 50.8559 58.8709Z" fill="#E0E0E3"/>
<path d="M41.2905 43.2534L41.2822 43.3342C40.9243 46.6379 37.3107 49.1791 32.9716 49.1791C28.756 49.1791 25.226 46.7806 24.6993 43.6153C27.246 42.1699 30.1918 41.3457 33.331 41.3457C36.1972 41.3458 38.9015 42.0328 41.2905 43.2534Z" fill="#D1D1D1"/>
<path d="M40.1334 34.4368L39.9537 36.0935L39.3366 41.7793C39.0774 44.1655 36.4663 46.0019 33.3312 46.0019C30.1961 46.0019 27.585 44.1655 27.3259 41.7793L26.6841 35.859C26.6828 35.859 26.6828 35.859 26.6828 35.859L26.5291 34.4368C26.2384 31.7543 29.01 29.4546 32.5344 29.4546H34.1281C37.6526 29.4545 40.4242 31.7543 40.1334 34.4368Z" fill="#FFDAA7"/>
<path d="M40.1334 34.4368L39.9537 36.0935C34.8316 37.2975 30.1318 36.9013 27.869 36.4089C27.4329 36.3142 27.0311 36.1236 26.6841 35.859C26.6828 35.859 26.6828 35.859 26.6828 35.859L26.5291 34.4368C26.2384 31.7543 29.01 29.4546 32.5344 29.4546H34.1281C37.6526 29.4545 40.4242 31.7543 40.1334 34.4368Z" fill="#F9C587"/>
<path d="M43.7416 25.3829C43.732 25.4185 43.7196 25.4528 43.7073 25.4885C42.5746 28.5907 40.8904 30.4955 40.8904 30.4955L42.5251 31.9574C42.9187 32.3085 42.8049 32.9792 42.3234 33.1396C36.3235 35.1294 30.4774 34.6907 27.869 34.1229C26.4715 33.8198 25.4347 32.528 25.3799 31.0126C25.3251 29.467 25.5911 28.1464 26.0834 27.048C27.6303 23.5784 31.4181 22.3043 34.4228 23.0448C36.9106 23.6579 39.7863 23.3781 41.8297 23.0146C43.0956 22.7911 44.1282 24.1076 43.7416 25.3829Z" fill="#6B7F9E"/>
<path d="M43.7416 25.3828C41.4692 26.2399 37.8555 27.1519 34.5985 26.0027C29.3515 24.1513 26.0834 27.0477 26.0834 27.0477C27.6303 23.5781 31.4182 22.3041 34.4228 23.0446C36.9106 23.6577 39.7864 23.3779 41.8297 23.0144C43.0957 22.791 44.1283 24.1074 43.7416 25.3828Z" fill="#798DAA"/>
<path d="M42.3236 33.1394C36.3237 35.1292 30.4776 34.6904 27.8691 34.1226C26.4717 33.8196 25.4349 32.5277 25.3801 31.0124C25.354 30.2924 25.3993 29.6204 25.5035 28.9978C25.8216 30.1512 26.724 31.0632 27.8691 31.3114C30.302 31.8407 35.5531 32.2591 41.1168 30.697L42.5253 31.9573C42.9188 32.3083 42.8049 32.9789 42.3236 33.1394Z" fill="#586C89"/>
<path d="M24.8767 22.1999C24.8767 26.4827 22.0255 29.9537 18.5066 29.9537C14.9876 29.9537 12.135 26.4826 12.135 22.1999C12.135 21.3235 12.2544 20.4801 12.4751 19.6943H19.823L21.3878 16.0601L23.4572 19.6943H24.5366C24.7574 20.4801 24.8767 21.3235 24.8767 22.1999Z" fill="#FFDAA7"/>
<path d="M24.8766 22.1999H12.1351C12.1351 21.3235 12.2545 20.4801 12.4752 19.6943H19.8231L21.3879 16.0601L23.4573 19.6943H24.5367C24.7574 20.4801 24.8766 21.3235 24.8766 22.1999Z" fill="#F9C587"/>
<path d="M3.10645 48.6138C2.56443 48.6138 2.125 49.0532 2.125 49.5952V50.6214C2.125 51.1634 2.56443 51.6029 3.10645 51.6029C3.64846 51.6029 4.08789 51.1634 4.08789 50.6214V49.5952C4.08789 49.0532 3.64846 48.6138 3.10645 48.6138Z" fill="black"/>
<path d="M7.09729 48.6138C6.55527 48.6138 6.11584 49.0532 6.11584 49.5952V50.6214C6.11584 51.1634 6.55527 51.6029 7.09729 51.6029C7.63931 51.6029 8.07874 51.1634 8.07874 50.6214V49.5952C8.07874 49.0532 7.63931 48.6138 7.09729 48.6138Z" fill="black"/>
<path d="M11.0883 48.6138C10.5462 48.6138 10.1068 49.0532 10.1068 49.5952V50.6214C10.1068 51.1634 10.5462 51.6029 11.0883 51.6029C11.6303 51.6029 12.0697 51.1634 12.0697 50.6214V49.5952C12.0697 49.0532 11.6303 48.6138 11.0883 48.6138Z" fill="black"/>
<path d="M55.5898 48.6138C55.0478 48.6138 54.6084 49.0532 54.6084 49.5952V50.6214C54.6084 51.1634 55.0478 51.6029 55.5898 51.6029C56.1319 51.6029 56.5713 51.1634 56.5713 50.6214V49.5952C56.5713 49.0532 56.1319 48.6138 55.5898 48.6138Z" fill="black"/>
<path d="M59.5808 48.6138C59.0388 48.6138 58.5994 49.0532 58.5994 49.5952V50.6214C58.5994 51.1634 59.0388 51.6029 59.5808 51.6029C60.1228 51.6029 60.5623 51.1634 60.5623 50.6214V49.5952C60.5623 49.0532 60.1228 48.6138 59.5808 48.6138Z" fill="black"/>
<path d="M63.5716 48.6138C63.0296 48.6138 62.5901 49.0532 62.5901 49.5952V50.6214C62.5901 51.1634 63.0296 51.6029 63.5716 51.6029C64.1136 51.6029 64.553 51.1634 64.553 50.6214V49.5952C64.553 49.0532 64.1136 48.6138 63.5716 48.6138Z" fill="black"/>
<path d="M63.3472 33.5315C63.0234 33.0966 62.4087 33.0066 61.9738 33.3302C61.539 33.6538 61.4489 34.2687 61.7726 34.7036C63.7126 37.3096 64.8217 40.3639 65.0086 43.5905H61.4183V41.6695C61.4183 41.1275 60.9789 40.688 60.4369 40.688C59.8949 40.688 59.4554 41.1275 59.4554 41.6695V43.5905H43.7681C42.7023 42.8604 41.5523 42.2354 40.3284 41.7354L41.1089 34.5434C41.1096 34.5374 41.1099 34.5314 41.1105 34.5253C41.618 34.3886 42.126 34.2386 42.6325 34.0706C43.1853 33.8873 43.5876 33.4293 43.7087 32.8454C43.8325 32.2486 43.6298 31.628 43.1798 31.2256L42.2281 30.3747C42.3556 30.1983 42.4988 29.9918 42.6516 29.7594C43.9109 30.623 45.5215 31.1052 47.2258 31.1052C49.5851 31.1052 51.7368 30.1832 53.0287 28.6602C55.3482 29.3212 57.5229 30.4983 59.3506 32.0899C59.5366 32.2518 59.7662 32.3312 59.9948 32.3312C60.2687 32.3312 60.5413 32.2171 60.7354 31.9944C61.0913 31.5856 61.0486 30.9657 60.6398 30.6096C58.7136 28.9321 56.4424 27.6657 54.0152 26.9059C54.1081 26.6127 54.1733 26.3127 54.2068 26.0067L54.6829 21.6187C54.9106 21.6612 55.1403 21.7005 55.3737 21.7337C55.4204 21.7404 55.4667 21.7436 55.5128 21.7436C55.9315 21.7436 56.3114 21.4753 56.4449 21.0675C56.5297 20.8085 58.4876 14.6766 55.5189 10.5809C53.8679 8.30308 51.0777 7.14812 47.226 7.14812C43.3817 7.14812 40.6108 8.29915 38.9903 10.5694C36.0634 14.67 38.1271 20.8214 38.2163 21.0812C38.3151 21.3689 38.5416 21.5943 38.8296 21.692C39.1175 21.7896 39.4346 21.7481 39.6878 21.5797L39.7598 21.5318L39.8437 22.3053C38.2107 22.4765 36.3284 22.5028 34.6575 22.0911C33.4825 21.8016 32.2426 21.7922 31.0516 22.0305V19.5084C31.0516 16.2067 29.7658 13.1026 27.4314 10.7681C25.098 8.43329 21.9943 7.14746 18.692 7.14746C15.405 7.14746 12.311 8.42321 9.97986 10.7396C9.59539 11.1215 9.5933 11.743 9.97541 12.1274C10.3577 12.512 10.9791 12.514 11.3633 12.1319C13.3244 10.1834 15.927 9.11035 18.692 9.11035C21.4698 9.11035 24.0805 10.1919 26.0432 12.1558C28.0072 14.1198 29.0887 16.7309 29.0887 19.5084V22.6738C28.4961 22.9523 27.9365 23.2985 27.4292 23.7107C26.2985 24.6294 25.4667 25.8289 24.9617 27.2277C24.8392 27.182 24.717 27.1356 24.5935 27.0925C25.3913 25.6957 25.8581 24.0113 25.8581 22.1997C25.8581 21.6853 25.8195 21.1761 25.7455 20.6756H27.2973C27.8393 20.6756 28.2787 20.2361 28.2787 19.6941C28.2787 19.1521 27.8393 18.7127 27.2973 18.7127H24.0279L22.241 15.5744C22.0567 15.2508 21.7056 15.0592 21.3336 15.0802C20.962 15.1008 20.6339 15.33 20.4866 15.6719L19.1772 18.7128H10.0862C9.54423 18.7128 9.1048 19.1522 9.1048 19.6943C9.1048 20.2363 9.54423 20.6757 10.0862 20.6757H11.2661C11.1921 21.1761 11.1537 21.6854 11.1537 22.1998C11.1537 24.0109 11.6202 25.6947 12.4176 27.0913C10.9609 27.5969 9.58179 28.2814 8.29387 29.1367V19.5084C8.29387 17.8293 8.68147 16.2271 9.44595 14.7466C9.69459 14.265 9.50589 13.6729 9.02419 13.4243C8.54263 13.1755 7.95049 13.3643 7.70186 13.846C6.80495 15.5829 6.33098 17.541 6.33098 19.5084V30.6358C2.29684 34.157 0 39.1855 0 44.5719C0 45.114 0.439426 45.5534 0.981445 45.5534H20.4856C16.9497 48.9738 14.8252 53.7503 14.8252 58.8709C14.8252 59.413 15.2646 59.8524 15.8066 59.8524H25.3725C25.9145 59.8524 26.3539 59.413 26.3539 58.8709C26.3539 58.3289 25.9145 57.8895 25.3725 57.8895H22.3696V55.9676C22.3696 55.4255 21.9302 54.9861 21.3882 54.9861C20.8462 54.9861 20.4067 55.4255 20.4067 55.9676V57.8895H16.8173C17.1903 51.6211 21.1153 46.0692 26.8993 43.6274C27.9844 45.6456 30.4709 46.9835 33.3315 46.9835C36.193 46.9835 38.6801 45.6447 39.7641 43.6275C45.5477 46.0695 49.4726 51.6212 49.8455 57.8894H46.2563V55.9674C46.2563 55.4254 45.8169 54.986 45.2749 54.986C44.7328 54.986 44.2934 55.4254 44.2934 55.9674V57.8894H29.1084C28.5663 57.8894 28.1269 58.3288 28.1269 58.8708C28.1269 59.4128 28.5663 59.8523 29.1084 59.8523H50.8559C51.3979 59.8523 51.8373 59.4128 51.8373 58.8708C51.8373 53.7501 49.7127 48.9737 46.1769 45.5532H66.0186C66.5606 45.5532 67 45.1138 67 44.5718C67 40.5595 65.7369 36.7417 63.3472 33.5315ZM40.5915 11.7045C41.823 9.98358 44.0551 9.11101 47.2258 9.11101C50.4096 9.11101 52.6637 9.9913 53.9254 11.7275C55.7525 14.2416 55.1725 18.0005 54.7946 19.6417C50.0741 18.6712 46.6892 15.5361 46.6544 15.5035C46.4669 15.3264 46.2245 15.2357 45.9804 15.2357C45.7923 15.2357 45.6029 15.2898 45.4374 15.3998L40.0138 19.0055C40.0087 19.0089 40.0034 19.0122 39.9985 19.0158L39.7417 19.1864C39.3499 17.3786 38.9415 14.0104 40.5915 11.7045ZM45.9042 17.4466C46.9874 18.3304 49.4625 20.1254 52.7599 21.1429L52.2553 25.7943C52.209 26.2173 52.0607 26.628 51.8157 27.0123C50.9866 28.3062 49.1849 29.1423 47.2258 29.1423C45.8818 29.1423 44.5914 28.7437 43.6464 28.0575C43.9859 27.4019 44.3259 26.6551 44.6289 25.8252C44.9833 24.8544 44.7915 23.7606 44.1283 22.9703C43.5352 22.2636 42.6683 21.9187 41.7881 22.03L41.6012 20.3073L45.9042 17.4466ZM28.667 25.2342C29.7954 24.3174 31.2586 23.8205 32.7147 23.8205C33.2111 23.8205 33.7068 23.8782 34.1878 23.9968C36.47 24.5591 39.0242 24.4199 41.0227 24.1368C41.0249 24.1365 41.0272 24.1367 41.0294 24.1364C41.0385 24.1354 41.0473 24.1333 41.0565 24.1321C41.3878 24.0847 41.7053 24.0339 42.0017 23.9813C42.3139 23.9257 42.526 24.1147 42.6247 24.2322C42.7918 24.4314 42.9217 24.7775 42.785 25.1521C41.7368 28.0233 40.1695 29.8285 40.1549 29.8451C39.7972 30.2496 39.8335 30.8672 40.236 31.227L41.5128 32.3685C40.9907 32.5303 40.474 32.6726 39.9645 32.798C39.9286 32.8045 39.8937 32.8132 39.8594 32.8235C33.7363 34.3038 28.6901 33.2972 28.0773 33.1641C27.1206 32.9562 26.3989 32.0367 26.3614 30.9777C26.3318 30.1427 26.4048 29.4079 26.5481 28.7611C26.5499 28.7531 26.5518 28.745 26.5533 28.737C26.9464 26.9894 27.857 25.8924 28.667 25.2342ZM19.8231 20.6757C20.2152 20.6757 20.5695 20.4425 20.7246 20.0824L21.5101 18.2581L22.6044 20.1799C22.779 20.4864 23.1045 20.6757 23.4573 20.6757H23.7566C23.8481 21.1724 23.8953 21.6824 23.8953 22.1998C23.8953 24.0585 23.2961 25.7444 22.3281 26.9694C22.3013 26.998 22.2766 27.0289 22.2532 27.0609C21.2827 28.2426 19.9615 28.9723 18.5067 28.9723C17.0493 28.9723 15.726 28.2407 14.7549 27.0558C14.7345 27.0284 14.713 27.0021 14.69 26.9771C13.7183 25.7515 13.1166 24.0623 13.1166 22.1998C13.1166 21.6824 13.1638 21.1724 13.2553 20.6757H19.8231ZM8.2461 31.5934C9.87242 30.3062 11.6893 29.3531 13.653 28.7534C14.949 30.1097 16.6478 30.9351 18.5067 30.9351C20.3655 30.9351 22.0642 30.1095 23.36 28.7527C23.7427 28.8704 24.1214 29.0033 24.495 29.1487C24.4112 29.7581 24.3766 30.3915 24.3999 31.0471C24.4382 32.1277 24.8582 33.1135 25.5334 33.8509C25.5232 34.0809 25.5286 34.312 25.5534 34.5427L26.3341 41.7354C25.1101 42.2354 23.9601 42.8604 22.8944 43.5905H7.54404V41.6695C7.54404 41.1275 7.10462 40.688 6.5626 40.688C6.02058 40.688 5.58115 41.1275 5.58115 41.6695V43.5905H1.99142C2.26609 38.8806 4.51112 34.5507 8.2461 31.5934ZM33.3312 45.0208C30.9361 45.0208 28.8555 43.7917 28.383 42.0946C28.344 41.9567 28.3168 41.816 28.3017 41.6735L27.5844 35.0638C27.6098 35.0698 27.635 35.0766 27.6605 35.0821C29.0414 35.3822 30.8693 35.5866 32.9466 35.5866C34.8367 35.5866 36.9334 35.4157 39.0855 34.995L38.3602 41.6767C38.3456 41.816 38.3182 41.9568 38.2783 42.0986C37.8068 43.7918 35.7263 45.0208 33.3312 45.0208Z" fill="black"/>
</svg>
