<svg width="19" height="19" viewBox="0 0 19 19" fill="none" xmlns="http://www.w3.org/2000/svg">
<path d="M13.3965 18.7217H14.5098C14.8086 18.7217 15.0517 18.4861 15.0651 18.1906L15.1417 16.4951L9.5 14.2686L13.3965 18.7217Z" fill="#93B7C0"/>
<path d="M3.85828 16.4951L3.93491 18.1906C3.94834 18.4861 4.19144 18.7217 4.49025 18.7217H13.3965C13.6953 18.7217 13.9384 18.4861 13.9518 18.1906L14.0285 16.4951L9.50001 14.2686L3.85828 16.4951Z" fill="#ACD5DF"/>
<path d="M12.2832 5.28809L14.0285 16.4951H15.1417L15.6482 5.28809H12.2832Z" fill="#728E95"/>
<path d="M14.5349 5.28809H10.3475L12.3209 16.4951H14.0285L14.5349 5.28809Z" fill="#83A3AB"/>
<path d="M7.27344 5.28809L9.5 16.4951H12.3209L12.5741 5.28809H7.27344Z" fill="#93B7C0"/>
<path d="M4.19934 5.28809L6.67914 16.4951H9.50001V5.28809H4.19934Z" fill="#ACD5DF"/>
<path d="M3.35181 5.28809L3.85828 16.4951H6.67914L6.42591 5.28809H3.35181Z" fill="#C4F3FF"/>
<path d="M9.5 0.27832C8.27031 0.27832 7.27344 1.27519 7.27344 2.50488V3.61816H8.38672V2.50488C8.38672 1.89002 8.88513 1.3916 9.5 1.3916C10.1149 1.3916 10.6133 1.89002 10.6133 2.50488V3.61816H11.7266V2.50488C11.7266 1.27519 10.7297 0.27832 9.5 0.27832Z" fill="#ACD5DF"/>
<path d="M15.0664 2.50488H13.9531V5.28809H16.1797V3.61816C16.1797 3.0033 15.6813 2.50488 15.0664 2.50488Z" fill="#ACD5DF"/>
<path d="M13.9531 2.50488H3.93359C3.31873 2.50488 2.82031 3.0033 2.82031 3.61816V5.28809H15.0664V3.61816C15.0664 3.0033 14.568 2.50488 13.9531 2.50488Z" fill="#C4F3FF"/>
<path d="M16.1797 4.73145H15.0664V5.84473H16.1797C16.4871 5.84473 16.7363 5.5955 16.7363 5.28809C16.7363 4.98067 16.4871 4.73145 16.1797 4.73145Z" fill="#93B7C0"/>
<path d="M15.623 5.28809C15.623 4.98067 15.3738 4.73145 15.0664 4.73145H2.82031C2.5129 4.73145 2.26367 4.98067 2.26367 5.28809C2.26367 5.5955 2.5129 5.84473 2.82031 5.84473H15.0664C15.3738 5.84473 15.623 5.5955 15.623 5.28809Z" fill="#ACD5DF"/>
<path d="M16.458 4.501V3.61816C16.458 2.85082 15.8338 2.22656 15.0664 2.22656H11.989C11.8501 0.975902 10.7871 0 9.5 0C8.2129 0 7.1499 0.975902 7.01096 2.22656H3.93359C3.16625 2.22656 2.54199 2.85082 2.54199 3.61816V4.501C2.21806 4.61589 1.98535 4.92527 1.98535 5.28809C1.98535 5.74846 2.35993 6.12305 2.82031 6.12305H3.11092L3.65687 18.2032C3.67713 18.65 4.04318 19 4.49023 19H14.5098C14.9568 19 15.3229 18.65 15.3431 18.2031L15.889 6.12305H16.1797C16.6401 6.12305 17.0146 5.74846 17.0146 5.28809C17.0146 4.92527 16.7819 4.61589 16.458 4.501ZM9.5 0.556641C10.4797 0.556641 11.2925 1.28372 11.4281 2.22656H10.8636C10.7343 1.59214 10.1721 1.11328 9.5 1.11328C8.82795 1.11328 8.26571 1.59214 8.13642 2.22656H7.57198C7.70747 1.28372 8.52028 0.556641 9.5 0.556641ZM10.2871 2.22656H8.71291C8.8278 1.90263 9.13718 1.66992 9.5 1.66992C9.86282 1.66992 10.1722 1.90263 10.2871 2.22656ZM14.5098 18.4434H4.49023C4.3415 18.4434 4.21967 18.3268 4.21292 18.178L4.14946 16.7734H14.8505L14.7871 18.178C14.7803 18.3268 14.6585 18.4434 14.5098 18.4434ZM14.8757 16.2168H12.6055L12.8146 6.96432C12.8181 6.81061 12.6963 6.68325 12.5427 6.67976C12.388 6.67742 12.2616 6.79803 12.2581 6.9517L12.0487 16.2168H9.77832V6.95801C9.77832 6.80426 9.65374 6.67969 9.5 6.67969C9.34626 6.67969 9.22168 6.80426 9.22168 6.95801V16.2168H6.95125L6.74188 6.9517C6.73843 6.79807 6.61215 6.67713 6.45733 6.67976C6.30366 6.68325 6.1819 6.81061 6.18539 6.96432L6.39446 16.2168H4.1243L3.66811 6.12305H15.3319L14.8757 16.2168ZM16.1797 5.56641H2.82031C2.66683 5.56641 2.54199 5.44157 2.54199 5.28809C2.54199 5.1346 2.66683 5.00977 2.82031 5.00977C2.97406 5.00977 3.09863 4.88519 3.09863 4.73145V3.61816C3.09863 3.15779 3.47321 2.7832 3.93359 2.7832H15.0664C15.5268 2.7832 15.9014 3.15779 15.9014 3.61816V4.45312H3.93359C3.77985 4.45312 3.65527 4.5777 3.65527 4.73145C3.65527 4.88519 3.77985 5.00977 3.93359 5.00977H16.1797C16.3332 5.00977 16.458 5.1346 16.458 5.28809C16.458 5.44157 16.3332 5.56641 16.1797 5.56641Z" fill="black"/>
</svg>
