<svg width="18" height="18" viewBox="0 0 18 18" fill="none" xmlns="http://www.w3.org/2000/svg">
<circle cx="9" cy="9" r="9" fill="black"/>
<path d="M13.8814 7.71081L8.99982 12.6169L8.49998 13.1192C8.23889 13.3815 7.88508 13.5289 7.51575 13.5289C7.14642 13.5289 6.79255 13.3815 6.53152 13.1192L4.11827 10.6941C3.57451 10.1477 3.57451 9.26184 4.11827 8.71607C4.66202 8.16966 5.54296 8.16966 6.08672 8.71607L7.51575 10.1521L8.99982 8.66075L11.913 5.7328C12.4567 5.18697 13.3377 5.18697 13.8814 5.7328C14.4252 6.27921 14.4252 7.16503 13.8814 7.71081Z" fill="white"/>
<path d="M7.51575 13.9263C7.99333 13.9263 8.4423 13.7395 8.77985 13.4002L14.1614 7.99224C14.8583 7.29188 14.8583 6.15217 14.1614 5.45165C13.4643 4.75123 12.3302 4.75123 11.6331 5.45165L7.51575 9.58926L6.3667 8.4346C5.66958 7.73418 4.53552 7.73413 3.8384 8.43465C3.14143 9.13507 3.14143 10.2748 3.8384 10.9753L6.25165 13.4002C6.58916 13.7395 7.03813 13.9263 7.51575 13.9263ZM4.39814 8.99713C4.59231 8.80197 4.84743 8.70439 5.1025 8.70439C5.35757 8.70439 5.61269 8.80197 5.80691 8.99713L7.23583 10.433C7.39046 10.5883 7.64104 10.5884 7.79563 10.433L12.1929 6.01423C12.5812 5.62385 13.2132 5.62395 13.6015 6.01418C13.9898 6.40446 13.9898 7.03954 13.6015 7.42976L8.22 12.8377C8.03196 13.0267 7.7818 13.1308 7.5157 13.1308C7.2496 13.1308 6.99944 13.0267 6.81135 12.8376L4.39809 10.4127C4.00982 10.0224 4.00982 9.38736 4.39814 8.99713Z" fill="black"/>
</svg>
